<svg width="1363" height="163" viewBox="0 0 1363 163" fill="none" xmlns="http://www.w3.org/2000/svg">
<path d="M0 15C0 6.71573 6.71573 0 15 0H37V163H15C6.71573 163 0 156.284 0 148V15Z" fill="#424242"/>
<rect width="1097" height="163" transform="translate(37)" fill="#F0F0F0"/>
<path d="M105.492 58.2578V61H96.9023V58.2578H105.492ZM98.0391 43.9375V61H94.5234V43.9375H98.0391ZM110.859 48.3203V61H107.473V48.3203H110.859ZM107.262 45.0156C107.262 44.5234 107.434 44.1172 107.777 43.7969C108.121 43.4766 108.582 43.3164 109.16 43.3164C109.73 43.3164 110.188 43.4766 110.531 43.7969C110.883 44.1172 111.059 44.5234 111.059 45.0156C111.059 45.5078 110.883 45.9141 110.531 46.2344C110.188 46.5547 109.73 46.7148 109.16 46.7148C108.582 46.7148 108.121 46.5547 107.777 46.2344C107.434 45.9141 107.262 45.5078 107.262 45.0156ZM116.953 51.0273V61H113.578V48.3203H116.742L116.953 51.0273ZM116.461 54.2148H115.547C115.547 53.2773 115.668 52.4336 115.91 51.6836C116.152 50.9258 116.492 50.2812 116.93 49.75C117.367 49.2109 117.887 48.8008 118.488 48.5195C119.098 48.2305 119.777 48.0859 120.527 48.0859C121.121 48.0859 121.664 48.1719 122.156 48.3438C122.648 48.5156 123.07 48.7891 123.422 49.1641C123.781 49.5391 124.055 50.0352 124.242 50.6523C124.438 51.2695 124.535 52.0234 124.535 52.9141V61H121.137V52.9023C121.137 52.3398 121.059 51.9023 120.902 51.5898C120.746 51.2773 120.516 51.0586 120.211 50.9336C119.914 50.8008 119.547 50.7344 119.109 50.7344C118.656 50.7344 118.262 50.8242 117.926 51.0039C117.598 51.1836 117.324 51.4336 117.105 51.7539C116.895 52.0664 116.734 52.4336 116.625 52.8555C116.516 53.2773 116.461 53.7305 116.461 54.2148ZM135.129 48.3203H138.188V60.5781C138.188 61.7344 137.93 62.7148 137.414 63.5195C136.906 64.332 136.195 64.9453 135.281 65.3594C134.367 65.7812 133.305 65.9922 132.094 65.9922C131.562 65.9922 131 65.9219 130.406 65.7812C129.82 65.6406 129.258 65.4219 128.719 65.125C128.188 64.8281 127.742 64.4531 127.383 64L128.871 62.0078C129.262 62.4609 129.715 62.8125 130.23 63.0625C130.746 63.3203 131.316 63.4492 131.941 63.4492C132.551 63.4492 133.066 63.3359 133.488 63.1094C133.91 62.8906 134.234 62.5664 134.461 62.1367C134.688 61.7148 134.801 61.2031 134.801 60.6016V51.25L135.129 48.3203ZM126.598 54.8125V54.5664C126.598 53.5977 126.715 52.7188 126.949 51.9297C127.191 51.1328 127.531 50.4492 127.969 49.8789C128.414 49.3086 128.953 48.8672 129.586 48.5547C130.219 48.2422 130.934 48.0859 131.73 48.0859C132.574 48.0859 133.281 48.2422 133.852 48.5547C134.422 48.8672 134.891 49.3125 135.258 49.8906C135.625 50.4609 135.91 51.1367 136.113 51.918C136.324 52.6914 136.488 53.5391 136.605 54.4609V55C136.488 55.8828 136.312 56.7031 136.078 57.4609C135.844 58.2188 135.535 58.8828 135.152 59.4531C134.77 60.0156 134.293 60.4531 133.723 60.7656C133.16 61.0781 132.488 61.2344 131.707 61.2344C130.926 61.2344 130.219 61.0742 129.586 60.7539C128.961 60.4336 128.426 59.9844 127.98 59.4062C127.535 58.8281 127.191 58.1484 126.949 57.3672C126.715 56.5859 126.598 55.7344 126.598 54.8125ZM129.973 54.5664V54.8125C129.973 55.3359 130.023 55.8242 130.125 56.2773C130.227 56.7305 130.383 57.1328 130.594 57.4844C130.812 57.8281 131.082 58.0977 131.402 58.293C131.73 58.4805 132.117 58.5742 132.562 58.5742C133.18 58.5742 133.684 58.4453 134.074 58.1875C134.465 57.9219 134.758 57.5586 134.953 57.0977C135.148 56.6367 135.262 56.1055 135.293 55.5039V53.9688C135.277 53.4766 135.211 53.0352 135.094 52.6445C134.977 52.2461 134.812 51.9062 134.602 51.625C134.391 51.3438 134.117 51.125 133.781 50.9688C133.445 50.8125 133.047 50.7344 132.586 50.7344C132.141 50.7344 131.754 50.8359 131.426 51.0391C131.105 51.2344 130.836 51.5039 130.617 51.8477C130.406 52.1914 130.246 52.5977 130.137 53.0664C130.027 53.5273 129.973 54.0273 129.973 54.5664ZM140.273 54.7891V54.543C140.273 53.6133 140.406 52.7578 140.672 51.9766C140.938 51.1875 141.324 50.5039 141.832 49.9258C142.34 49.3477 142.965 48.8984 143.707 48.5781C144.449 48.25 145.301 48.0859 146.262 48.0859C147.223 48.0859 148.078 48.25 148.828 48.5781C149.578 48.8984 150.207 49.3477 150.715 49.9258C151.23 50.5039 151.621 51.1875 151.887 51.9766C152.152 52.7578 152.285 53.6133 152.285 54.543V54.7891C152.285 55.7109 152.152 56.5664 151.887 57.3555C151.621 58.1367 151.23 58.8203 150.715 59.4062C150.207 59.9844 149.582 60.4336 148.84 60.7539C148.098 61.0742 147.246 61.2344 146.285 61.2344C145.324 61.2344 144.469 61.0742 143.719 60.7539C142.977 60.4336 142.348 59.9844 141.832 59.4062C141.324 58.8203 140.938 58.1367 140.672 57.3555C140.406 56.5664 140.273 55.7109 140.273 54.7891ZM143.648 54.543V54.7891C143.648 55.3203 143.695 55.8164 143.789 56.2773C143.883 56.7383 144.031 57.1445 144.234 57.4961C144.445 57.8398 144.719 58.1094 145.055 58.3047C145.391 58.5 145.801 58.5977 146.285 58.5977C146.754 58.5977 147.156 58.5 147.492 58.3047C147.828 58.1094 148.098 57.8398 148.301 57.4961C148.504 57.1445 148.652 56.7383 148.746 56.2773C148.848 55.8164 148.898 55.3203 148.898 54.7891V54.543C148.898 54.0273 148.848 53.543 148.746 53.0898C148.652 52.6289 148.5 52.2227 148.289 51.8711C148.086 51.5117 147.816 51.2305 147.48 51.0273C147.145 50.8242 146.738 50.7227 146.262 50.7227C145.785 50.7227 145.379 50.8242 145.043 51.0273C144.715 51.2305 144.445 51.5117 144.234 51.8711C144.031 52.2227 143.883 52.6289 143.789 53.0898C143.695 53.543 143.648 54.0273 143.648 54.543ZM169.816 58.4688L174.434 62.125L172.219 64.0469L167.672 60.3906L169.816 58.4688ZM174.551 52.0703V52.8789C174.551 54.1758 174.375 55.3398 174.023 56.3711C173.68 57.4023 173.184 58.2812 172.535 59.0078C171.887 59.7266 171.121 60.2773 170.238 60.6602C169.355 61.043 168.375 61.2344 167.297 61.2344C166.227 61.2344 165.246 61.043 164.355 60.6602C163.465 60.2773 162.695 59.7266 162.047 59.0078C161.398 58.2812 160.895 57.4023 160.535 56.3711C160.184 55.3398 160.008 54.1758 160.008 52.8789V52.0703C160.008 50.7656 160.184 49.6016 160.535 48.5781C160.895 47.5469 161.395 46.668 162.035 45.9414C162.676 45.2148 163.441 44.6602 164.332 44.2773C165.223 43.8945 166.203 43.7031 167.273 43.7031C168.352 43.7031 169.332 43.8945 170.215 44.2773C171.105 44.6602 171.875 45.2148 172.523 45.9414C173.172 46.668 173.672 47.5469 174.023 48.5781C174.375 49.6016 174.551 50.7656 174.551 52.0703ZM171 52.8789V52.0469C171 51.1406 170.914 50.3438 170.742 49.6562C170.578 48.9688 170.336 48.3906 170.016 47.9219C169.703 47.4531 169.316 47.1016 168.855 46.8672C168.395 46.625 167.867 46.5039 167.273 46.5039C166.68 46.5039 166.152 46.625 165.691 46.8672C165.23 47.1016 164.844 47.4531 164.531 47.9219C164.219 48.3906 163.98 48.9688 163.816 49.6562C163.652 50.3438 163.57 51.1406 163.57 52.0469V52.8789C163.57 53.7773 163.652 54.5742 163.816 55.2695C163.98 55.957 164.219 56.5391 164.531 57.0156C164.852 57.4844 165.242 57.8398 165.703 58.082C166.172 58.3242 166.703 58.4453 167.297 58.4453C167.891 58.4453 168.414 58.3242 168.867 58.082C169.328 57.8398 169.715 57.4844 170.027 57.0156C170.348 56.5391 170.59 55.957 170.754 55.2695C170.918 54.5742 171 53.7773 171 52.8789ZM184.383 57.9648V48.3203H187.758V61H184.582L184.383 57.9648ZM184.758 55.3633L185.754 55.3398C185.754 56.1836 185.656 56.9688 185.461 57.6953C185.266 58.4141 184.973 59.0391 184.582 59.5703C184.191 60.0938 183.699 60.5039 183.105 60.8008C182.512 61.0898 181.812 61.2344 181.008 61.2344C180.391 61.2344 179.82 61.1484 179.297 60.9766C178.781 60.7969 178.336 60.5195 177.961 60.1445C177.594 59.7617 177.305 59.2734 177.094 58.6797C176.891 58.0781 176.789 57.3555 176.789 56.5117V48.3203H180.164V56.5352C180.164 56.9102 180.207 57.2266 180.293 57.4844C180.387 57.7422 180.516 57.9531 180.68 58.1172C180.844 58.2812 181.035 58.3984 181.254 58.4688C181.48 58.5391 181.73 58.5742 182.004 58.5742C182.699 58.5742 183.246 58.4336 183.645 58.1523C184.051 57.8711 184.336 57.4883 184.5 57.0039C184.672 56.5117 184.758 55.9648 184.758 55.3633ZM196.172 61.2344C195.188 61.2344 194.305 61.0781 193.523 60.7656C192.742 60.4453 192.078 60.0039 191.531 59.4414C190.992 58.8789 190.578 58.2266 190.289 57.4844C190 56.7344 189.855 55.9375 189.855 55.0938V54.625C189.855 53.6641 189.992 52.7852 190.266 51.9883C190.539 51.1914 190.93 50.5 191.438 49.9141C191.953 49.3281 192.578 48.8789 193.312 48.5664C194.047 48.2461 194.875 48.0859 195.797 48.0859C196.695 48.0859 197.492 48.2344 198.188 48.5312C198.883 48.8281 199.465 49.25 199.934 49.7969C200.41 50.3438 200.77 51 201.012 51.7656C201.254 52.5234 201.375 53.3672 201.375 54.2969V55.7031H191.297V53.4531H198.059V53.1953C198.059 52.7266 197.973 52.3086 197.801 51.9414C197.637 51.5664 197.387 51.2695 197.051 51.0508C196.715 50.832 196.285 50.7227 195.762 50.7227C195.316 50.7227 194.934 50.8203 194.613 51.0156C194.293 51.2109 194.031 51.4844 193.828 51.8359C193.633 52.1875 193.484 52.6016 193.383 53.0781C193.289 53.5469 193.242 54.0625 193.242 54.625V55.0938C193.242 55.6016 193.312 56.0703 193.453 56.5C193.602 56.9297 193.809 57.3008 194.074 57.6133C194.348 57.9258 194.676 58.168 195.059 58.3398C195.449 58.5117 195.891 58.5977 196.383 58.5977C196.992 58.5977 197.559 58.4805 198.082 58.2461C198.613 58.0039 199.07 57.6406 199.453 57.1562L201.094 58.9375C200.828 59.3203 200.465 59.6875 200.004 60.0391C199.551 60.3906 199.004 60.6797 198.363 60.9062C197.723 61.125 196.992 61.2344 196.172 61.2344ZM210.152 57.4961C210.152 57.2539 210.082 57.0352 209.941 56.8398C209.801 56.6445 209.539 56.4648 209.156 56.3008C208.781 56.1289 208.238 55.9727 207.527 55.832C206.887 55.6914 206.289 55.5156 205.734 55.3047C205.188 55.0859 204.711 54.8242 204.305 54.5195C203.906 54.2148 203.594 53.8555 203.367 53.4414C203.141 53.0195 203.027 52.5391 203.027 52C203.027 51.4688 203.141 50.9688 203.367 50.5C203.602 50.0312 203.934 49.6172 204.363 49.2578C204.801 48.8906 205.332 48.6055 205.957 48.4023C206.59 48.1914 207.301 48.0859 208.09 48.0859C209.191 48.0859 210.137 48.2617 210.926 48.6133C211.723 48.9648 212.332 49.4492 212.754 50.0664C213.184 50.6758 213.398 51.3711 213.398 52.1523H210.023C210.023 51.8242 209.953 51.5312 209.812 51.2734C209.68 51.0078 209.469 50.8008 209.18 50.6523C208.898 50.4961 208.531 50.418 208.078 50.418C207.703 50.418 207.379 50.4844 207.105 50.6172C206.832 50.7422 206.621 50.9141 206.473 51.1328C206.332 51.3438 206.262 51.5781 206.262 51.8359C206.262 52.0312 206.301 52.207 206.379 52.3633C206.465 52.5117 206.602 52.6484 206.789 52.7734C206.977 52.8984 207.219 53.0156 207.516 53.125C207.82 53.2266 208.195 53.3203 208.641 53.4062C209.555 53.5938 210.371 53.8398 211.09 54.1445C211.809 54.4414 212.379 54.8477 212.801 55.3633C213.223 55.8711 213.434 56.5391 213.434 57.3672C213.434 57.9297 213.309 58.4453 213.059 58.9141C212.809 59.3828 212.449 59.793 211.98 60.1445C211.512 60.4883 210.949 60.7578 210.293 60.9531C209.645 61.1406 208.914 61.2344 208.102 61.2344C206.922 61.2344 205.922 61.0234 205.102 60.6016C204.289 60.1797 203.672 59.6445 203.25 58.9961C202.836 58.3398 202.629 57.668 202.629 56.9805H205.828C205.844 57.4414 205.961 57.8125 206.18 58.0938C206.406 58.375 206.691 58.5781 207.035 58.7031C207.387 58.8281 207.766 58.8906 208.172 58.8906C208.609 58.8906 208.973 58.832 209.262 58.7148C209.551 58.5898 209.77 58.4258 209.918 58.2227C210.074 58.0117 210.152 57.7695 210.152 57.4961ZM221.836 48.3203V50.7109H214.453V48.3203H221.836ZM216.281 45.1914H219.656V57.1797C219.656 57.5469 219.703 57.8281 219.797 58.0234C219.898 58.2188 220.047 58.3555 220.242 58.4336C220.438 58.5039 220.684 58.5391 220.98 58.5391C221.191 58.5391 221.379 58.5312 221.543 58.5156C221.715 58.4922 221.859 58.4688 221.977 58.4453L221.988 60.9297C221.699 61.0234 221.387 61.0977 221.051 61.1523C220.715 61.207 220.344 61.2344 219.938 61.2344C219.195 61.2344 218.547 61.1133 217.992 60.8711C217.445 60.6211 217.023 60.2227 216.727 59.6758C216.43 59.1289 216.281 58.4102 216.281 57.5195V45.1914Z" fill="#888888"/>
<path d="M109.219 107.422H100.734V101.07H109.219C110.375 101.07 111.312 100.875 112.031 100.484C112.75 100.094 113.273 99.5547 113.602 98.8672C113.945 98.1641 114.117 97.375 114.117 96.5C114.117 95.5625 113.945 94.6953 113.602 93.8984C113.273 93.1016 112.75 92.4609 112.031 91.9766C111.312 91.4766 110.375 91.2266 109.219 91.2266H103.828V119H95.6016V84.875H109.219C111.953 84.875 114.305 85.375 116.273 86.375C118.258 87.375 119.781 88.75 120.844 90.5C121.906 92.2344 122.438 94.2188 122.438 96.4531C122.438 98.6562 121.906 100.578 120.844 102.219C119.781 103.859 118.258 105.141 116.273 106.062C114.305 106.969 111.953 107.422 109.219 107.422ZM134.461 99.9219V119H126.562V93.6406H133.945L134.461 99.9219ZM141.961 93.4531L141.82 100.789C141.508 100.758 141.086 100.719 140.555 100.672C140.023 100.625 139.578 100.602 139.219 100.602C138.297 100.602 137.5 100.711 136.828 100.93C136.172 101.133 135.625 101.445 135.188 101.867C134.766 102.273 134.453 102.789 134.25 103.414C134.062 104.039 133.977 104.766 133.992 105.594L132.562 104.656C132.562 102.953 132.727 101.406 133.055 100.016C133.398 98.6094 133.883 97.3984 134.508 96.3828C135.133 95.3516 135.891 94.5625 136.781 94.0156C137.672 93.4531 138.672 93.1719 139.781 93.1719C140.172 93.1719 140.555 93.1953 140.93 93.2422C141.32 93.2891 141.664 93.3594 141.961 93.4531ZM142.852 106.578V106.086C142.852 104.227 143.117 102.516 143.648 100.953C144.18 99.375 144.961 98.0078 145.992 96.8516C147.023 95.6953 148.297 94.7969 149.812 94.1562C151.328 93.5 153.078 93.1719 155.062 93.1719C157.062 93.1719 158.82 93.5 160.336 94.1562C161.867 94.7969 163.148 95.6953 164.18 96.8516C165.211 98.0078 165.992 99.375 166.523 100.953C167.055 102.516 167.32 104.227 167.32 106.086V106.578C167.32 108.422 167.055 110.133 166.523 111.711C165.992 113.273 165.211 114.641 164.18 115.812C163.148 116.969 161.875 117.867 160.359 118.508C158.844 119.148 157.094 119.469 155.109 119.469C153.125 119.469 151.367 119.148 149.836 118.508C148.305 117.867 147.023 116.969 145.992 115.812C144.961 114.641 144.18 113.273 143.648 111.711C143.117 110.133 142.852 108.422 142.852 106.578ZM150.75 106.086V106.578C150.75 107.531 150.82 108.422 150.961 109.25C151.102 110.078 151.336 110.805 151.664 111.43C151.992 112.039 152.438 112.516 153 112.859C153.562 113.203 154.266 113.375 155.109 113.375C155.938 113.375 156.625 113.203 157.172 112.859C157.734 112.516 158.18 112.039 158.508 111.43C158.836 110.805 159.07 110.078 159.211 109.25C159.352 108.422 159.422 107.531 159.422 106.578V106.086C159.422 105.164 159.352 104.297 159.211 103.484C159.07 102.656 158.836 101.93 158.508 101.305C158.18 100.664 157.734 100.164 157.172 99.8047C156.609 99.4453 155.906 99.2656 155.062 99.2656C154.234 99.2656 153.539 99.4453 152.977 99.8047C152.43 100.164 151.992 100.664 151.664 101.305C151.336 101.93 151.102 102.656 150.961 103.484C150.82 104.297 150.75 105.164 150.75 106.086ZM178.805 99.0078V119H170.906V93.6406H178.312L178.805 99.0078ZM177.844 105.453L176.039 105.5C176.039 103.719 176.25 102.078 176.672 100.578C177.094 99.0781 177.719 97.7734 178.547 96.6641C179.375 95.5547 180.391 94.6953 181.594 94.0859C182.812 93.4766 184.219 93.1719 185.812 93.1719C186.922 93.1719 187.93 93.3438 188.836 93.6875C189.742 94.0156 190.523 94.5391 191.18 95.2578C191.836 95.9609 192.336 96.8828 192.68 98.0234C193.039 99.1484 193.219 100.5 193.219 102.078V119H185.32V103.086C185.32 102.008 185.195 101.195 184.945 100.648C184.711 100.102 184.367 99.7344 183.914 99.5469C183.461 99.3594 182.906 99.2656 182.25 99.2656C181.562 99.2656 180.945 99.4219 180.398 99.7344C179.852 100.047 179.383 100.484 178.992 101.047C178.617 101.594 178.328 102.242 178.125 102.992C177.938 103.742 177.844 104.562 177.844 105.453ZM192.328 105.453L190.125 105.5C190.125 103.719 190.32 102.078 190.711 100.578C191.117 99.0781 191.719 97.7734 192.516 96.6641C193.328 95.5547 194.336 94.6953 195.539 94.0859C196.742 93.4766 198.141 93.1719 199.734 93.1719C200.891 93.1719 201.953 93.3438 202.922 93.6875C203.891 94.0312 204.727 94.5859 205.43 95.3516C206.133 96.1172 206.68 97.1328 207.07 98.3984C207.461 99.6484 207.656 101.195 207.656 103.039V119H199.734V103.039C199.734 101.992 199.609 101.203 199.359 100.672C199.125 100.125 198.781 99.7578 198.328 99.5703C197.875 99.3672 197.336 99.2656 196.711 99.2656C195.961 99.2656 195.312 99.4219 194.766 99.7344C194.219 100.047 193.758 100.484 193.383 101.047C193.023 101.594 192.758 102.242 192.586 102.992C192.414 103.742 192.328 104.562 192.328 105.453ZM220.148 98.5156V128.75H212.25V93.6406H219.609L220.148 98.5156ZM235.711 106.016V106.508C235.711 108.352 235.5 110.062 235.078 111.641C234.656 113.219 234.031 114.594 233.203 115.766C232.375 116.938 231.344 117.852 230.109 118.508C228.891 119.148 227.477 119.469 225.867 119.469C224.352 119.469 223.047 119.133 221.953 118.461C220.859 117.789 219.945 116.859 219.211 115.672C218.477 114.484 217.883 113.125 217.43 111.594C216.977 110.062 216.617 108.445 216.352 106.742V106.109C216.617 104.281 216.977 102.586 217.43 101.023C217.883 99.4453 218.477 98.0703 219.211 96.8984C219.945 95.7266 220.852 94.8125 221.93 94.1562C223.023 93.5 224.328 93.1719 225.844 93.1719C227.453 93.1719 228.867 93.4766 230.086 94.0859C231.32 94.6953 232.352 95.5703 233.18 96.7109C234.023 97.8359 234.656 99.1875 235.078 100.766C235.5 102.344 235.711 104.094 235.711 106.016ZM227.812 106.508V106.016C227.812 105.031 227.742 104.133 227.602 103.32C227.461 102.492 227.234 101.773 226.922 101.164C226.625 100.555 226.227 100.086 225.727 99.7578C225.227 99.4297 224.609 99.2656 223.875 99.2656C223.031 99.2656 222.32 99.3984 221.742 99.6641C221.18 99.9141 220.727 100.305 220.383 100.836C220.055 101.352 219.82 102 219.68 102.781C219.555 103.547 219.5 104.445 219.516 105.477V107.398C219.484 108.586 219.602 109.633 219.867 110.539C220.133 111.43 220.594 112.125 221.25 112.625C221.906 113.125 222.797 113.375 223.922 113.375C224.672 113.375 225.297 113.203 225.797 112.859C226.297 112.5 226.695 112.008 226.992 111.383C227.289 110.742 227.5 110.008 227.625 109.18C227.75 108.352 227.812 107.461 227.812 106.508ZM252.586 93.6406V99.125H237.305V93.6406H252.586ZM240.516 87.3359H248.414V110.727C248.414 111.398 248.492 111.922 248.648 112.297C248.805 112.656 249.07 112.914 249.445 113.07C249.836 113.211 250.352 113.281 250.992 113.281C251.445 113.281 251.82 113.273 252.117 113.258C252.414 113.227 252.695 113.188 252.961 113.141V118.789C252.289 119.008 251.586 119.172 250.852 119.281C250.117 119.406 249.336 119.469 248.508 119.469C246.82 119.469 245.375 119.203 244.172 118.672C242.984 118.141 242.078 117.305 241.453 116.164C240.828 115.023 240.516 113.539 240.516 111.711V87.3359ZM291.539 112.672V119H273.352V112.672H291.539ZM276.281 84.875V119H268.055V84.875H276.281ZM289.195 98.4219V104.539H273.352V98.4219H289.195ZM291.609 84.875V91.2266H273.352V84.875H291.609ZM302.297 99.0547V119H294.398V93.6406H301.805L302.297 99.0547ZM301.359 105.453L299.508 105.5C299.508 103.562 299.742 101.836 300.211 100.32C300.68 98.7891 301.344 97.4922 302.203 96.4297C303.062 95.3672 304.086 94.5625 305.273 94.0156C306.477 93.4531 307.812 93.1719 309.281 93.1719C310.453 93.1719 311.523 93.3438 312.492 93.6875C313.477 94.0312 314.32 94.5859 315.023 95.3516C315.742 96.1172 316.289 97.1328 316.664 98.3984C317.055 99.6484 317.25 101.195 317.25 103.039V119H309.305V103.016C309.305 102 309.164 101.227 308.883 100.695C308.602 100.148 308.195 99.7734 307.664 99.5703C307.133 99.3672 306.484 99.2656 305.719 99.2656C304.906 99.2656 304.219 99.4219 303.656 99.7344C303.094 100.047 302.641 100.484 302.297 101.047C301.969 101.594 301.727 102.242 301.57 102.992C301.43 103.742 301.359 104.562 301.359 105.453ZM337.57 93.6406H344.742V118.016C344.742 120.359 344.203 122.344 343.125 123.969C342.047 125.609 340.539 126.852 338.602 127.695C336.68 128.555 334.43 128.984 331.852 128.984C330.711 128.984 329.547 128.836 328.359 128.539C327.172 128.258 326.062 127.836 325.031 127.273C324 126.711 323.133 126.016 322.43 125.188L325.734 120.547C326.375 121.266 327.18 121.875 328.148 122.375C329.117 122.891 330.258 123.148 331.57 123.148C332.711 123.148 333.664 122.945 334.43 122.539C335.211 122.133 335.805 121.539 336.211 120.758C336.617 119.992 336.82 119.062 336.82 117.969V99.6406L337.57 93.6406ZM320.719 106.625V106.133C320.719 104.211 320.953 102.461 321.422 100.883C321.906 99.2891 322.594 97.9219 323.484 96.7812C324.391 95.625 325.484 94.7344 326.766 94.1094C328.047 93.4844 329.492 93.1719 331.102 93.1719C332.836 93.1719 334.258 93.5078 335.367 94.1797C336.492 94.8359 337.391 95.7578 338.062 96.9453C338.75 98.1328 339.281 99.5234 339.656 101.117C340.047 102.695 340.375 104.398 340.641 106.227V106.812C340.375 108.531 340.008 110.156 339.539 111.688C339.086 113.203 338.492 114.547 337.758 115.719C337.023 116.891 336.102 117.812 334.992 118.484C333.898 119.141 332.586 119.469 331.055 119.469C329.461 119.469 328.023 119.148 326.742 118.508C325.477 117.867 324.391 116.969 323.484 115.812C322.594 114.656 321.906 113.297 321.422 111.734C320.953 110.172 320.719 108.469 320.719 106.625ZM328.617 106.133V106.625C328.617 107.578 328.703 108.461 328.875 109.273C329.062 110.086 329.344 110.805 329.719 111.43C330.094 112.039 330.555 112.516 331.102 112.859C331.664 113.203 332.32 113.375 333.07 113.375C334.211 113.375 335.133 113.133 335.836 112.648C336.539 112.164 337.047 111.477 337.359 110.586C337.672 109.695 337.805 108.648 337.758 107.445V105.594C337.789 104.562 337.719 103.656 337.547 102.875C337.375 102.078 337.102 101.414 336.727 100.883C336.367 100.352 335.883 99.9531 335.273 99.6875C334.68 99.4062 333.961 99.2656 333.117 99.2656C332.383 99.2656 331.734 99.4375 331.172 99.7812C330.609 100.125 330.141 100.609 329.766 101.234C329.391 101.844 329.102 102.57 328.898 103.414C328.711 104.242 328.617 105.148 328.617 106.133ZM357.633 93.6406V119H349.711V93.6406H357.633ZM349.242 87.1016C349.242 85.9766 349.648 85.0547 350.461 84.3359C351.273 83.6172 352.328 83.2578 353.625 83.2578C354.922 83.2578 355.977 83.6172 356.789 84.3359C357.602 85.0547 358.008 85.9766 358.008 87.1016C358.008 88.2266 357.602 89.1484 356.789 89.8672C355.977 90.5859 354.922 90.9453 353.625 90.9453C352.328 90.9453 351.273 90.5859 350.461 89.8672C349.648 89.1484 349.242 88.2266 349.242 87.1016ZM370.266 99.0547V119H362.367V93.6406H369.773L370.266 99.0547ZM369.328 105.453L367.477 105.5C367.477 103.562 367.711 101.836 368.18 100.32C368.648 98.7891 369.312 97.4922 370.172 96.4297C371.031 95.3672 372.055 94.5625 373.242 94.0156C374.445 93.4531 375.781 93.1719 377.25 93.1719C378.422 93.1719 379.492 93.3438 380.461 93.6875C381.445 94.0312 382.289 94.5859 382.992 95.3516C383.711 96.1172 384.258 97.1328 384.633 98.3984C385.023 99.6484 385.219 101.195 385.219 103.039V119H377.273V103.016C377.273 102 377.133 101.227 376.852 100.695C376.57 100.148 376.164 99.7734 375.633 99.5703C375.102 99.3672 374.453 99.2656 373.688 99.2656C372.875 99.2656 372.188 99.4219 371.625 99.7344C371.062 100.047 370.609 100.484 370.266 101.047C369.938 101.594 369.695 102.242 369.539 102.992C369.398 103.742 369.328 104.562 369.328 105.453ZM401.883 119.469C399.82 119.469 397.977 119.148 396.352 118.508C394.727 117.852 393.352 116.953 392.227 115.812C391.117 114.672 390.266 113.359 389.672 111.875C389.094 110.391 388.805 108.82 388.805 107.164V106.273C388.805 104.414 389.062 102.695 389.578 101.117C390.094 99.5234 390.859 98.1328 391.875 96.9453C392.891 95.7578 394.164 94.8359 395.695 94.1797C397.227 93.5078 399.008 93.1719 401.039 93.1719C402.836 93.1719 404.445 93.4609 405.867 94.0391C407.289 94.6172 408.492 95.4453 409.477 96.5234C410.477 97.6016 411.234 98.9062 411.75 100.438C412.281 101.969 412.547 103.688 412.547 105.594V108.805H391.828V103.859H404.836V103.25C404.852 102.406 404.703 101.688 404.391 101.094C404.094 100.5 403.656 100.047 403.078 99.7344C402.5 99.4219 401.797 99.2656 400.969 99.2656C400.109 99.2656 399.398 99.4531 398.836 99.8281C398.289 100.203 397.859 100.719 397.547 101.375C397.25 102.016 397.039 102.758 396.914 103.602C396.789 104.445 396.727 105.336 396.727 106.273V107.164C396.727 108.102 396.852 108.953 397.102 109.719C397.367 110.484 397.742 111.141 398.227 111.688C398.727 112.219 399.32 112.633 400.008 112.93C400.711 113.227 401.508 113.375 402.398 113.375C403.477 113.375 404.539 113.172 405.586 112.766C406.633 112.359 407.531 111.688 408.281 110.75L411.867 115.016C411.352 115.75 410.617 116.461 409.664 117.148C408.727 117.836 407.602 118.398 406.289 118.836C404.977 119.258 403.508 119.469 401.883 119.469ZM428.039 119.469C425.977 119.469 424.133 119.148 422.508 118.508C420.883 117.852 419.508 116.953 418.383 115.812C417.273 114.672 416.422 113.359 415.828 111.875C415.25 110.391 414.961 108.82 414.961 107.164V106.273C414.961 104.414 415.219 102.695 415.734 101.117C416.25 99.5234 417.016 98.1328 418.031 96.9453C419.047 95.7578 420.32 94.8359 421.852 94.1797C423.383 93.5078 425.164 93.1719 427.195 93.1719C428.992 93.1719 430.602 93.4609 432.023 94.0391C433.445 94.6172 434.648 95.4453 435.633 96.5234C436.633 97.6016 437.391 98.9062 437.906 100.438C438.438 101.969 438.703 103.688 438.703 105.594V108.805H417.984V103.859H430.992V103.25C431.008 102.406 430.859 101.688 430.547 101.094C430.25 100.5 429.812 100.047 429.234 99.7344C428.656 99.4219 427.953 99.2656 427.125 99.2656C426.266 99.2656 425.555 99.4531 424.992 99.8281C424.445 100.203 424.016 100.719 423.703 101.375C423.406 102.016 423.195 102.758 423.07 103.602C422.945 104.445 422.883 105.336 422.883 106.273V107.164C422.883 108.102 423.008 108.953 423.258 109.719C423.523 110.484 423.898 111.141 424.383 111.688C424.883 112.219 425.477 112.633 426.164 112.93C426.867 113.227 427.664 113.375 428.555 113.375C429.633 113.375 430.695 113.172 431.742 112.766C432.789 112.359 433.688 111.688 434.438 110.75L438.023 115.016C437.508 115.75 436.773 116.461 435.82 117.148C434.883 117.836 433.758 118.398 432.445 118.836C431.133 119.258 429.664 119.469 428.039 119.469ZM449.883 99.9219V119H441.984V93.6406H449.367L449.883 99.9219ZM457.383 93.4531L457.242 100.789C456.93 100.758 456.508 100.719 455.977 100.672C455.445 100.625 455 100.602 454.641 100.602C453.719 100.602 452.922 100.711 452.25 100.93C451.594 101.133 451.047 101.445 450.609 101.867C450.188 102.273 449.875 102.789 449.672 103.414C449.484 104.039 449.398 104.766 449.414 105.594L447.984 104.656C447.984 102.953 448.148 101.406 448.477 100.016C448.82 98.6094 449.305 97.3984 449.93 96.3828C450.555 95.3516 451.312 94.5625 452.203 94.0156C453.094 93.4531 454.094 93.1719 455.203 93.1719C455.594 93.1719 455.977 93.1953 456.352 93.2422C456.742 93.2891 457.086 93.3594 457.383 93.4531ZM468.445 93.6406V119H460.523V93.6406H468.445ZM460.055 87.1016C460.055 85.9766 460.461 85.0547 461.273 84.3359C462.086 83.6172 463.141 83.2578 464.438 83.2578C465.734 83.2578 466.789 83.6172 467.602 84.3359C468.414 85.0547 468.82 85.9766 468.82 87.1016C468.82 88.2266 468.414 89.1484 467.602 89.8672C466.789 90.5859 465.734 90.9453 464.438 90.9453C463.141 90.9453 462.086 90.5859 461.273 89.8672C460.461 89.1484 460.055 88.2266 460.055 87.1016ZM481.078 99.0547V119H473.18V93.6406H480.586L481.078 99.0547ZM480.141 105.453L478.289 105.5C478.289 103.562 478.523 101.836 478.992 100.32C479.461 98.7891 480.125 97.4922 480.984 96.4297C481.844 95.3672 482.867 94.5625 484.055 94.0156C485.258 93.4531 486.594 93.1719 488.062 93.1719C489.234 93.1719 490.305 93.3438 491.273 93.6875C492.258 94.0312 493.102 94.5859 493.805 95.3516C494.523 96.1172 495.07 97.1328 495.445 98.3984C495.836 99.6484 496.031 101.195 496.031 103.039V119H488.086V103.016C488.086 102 487.945 101.227 487.664 100.695C487.383 100.148 486.977 99.7734 486.445 99.5703C485.914 99.3672 485.266 99.2656 484.5 99.2656C483.688 99.2656 483 99.4219 482.438 99.7344C481.875 100.047 481.422 100.484 481.078 101.047C480.75 101.594 480.508 102.242 480.352 102.992C480.211 103.742 480.141 104.562 480.141 105.453ZM516.352 93.6406H523.523V118.016C523.523 120.359 522.984 122.344 521.906 123.969C520.828 125.609 519.32 126.852 517.383 127.695C515.461 128.555 513.211 128.984 510.633 128.984C509.492 128.984 508.328 128.836 507.141 128.539C505.953 128.258 504.844 127.836 503.812 127.273C502.781 126.711 501.914 126.016 501.211 125.188L504.516 120.547C505.156 121.266 505.961 121.875 506.93 122.375C507.898 122.891 509.039 123.148 510.352 123.148C511.492 123.148 512.445 122.945 513.211 122.539C513.992 122.133 514.586 121.539 514.992 120.758C515.398 119.992 515.602 119.062 515.602 117.969V99.6406L516.352 93.6406ZM499.5 106.625V106.133C499.5 104.211 499.734 102.461 500.203 100.883C500.688 99.2891 501.375 97.9219 502.266 96.7812C503.172 95.625 504.266 94.7344 505.547 94.1094C506.828 93.4844 508.273 93.1719 509.883 93.1719C511.617 93.1719 513.039 93.5078 514.148 94.1797C515.273 94.8359 516.172 95.7578 516.844 96.9453C517.531 98.1328 518.062 99.5234 518.438 101.117C518.828 102.695 519.156 104.398 519.422 106.227V106.812C519.156 108.531 518.789 110.156 518.32 111.688C517.867 113.203 517.273 114.547 516.539 115.719C515.805 116.891 514.883 117.812 513.773 118.484C512.68 119.141 511.367 119.469 509.836 119.469C508.242 119.469 506.805 119.148 505.523 118.508C504.258 117.867 503.172 116.969 502.266 115.812C501.375 114.656 500.688 113.297 500.203 111.734C499.734 110.172 499.5 108.469 499.5 106.625ZM507.398 106.133V106.625C507.398 107.578 507.484 108.461 507.656 109.273C507.844 110.086 508.125 110.805 508.5 111.43C508.875 112.039 509.336 112.516 509.883 112.859C510.445 113.203 511.102 113.375 511.852 113.375C512.992 113.375 513.914 113.133 514.617 112.648C515.32 112.164 515.828 111.477 516.141 110.586C516.453 109.695 516.586 108.648 516.539 107.445V105.594C516.57 104.562 516.5 103.656 516.328 102.875C516.156 102.078 515.883 101.414 515.508 100.883C515.148 100.352 514.664 99.9531 514.055 99.6875C513.461 99.4062 512.742 99.2656 511.898 99.2656C511.164 99.2656 510.516 99.4375 509.953 99.7812C509.391 100.125 508.922 100.609 508.547 101.234C508.172 101.844 507.883 102.57 507.68 103.414C507.492 104.242 507.398 105.148 507.398 106.133Z" fill="black"/>
<path d="M1134 0H1348C1356.28 0 1363 6.71573 1363 15V148C1363 156.284 1356.28 163 1348 163H1134V0Z" fill="#4261D1"/>
<mask id="path-5-outside-1_3_82" maskUnits="userSpaceOnUse" x="1212.5" y="43.5" width="72" height="76" fill="black">
<rect fill="white" x="1212.5" y="43.5" width="72" height="76"/>
<path d="M1257.78 110.795L1258.17 117.033C1258.2 117.55 1257.82 118.005 1257.3 118.082C1255.41 118.359 1253.48 118.5 1251.56 118.5C1249.65 118.5 1247.72 118.359 1245.83 118.082C1245.3 118.005 1244.93 117.55 1244.96 117.033L1245.29 111.677C1241.26 110.891 1237.48 109.371 1234.05 107.148L1230.39 111.163C1230.04 111.55 1229.44 111.612 1229.01 111.305C1225.91 109.088 1223.19 106.436 1220.9 103.423C1220.59 103.006 1220.65 102.425 1221.05 102.081L1225.18 98.5235C1222.89 95.1861 1221.33 91.5191 1220.52 87.5987L1215.01 87.921C1214.48 87.9525 1214.01 87.5844 1213.93 87.0723C1213.64 85.2408 1213.5 83.3658 1213.5 81.4989C1213.5 79.6323 1213.64 77.7573 1213.93 75.9255C1214.01 75.4134 1214.48 75.037 1215.01 75.0768L1220.52 75.3991C1221.33 71.48 1222.89 67.8127 1225.18 64.4753L1221.05 60.9166C1220.65 60.5732 1220.59 59.9915 1220.9 59.5751C1223.18 56.565 1225.91 53.9132 1229.01 51.6928C1229.44 51.3858 1230.04 51.448 1230.39 51.8344L1234.05 55.8498C1237.51 53.619 1241.42 52.0541 1245.48 51.2839L1245.04 45.9743C1245 45.4495 1245.38 44.9818 1245.92 44.9043C1249.64 44.3652 1253.49 44.3652 1257.21 44.9043C1257.75 44.9818 1258.13 45.4496 1258.09 45.9743L1257.57 52.1893C1257.52 52.7401 1257.02 53.1503 1256.46 53.105C1255.89 53.0601 1255.47 52.5776 1255.52 52.0273L1255.96 46.7572C1253.05 46.4128 1250.08 46.4128 1247.17 46.7572L1247.61 52.0268C1247.66 52.546 1247.28 53.0109 1246.75 53.0949C1242.36 53.7915 1238.12 55.4843 1234.48 57.9899C1234.05 58.2849 1233.46 58.2181 1233.11 57.8373L1229.48 53.8537C1227.1 55.6511 1224.97 57.7247 1223.12 60.034L1227.22 63.565C1227.61 63.9035 1227.68 64.4749 1227.38 64.8912C1224.81 68.4236 1223.12 72.3693 1222.38 76.6188C1222.29 77.1218 1221.82 77.4795 1221.3 77.4485L1215.84 77.1288C1215.65 78.5723 1215.56 80.0384 1215.56 81.499C1215.56 82.9599 1215.65 84.4259 1215.84 85.8692L1221.3 85.5495C1221.82 85.5157 1222.29 85.8767 1222.38 86.3793C1223.12 90.6301 1224.81 94.5761 1227.38 98.1078C1227.68 98.5242 1227.61 99.0954 1227.22 99.434L1223.12 102.964C1224.97 105.276 1227.11 107.349 1229.48 109.144L1233.11 105.161C1233.46 104.779 1234.05 104.713 1234.48 105.008C1238.11 107.508 1242.17 109.143 1246.54 109.869C1247.06 109.955 1247.43 110.406 1247.4 110.915L1247.07 116.229C1250.04 116.589 1253.09 116.589 1256.06 116.229L1255.73 110.915C1255.7 110.363 1256.13 109.89 1256.7 109.857C1257.26 109.827 1257.75 110.244 1257.78 110.795ZM1279.87 67.5195C1281.52 67.5195 1282.86 68.8234 1282.86 70.4259C1282.86 72.0285 1281.52 73.3323 1279.87 73.3323C1279.49 73.3323 1279.13 73.2564 1278.8 73.131L1276 75.947C1275.8 76.142 1275.54 76.2524 1275.26 76.2524H1260.97C1260.4 76.2524 1259.94 75.8048 1259.94 75.2524C1259.94 74.7 1260.4 74.2524 1260.97 74.2524H1274.82L1277.25 71.8052C1277.02 71.3928 1276.88 70.9277 1276.88 70.4261C1276.88 68.8232 1278.22 67.5195 1279.87 67.5195ZM1278.93 70.4259C1278.93 70.9256 1279.35 71.3321 1279.87 71.3321C1280.38 71.3321 1280.8 70.9256 1280.8 70.4259C1280.8 69.9263 1280.38 69.5197 1279.87 69.5197C1279.35 69.5196 1278.93 69.9261 1278.93 70.4259ZM1268.7 64.8892L1272.51 59.5583C1272.12 59.0691 1271.89 58.4651 1271.89 57.8029C1271.89 56.2003 1273.23 54.8965 1274.87 54.8965C1276.52 54.8965 1277.86 56.2003 1277.86 57.8029C1277.86 59.4054 1276.52 60.7092 1274.87 60.7092C1274.66 60.7092 1274.45 60.6835 1274.24 60.6403L1270.08 66.4604C1269.89 66.729 1269.57 66.8895 1269.23 66.8895H1257.92C1257.35 66.8895 1256.89 66.4419 1256.89 65.8895C1256.89 65.3371 1257.35 64.8895 1257.92 64.8895H1268.7V64.8892ZM1273.94 57.8029C1273.94 58.3025 1274.36 58.7091 1274.87 58.7091C1275.39 58.7091 1275.81 58.3025 1275.81 57.8029C1275.81 57.3032 1275.39 56.8967 1274.87 56.8967C1274.36 56.8965 1273.94 57.3031 1273.94 57.8029ZM1277.62 105.196C1277.62 106.798 1276.28 108.102 1274.63 108.102C1272.98 108.102 1271.64 106.798 1271.64 105.196C1271.64 104.412 1271.96 103.703 1272.48 103.179L1268.69 97.8852H1257.92C1257.35 97.8852 1256.89 97.4376 1256.89 96.8852C1256.89 96.3328 1257.35 95.8852 1257.92 95.8852H1269.23C1269.57 95.8852 1269.89 96.0456 1270.08 96.3143L1274.37 102.315C1274.46 102.307 1274.54 102.289 1274.63 102.289C1276.28 102.289 1277.62 103.593 1277.62 105.196ZM1275.56 105.196C1275.56 104.696 1275.14 104.289 1274.63 104.289C1274.11 104.289 1273.69 104.696 1273.69 105.196C1273.69 105.695 1274.11 106.102 1274.63 106.102C1275.14 106.102 1275.56 105.695 1275.56 105.196ZM1282.61 92.8506C1282.61 94.4532 1281.27 95.757 1279.62 95.757C1277.97 95.757 1276.63 94.4532 1276.63 92.8506C1276.63 92.2267 1276.84 91.6518 1277.18 91.1777L1274.82 88.8004H1260.97C1260.4 88.8004 1259.94 88.3528 1259.94 87.8004C1259.94 87.248 1260.4 86.8004 1260.97 86.8004H1275.26C1275.54 86.8004 1275.8 86.9109 1276 87.1058L1278.91 90.0363C1279.14 89.9817 1279.37 89.9444 1279.62 89.9444C1281.27 89.9443 1282.61 91.2479 1282.61 92.8506ZM1280.55 92.8506C1280.55 92.351 1280.13 91.9444 1279.62 91.9444C1279.11 91.9444 1278.69 92.351 1278.69 92.8506C1278.69 93.3503 1279.11 93.7569 1279.62 93.7569C1280.13 93.7569 1280.55 93.3503 1280.55 92.8506ZM1283.5 81.5261C1283.5 83.1286 1282.16 84.4324 1280.51 84.4324C1279.22 84.4324 1278.14 83.6352 1277.71 82.5258H1255.16V100.204C1255.16 103.826 1252.13 106.773 1248.41 106.773C1245.68 106.773 1243.27 105.218 1242.21 102.835C1242.17 102.836 1242.13 102.837 1242.08 102.837C1238.36 102.837 1235.33 99.8896 1235.33 96.2674C1235.33 96.0939 1235.33 95.9203 1235.35 95.7475C1233.74 95.4353 1232.22 94.6326 1230.98 93.4249C1229.39 91.8756 1228.51 89.8161 1228.51 87.6253C1228.51 85.4345 1229.39 83.3749 1230.98 81.826C1231.1 81.7098 1231.23 81.6079 1231.36 81.4992C1231.23 81.3903 1231.1 81.2884 1230.98 81.1724C1229.39 79.6232 1228.51 77.5636 1228.51 75.3731C1228.51 73.1823 1229.39 71.1227 1230.98 69.5735C1232.22 68.3658 1233.74 67.563 1235.35 67.2509C1235.33 67.078 1235.33 66.9046 1235.33 66.731C1235.33 63.1085 1238.36 60.1615 1242.08 60.1615C1242.13 60.1615 1242.17 60.1618 1242.21 60.1628C1243.27 57.7799 1245.68 56.2252 1248.41 56.2252C1252.13 56.2252 1255.16 59.1721 1255.16 62.7944V80.5259H1277.71C1278.14 79.4168 1279.22 78.62 1280.51 78.62C1282.16 78.6198 1283.5 79.9235 1283.5 81.5261ZM1232.44 79.7581C1232.72 80.0356 1233.05 80.2792 1233.39 80.499H1253.11V62.7941C1253.11 60.2745 1251 58.225 1248.41 58.225C1246.68 58.225 1245.14 59.1203 1244.32 60.5297C1245.15 60.813 1245.92 61.2544 1246.59 61.8364C1246.6 61.8432 1246.6 61.8529 1246.61 61.8598C1246.99 61.6858 1247.42 61.5815 1247.87 61.5815C1249.51 61.5815 1250.86 62.8853 1250.86 64.4874C1250.86 66.09 1249.51 67.3938 1247.87 67.3938C1246.22 67.3938 1244.88 66.09 1244.88 64.4874C1244.88 64.0541 1244.98 63.6465 1245.16 63.2768C1244.3 62.5582 1243.22 62.1612 1242.08 62.1612C1239.49 62.1612 1237.38 64.2111 1237.38 66.7307C1237.38 66.8749 1237.4 67.0183 1237.41 67.1615C1238.63 67.284 1239.8 67.6579 1240.85 68.27C1241.31 67.9875 1241.85 67.8176 1242.43 67.8176C1244.08 67.8176 1245.42 69.1214 1245.42 70.7239C1245.42 72.3262 1244.08 73.6299 1242.43 73.6299C1240.78 73.6299 1239.44 72.3261 1239.44 70.7239C1239.44 70.43 1239.5 70.1516 1239.58 69.8839C1238.66 69.388 1237.63 69.1172 1236.55 69.1139C1235.06 69.1935 1233.6 69.857 1232.44 70.9873C1231.23 72.1588 1230.57 73.7162 1230.57 75.3728C1230.57 77.0293 1231.23 78.5866 1232.44 79.7581ZM1241.5 70.7241C1241.5 71.2237 1241.92 71.63 1242.43 71.63C1242.95 71.63 1243.36 71.2237 1243.36 70.7241C1243.36 70.2244 1242.95 69.8179 1242.43 69.8179C1241.92 69.8177 1241.5 70.2243 1241.5 70.7241ZM1247.87 65.3938C1248.38 65.3938 1248.8 64.9872 1248.8 64.4876C1248.8 63.9879 1248.38 63.5816 1247.87 63.5816C1247.35 63.5816 1246.93 63.9879 1246.93 64.4876C1246.93 64.9872 1247.35 65.3938 1247.87 65.3938ZM1253.11 100.204V82.499H1233.37C1233.03 82.7166 1232.72 82.9651 1232.44 83.2399C1231.23 84.4112 1230.57 85.9685 1230.57 87.6251C1230.57 89.2817 1231.23 90.8391 1232.44 92.0106C1233.6 93.1409 1235.06 93.8044 1236.55 93.884C1237.61 93.8807 1238.63 93.62 1239.54 93.1388C1239.48 92.9112 1239.44 92.6768 1239.44 92.4315C1239.44 90.8289 1240.78 89.5251 1242.43 89.5251C1244.08 89.5251 1245.42 90.8289 1245.42 92.4315C1245.42 94.0341 1244.08 95.3379 1242.43 95.3379C1241.79 95.3379 1241.2 95.1364 1240.71 94.8008C1239.7 95.3682 1238.58 95.7192 1237.41 95.8365C1237.4 95.9797 1237.38 96.1231 1237.38 96.2674C1237.38 98.787 1239.49 100.836 1242.08 100.836C1243.19 100.836 1244.26 100.455 1245.1 99.7652C1244.96 99.4261 1244.88 99.0564 1244.88 98.6677C1244.88 97.0652 1246.22 95.7614 1247.87 95.7614C1249.51 95.7614 1250.86 97.0652 1250.86 98.6677C1250.86 100.27 1249.51 101.574 1247.87 101.574C1247.37 101.574 1246.91 101.445 1246.5 101.236C1245.85 101.779 1245.11 102.198 1244.32 102.468C1245.14 103.878 1246.68 104.773 1248.41 104.773C1251 104.773 1253.11 102.724 1253.11 100.204ZM1247.87 99.5741C1248.38 99.5741 1248.8 99.1675 1248.8 98.6679C1248.8 98.1682 1248.38 97.7617 1247.87 97.7617C1247.35 97.7617 1246.93 98.1682 1246.93 98.6679C1246.93 99.1675 1247.35 99.5741 1247.87 99.5741ZM1242.43 93.3379C1242.95 93.3379 1243.36 92.9313 1243.36 92.4316C1243.36 91.932 1242.95 91.5254 1242.43 91.5254C1241.92 91.5254 1241.5 91.932 1241.5 92.4316C1241.5 92.5993 1241.55 92.7544 1241.63 92.8892C1241.65 92.9087 1241.67 92.9252 1241.68 92.9463C1241.7 92.9687 1241.71 92.9933 1241.73 93.0166C1241.9 93.2114 1242.15 93.3379 1242.43 93.3379ZM1281.44 81.5261C1281.44 81.0264 1281.02 80.6198 1280.51 80.6198C1280 80.6198 1279.58 81.0264 1279.58 81.5261C1279.58 82.0257 1280 82.4323 1280.51 82.4323C1281.02 82.4323 1281.44 82.0257 1281.44 81.5261Z"/>
</mask>
<path d="M1257.78 110.795L1258.17 117.033C1258.2 117.55 1257.82 118.005 1257.3 118.082C1255.41 118.359 1253.48 118.5 1251.56 118.5C1249.65 118.5 1247.72 118.359 1245.83 118.082C1245.3 118.005 1244.93 117.55 1244.96 117.033L1245.29 111.677C1241.26 110.891 1237.48 109.371 1234.05 107.148L1230.39 111.163C1230.04 111.55 1229.44 111.612 1229.01 111.305C1225.91 109.088 1223.19 106.436 1220.9 103.423C1220.59 103.006 1220.65 102.425 1221.05 102.081L1225.18 98.5235C1222.89 95.1861 1221.33 91.5191 1220.52 87.5987L1215.01 87.921C1214.48 87.9525 1214.01 87.5844 1213.93 87.0723C1213.64 85.2408 1213.5 83.3658 1213.5 81.4989C1213.5 79.6323 1213.64 77.7573 1213.93 75.9255C1214.01 75.4134 1214.48 75.037 1215.01 75.0768L1220.52 75.3991C1221.33 71.48 1222.89 67.8127 1225.18 64.4753L1221.05 60.9166C1220.65 60.5732 1220.59 59.9915 1220.9 59.5751C1223.18 56.565 1225.91 53.9132 1229.01 51.6928C1229.44 51.3858 1230.04 51.448 1230.39 51.8344L1234.05 55.8498C1237.51 53.619 1241.42 52.0541 1245.48 51.2839L1245.04 45.9743C1245 45.4495 1245.38 44.9818 1245.92 44.9043C1249.64 44.3652 1253.49 44.3652 1257.21 44.9043C1257.75 44.9818 1258.13 45.4496 1258.09 45.9743L1257.57 52.1893C1257.52 52.7401 1257.02 53.1503 1256.46 53.105C1255.89 53.0601 1255.47 52.5776 1255.52 52.0273L1255.96 46.7572C1253.05 46.4128 1250.08 46.4128 1247.17 46.7572L1247.61 52.0268C1247.66 52.546 1247.28 53.0109 1246.75 53.0949C1242.36 53.7915 1238.12 55.4843 1234.48 57.9899C1234.05 58.2849 1233.46 58.2181 1233.11 57.8373L1229.48 53.8537C1227.1 55.6511 1224.97 57.7247 1223.12 60.034L1227.22 63.565C1227.61 63.9035 1227.68 64.4749 1227.38 64.8912C1224.81 68.4236 1223.12 72.3693 1222.38 76.6188C1222.29 77.1218 1221.82 77.4795 1221.3 77.4485L1215.84 77.1288C1215.65 78.5723 1215.56 80.0384 1215.56 81.499C1215.56 82.9599 1215.65 84.4259 1215.84 85.8692L1221.3 85.5495C1221.82 85.5157 1222.29 85.8767 1222.38 86.3793C1223.12 90.6301 1224.81 94.5761 1227.38 98.1078C1227.68 98.5242 1227.61 99.0954 1227.22 99.434L1223.12 102.964C1224.97 105.276 1227.11 107.349 1229.48 109.144L1233.11 105.161C1233.46 104.779 1234.05 104.713 1234.48 105.008C1238.11 107.508 1242.17 109.143 1246.54 109.869C1247.06 109.955 1247.43 110.406 1247.4 110.915L1247.07 116.229C1250.04 116.589 1253.09 116.589 1256.06 116.229L1255.73 110.915C1255.7 110.363 1256.13 109.89 1256.7 109.857C1257.26 109.827 1257.75 110.244 1257.78 110.795ZM1279.87 67.5195C1281.52 67.5195 1282.86 68.8234 1282.86 70.4259C1282.86 72.0285 1281.52 73.3323 1279.87 73.3323C1279.49 73.3323 1279.13 73.2564 1278.8 73.131L1276 75.947C1275.8 76.142 1275.54 76.2524 1275.26 76.2524H1260.97C1260.4 76.2524 1259.94 75.8048 1259.94 75.2524C1259.94 74.7 1260.4 74.2524 1260.97 74.2524H1274.82L1277.25 71.8052C1277.02 71.3928 1276.88 70.9277 1276.88 70.4261C1276.88 68.8232 1278.22 67.5195 1279.87 67.5195ZM1278.93 70.4259C1278.93 70.9256 1279.35 71.3321 1279.87 71.3321C1280.38 71.3321 1280.8 70.9256 1280.8 70.4259C1280.8 69.9263 1280.38 69.5197 1279.87 69.5197C1279.35 69.5196 1278.93 69.9261 1278.93 70.4259ZM1268.7 64.8892L1272.51 59.5583C1272.12 59.0691 1271.89 58.4651 1271.89 57.8029C1271.89 56.2003 1273.23 54.8965 1274.87 54.8965C1276.52 54.8965 1277.86 56.2003 1277.86 57.8029C1277.86 59.4054 1276.52 60.7092 1274.87 60.7092C1274.66 60.7092 1274.45 60.6835 1274.24 60.6403L1270.08 66.4604C1269.89 66.729 1269.57 66.8895 1269.23 66.8895H1257.92C1257.35 66.8895 1256.89 66.4419 1256.89 65.8895C1256.89 65.3371 1257.35 64.8895 1257.92 64.8895H1268.7V64.8892ZM1273.94 57.8029C1273.94 58.3025 1274.36 58.7091 1274.87 58.7091C1275.39 58.7091 1275.81 58.3025 1275.81 57.8029C1275.81 57.3032 1275.39 56.8967 1274.87 56.8967C1274.36 56.8965 1273.94 57.3031 1273.94 57.8029ZM1277.62 105.196C1277.62 106.798 1276.28 108.102 1274.63 108.102C1272.98 108.102 1271.64 106.798 1271.64 105.196C1271.64 104.412 1271.96 103.703 1272.48 103.179L1268.69 97.8852H1257.92C1257.35 97.8852 1256.89 97.4376 1256.89 96.8852C1256.89 96.3328 1257.35 95.8852 1257.92 95.8852H1269.23C1269.57 95.8852 1269.89 96.0456 1270.08 96.3143L1274.37 102.315C1274.46 102.307 1274.54 102.289 1274.63 102.289C1276.28 102.289 1277.62 103.593 1277.62 105.196ZM1275.56 105.196C1275.56 104.696 1275.14 104.289 1274.63 104.289C1274.11 104.289 1273.69 104.696 1273.69 105.196C1273.69 105.695 1274.11 106.102 1274.63 106.102C1275.14 106.102 1275.56 105.695 1275.56 105.196ZM1282.61 92.8506C1282.61 94.4532 1281.27 95.757 1279.62 95.757C1277.97 95.757 1276.63 94.4532 1276.63 92.8506C1276.63 92.2267 1276.84 91.6518 1277.18 91.1777L1274.82 88.8004H1260.97C1260.4 88.8004 1259.94 88.3528 1259.94 87.8004C1259.94 87.248 1260.4 86.8004 1260.97 86.8004H1275.26C1275.54 86.8004 1275.8 86.9109 1276 87.1058L1278.91 90.0363C1279.14 89.9817 1279.37 89.9444 1279.62 89.9444C1281.27 89.9443 1282.61 91.2479 1282.61 92.8506ZM1280.55 92.8506C1280.55 92.351 1280.13 91.9444 1279.62 91.9444C1279.11 91.9444 1278.69 92.351 1278.69 92.8506C1278.69 93.3503 1279.11 93.7569 1279.62 93.7569C1280.13 93.7569 1280.55 93.3503 1280.55 92.8506ZM1283.5 81.5261C1283.5 83.1286 1282.16 84.4324 1280.51 84.4324C1279.22 84.4324 1278.14 83.6352 1277.71 82.5258H1255.16V100.204C1255.16 103.826 1252.13 106.773 1248.41 106.773C1245.68 106.773 1243.27 105.218 1242.21 102.835C1242.17 102.836 1242.13 102.837 1242.08 102.837C1238.36 102.837 1235.33 99.8896 1235.33 96.2674C1235.33 96.0939 1235.33 95.9203 1235.35 95.7475C1233.74 95.4353 1232.22 94.6326 1230.98 93.4249C1229.39 91.8756 1228.51 89.8161 1228.51 87.6253C1228.51 85.4345 1229.39 83.3749 1230.98 81.826C1231.1 81.7098 1231.23 81.6079 1231.36 81.4992C1231.23 81.3903 1231.1 81.2884 1230.98 81.1724C1229.39 79.6232 1228.51 77.5636 1228.51 75.3731C1228.51 73.1823 1229.39 71.1227 1230.98 69.5735C1232.22 68.3658 1233.74 67.563 1235.35 67.2509C1235.33 67.078 1235.33 66.9046 1235.33 66.731C1235.33 63.1085 1238.36 60.1615 1242.08 60.1615C1242.13 60.1615 1242.17 60.1618 1242.21 60.1628C1243.27 57.7799 1245.68 56.2252 1248.41 56.2252C1252.13 56.2252 1255.16 59.1721 1255.16 62.7944V80.5259H1277.71C1278.14 79.4168 1279.22 78.62 1280.51 78.62C1282.16 78.6198 1283.5 79.9235 1283.5 81.5261ZM1232.44 79.7581C1232.72 80.0356 1233.05 80.2792 1233.39 80.499H1253.11V62.7941C1253.11 60.2745 1251 58.225 1248.41 58.225C1246.68 58.225 1245.14 59.1203 1244.32 60.5297C1245.15 60.813 1245.92 61.2544 1246.59 61.8364C1246.6 61.8432 1246.6 61.8529 1246.61 61.8598C1246.99 61.6858 1247.42 61.5815 1247.87 61.5815C1249.51 61.5815 1250.86 62.8853 1250.86 64.4874C1250.86 66.09 1249.51 67.3938 1247.87 67.3938C1246.22 67.3938 1244.88 66.09 1244.88 64.4874C1244.88 64.0541 1244.98 63.6465 1245.16 63.2768C1244.3 62.5582 1243.22 62.1612 1242.08 62.1612C1239.49 62.1612 1237.38 64.2111 1237.38 66.7307C1237.38 66.8749 1237.4 67.0183 1237.41 67.1615C1238.63 67.284 1239.8 67.6579 1240.85 68.27C1241.31 67.9875 1241.85 67.8176 1242.43 67.8176C1244.08 67.8176 1245.42 69.1214 1245.42 70.7239C1245.42 72.3262 1244.08 73.6299 1242.43 73.6299C1240.78 73.6299 1239.44 72.3261 1239.44 70.7239C1239.44 70.43 1239.5 70.1516 1239.58 69.8839C1238.66 69.388 1237.63 69.1172 1236.55 69.1139C1235.06 69.1935 1233.6 69.857 1232.44 70.9873C1231.23 72.1588 1230.57 73.7162 1230.57 75.3728C1230.57 77.0293 1231.23 78.5866 1232.44 79.7581ZM1241.5 70.7241C1241.5 71.2237 1241.92 71.63 1242.43 71.63C1242.95 71.63 1243.36 71.2237 1243.36 70.7241C1243.36 70.2244 1242.95 69.8179 1242.43 69.8179C1241.92 69.8177 1241.5 70.2243 1241.5 70.7241ZM1247.87 65.3938C1248.38 65.3938 1248.8 64.9872 1248.8 64.4876C1248.8 63.9879 1248.38 63.5816 1247.87 63.5816C1247.35 63.5816 1246.93 63.9879 1246.93 64.4876C1246.93 64.9872 1247.35 65.3938 1247.87 65.3938ZM1253.11 100.204V82.499H1233.37C1233.03 82.7166 1232.72 82.9651 1232.44 83.2399C1231.23 84.4112 1230.57 85.9685 1230.57 87.6251C1230.57 89.2817 1231.23 90.8391 1232.44 92.0106C1233.6 93.1409 1235.06 93.8044 1236.55 93.884C1237.61 93.8807 1238.63 93.62 1239.54 93.1388C1239.48 92.9112 1239.44 92.6768 1239.44 92.4315C1239.44 90.8289 1240.78 89.5251 1242.43 89.5251C1244.08 89.5251 1245.42 90.8289 1245.42 92.4315C1245.42 94.0341 1244.08 95.3379 1242.43 95.3379C1241.79 95.3379 1241.2 95.1364 1240.71 94.8008C1239.7 95.3682 1238.58 95.7192 1237.41 95.8365C1237.4 95.9797 1237.38 96.1231 1237.38 96.2674C1237.38 98.787 1239.49 100.836 1242.08 100.836C1243.19 100.836 1244.26 100.455 1245.1 99.7652C1244.96 99.4261 1244.88 99.0564 1244.88 98.6677C1244.88 97.0652 1246.22 95.7614 1247.87 95.7614C1249.51 95.7614 1250.86 97.0652 1250.86 98.6677C1250.86 100.27 1249.51 101.574 1247.87 101.574C1247.37 101.574 1246.91 101.445 1246.5 101.236C1245.85 101.779 1245.11 102.198 1244.32 102.468C1245.14 103.878 1246.68 104.773 1248.41 104.773C1251 104.773 1253.11 102.724 1253.11 100.204ZM1247.87 99.5741C1248.38 99.5741 1248.8 99.1675 1248.8 98.6679C1248.8 98.1682 1248.38 97.7617 1247.87 97.7617C1247.35 97.7617 1246.93 98.1682 1246.93 98.6679C1246.93 99.1675 1247.35 99.5741 1247.87 99.5741ZM1242.43 93.3379C1242.95 93.3379 1243.36 92.9313 1243.36 92.4316C1243.36 91.932 1242.95 91.5254 1242.43 91.5254C1241.92 91.5254 1241.5 91.932 1241.5 92.4316C1241.5 92.5993 1241.55 92.7544 1241.63 92.8892C1241.65 92.9087 1241.67 92.9252 1241.68 92.9463C1241.7 92.9687 1241.71 92.9933 1241.73 93.0166C1241.9 93.2114 1242.15 93.3379 1242.43 93.3379ZM1281.44 81.5261C1281.44 81.0264 1281.02 80.6198 1280.51 80.6198C1280 80.6198 1279.58 81.0264 1279.58 81.5261C1279.58 82.0257 1280 82.4323 1280.51 82.4323C1281.02 82.4323 1281.44 82.0257 1281.44 81.5261Z" fill="white"/>
<path d="M1257.78 110.795L1258.17 117.033C1258.2 117.55 1257.82 118.005 1257.3 118.082C1255.41 118.359 1253.48 118.5 1251.56 118.5C1249.65 118.5 1247.72 118.359 1245.83 118.082C1245.3 118.005 1244.93 117.55 1244.96 117.033L1245.29 111.677C1241.26 110.891 1237.48 109.371 1234.05 107.148L1230.39 111.163C1230.04 111.55 1229.44 111.612 1229.01 111.305C1225.91 109.088 1223.19 106.436 1220.9 103.423C1220.59 103.006 1220.65 102.425 1221.05 102.081L1225.18 98.5235C1222.89 95.1861 1221.33 91.5191 1220.52 87.5987L1215.01 87.921C1214.48 87.9525 1214.01 87.5844 1213.93 87.0723C1213.64 85.2408 1213.5 83.3658 1213.5 81.4989C1213.5 79.6323 1213.64 77.7573 1213.93 75.9255C1214.01 75.4134 1214.48 75.037 1215.01 75.0768L1220.52 75.3991C1221.33 71.48 1222.89 67.8127 1225.18 64.4753L1221.05 60.9166C1220.65 60.5732 1220.59 59.9915 1220.9 59.5751C1223.18 56.565 1225.91 53.9132 1229.01 51.6928C1229.44 51.3858 1230.04 51.448 1230.39 51.8344L1234.05 55.8498C1237.51 53.619 1241.42 52.0541 1245.48 51.2839L1245.04 45.9743C1245 45.4495 1245.38 44.9818 1245.92 44.9043C1249.64 44.3652 1253.49 44.3652 1257.21 44.9043C1257.75 44.9818 1258.13 45.4496 1258.09 45.9743L1257.57 52.1893C1257.52 52.7401 1257.02 53.1503 1256.46 53.105C1255.89 53.0601 1255.47 52.5776 1255.52 52.0273L1255.96 46.7572C1253.05 46.4128 1250.08 46.4128 1247.17 46.7572L1247.61 52.0268C1247.66 52.546 1247.28 53.0109 1246.75 53.0949C1242.36 53.7915 1238.12 55.4843 1234.48 57.9899C1234.05 58.2849 1233.46 58.2181 1233.11 57.8373L1229.48 53.8537C1227.1 55.6511 1224.97 57.7247 1223.12 60.034L1227.22 63.565C1227.61 63.9035 1227.68 64.4749 1227.38 64.8912C1224.81 68.4236 1223.12 72.3693 1222.38 76.6188C1222.29 77.1218 1221.82 77.4795 1221.3 77.4485L1215.84 77.1288C1215.65 78.5723 1215.56 80.0384 1215.56 81.499C1215.56 82.9599 1215.65 84.4259 1215.84 85.8692L1221.3 85.5495C1221.82 85.5157 1222.29 85.8767 1222.38 86.3793C1223.12 90.6301 1224.81 94.5761 1227.38 98.1078C1227.68 98.5242 1227.61 99.0954 1227.22 99.434L1223.12 102.964C1224.97 105.276 1227.11 107.349 1229.48 109.144L1233.11 105.161C1233.46 104.779 1234.05 104.713 1234.48 105.008C1238.11 107.508 1242.17 109.143 1246.54 109.869C1247.06 109.955 1247.43 110.406 1247.4 110.915L1247.07 116.229C1250.04 116.589 1253.09 116.589 1256.06 116.229L1255.73 110.915C1255.7 110.363 1256.13 109.89 1256.7 109.857C1257.26 109.827 1257.75 110.244 1257.78 110.795ZM1279.87 67.5195C1281.52 67.5195 1282.86 68.8234 1282.86 70.4259C1282.86 72.0285 1281.52 73.3323 1279.87 73.3323C1279.49 73.3323 1279.13 73.2564 1278.8 73.131L1276 75.947C1275.8 76.142 1275.54 76.2524 1275.26 76.2524H1260.97C1260.4 76.2524 1259.94 75.8048 1259.94 75.2524C1259.94 74.7 1260.4 74.2524 1260.97 74.2524H1274.82L1277.25 71.8052C1277.02 71.3928 1276.88 70.9277 1276.88 70.4261C1276.88 68.8232 1278.22 67.5195 1279.87 67.5195ZM1278.93 70.4259C1278.93 70.9256 1279.35 71.3321 1279.87 71.3321C1280.38 71.3321 1280.8 70.9256 1280.8 70.4259C1280.8 69.9263 1280.38 69.5197 1279.87 69.5197C1279.35 69.5196 1278.93 69.9261 1278.93 70.4259ZM1268.7 64.8892L1272.51 59.5583C1272.12 59.0691 1271.89 58.4651 1271.89 57.8029C1271.89 56.2003 1273.23 54.8965 1274.87 54.8965C1276.52 54.8965 1277.86 56.2003 1277.86 57.8029C1277.86 59.4054 1276.52 60.7092 1274.87 60.7092C1274.66 60.7092 1274.45 60.6835 1274.24 60.6403L1270.08 66.4604C1269.89 66.729 1269.57 66.8895 1269.23 66.8895H1257.92C1257.35 66.8895 1256.89 66.4419 1256.89 65.8895C1256.89 65.3371 1257.35 64.8895 1257.92 64.8895H1268.7V64.8892ZM1273.94 57.8029C1273.94 58.3025 1274.36 58.7091 1274.87 58.7091C1275.39 58.7091 1275.81 58.3025 1275.81 57.8029C1275.81 57.3032 1275.39 56.8967 1274.87 56.8967C1274.36 56.8965 1273.94 57.3031 1273.94 57.8029ZM1277.62 105.196C1277.62 106.798 1276.28 108.102 1274.63 108.102C1272.98 108.102 1271.64 106.798 1271.64 105.196C1271.64 104.412 1271.96 103.703 1272.48 103.179L1268.69 97.8852H1257.92C1257.35 97.8852 1256.89 97.4376 1256.89 96.8852C1256.89 96.3328 1257.35 95.8852 1257.92 95.8852H1269.23C1269.57 95.8852 1269.89 96.0456 1270.08 96.3143L1274.37 102.315C1274.46 102.307 1274.54 102.289 1274.63 102.289C1276.28 102.289 1277.62 103.593 1277.62 105.196ZM1275.56 105.196C1275.56 104.696 1275.14 104.289 1274.63 104.289C1274.11 104.289 1273.69 104.696 1273.69 105.196C1273.69 105.695 1274.11 106.102 1274.63 106.102C1275.14 106.102 1275.56 105.695 1275.56 105.196ZM1282.61 92.8506C1282.61 94.4532 1281.27 95.757 1279.62 95.757C1277.97 95.757 1276.63 94.4532 1276.63 92.8506C1276.63 92.2267 1276.84 91.6518 1277.18 91.1777L1274.82 88.8004H1260.97C1260.4 88.8004 1259.94 88.3528 1259.94 87.8004C1259.94 87.248 1260.4 86.8004 1260.97 86.8004H1275.26C1275.54 86.8004 1275.8 86.9109 1276 87.1058L1278.91 90.0363C1279.14 89.9817 1279.37 89.9444 1279.62 89.9444C1281.27 89.9443 1282.61 91.2479 1282.61 92.8506ZM1280.55 92.8506C1280.55 92.351 1280.13 91.9444 1279.62 91.9444C1279.11 91.9444 1278.69 92.351 1278.69 92.8506C1278.69 93.3503 1279.11 93.7569 1279.62 93.7569C1280.13 93.7569 1280.55 93.3503 1280.55 92.8506ZM1283.5 81.5261C1283.5 83.1286 1282.16 84.4324 1280.51 84.4324C1279.22 84.4324 1278.14 83.6352 1277.71 82.5258H1255.16V100.204C1255.16 103.826 1252.13 106.773 1248.41 106.773C1245.68 106.773 1243.27 105.218 1242.21 102.835C1242.17 102.836 1242.13 102.837 1242.08 102.837C1238.36 102.837 1235.33 99.8896 1235.33 96.2674C1235.33 96.0939 1235.33 95.9203 1235.35 95.7475C1233.74 95.4353 1232.22 94.6326 1230.98 93.4249C1229.39 91.8756 1228.51 89.8161 1228.51 87.6253C1228.51 85.4345 1229.39 83.3749 1230.98 81.826C1231.1 81.7098 1231.23 81.6079 1231.36 81.4992C1231.23 81.3903 1231.1 81.2884 1230.98 81.1724C1229.39 79.6232 1228.51 77.5636 1228.51 75.3731C1228.51 73.1823 1229.39 71.1227 1230.98 69.5735C1232.22 68.3658 1233.74 67.563 1235.35 67.2509C1235.33 67.078 1235.33 66.9046 1235.33 66.731C1235.33 63.1085 1238.36 60.1615 1242.08 60.1615C1242.13 60.1615 1242.17 60.1618 1242.21 60.1628C1243.27 57.7799 1245.68 56.2252 1248.41 56.2252C1252.13 56.2252 1255.16 59.1721 1255.16 62.7944V80.5259H1277.71C1278.14 79.4168 1279.22 78.62 1280.51 78.62C1282.16 78.6198 1283.5 79.9235 1283.5 81.5261ZM1232.44 79.7581C1232.72 80.0356 1233.05 80.2792 1233.39 80.499H1253.11V62.7941C1253.11 60.2745 1251 58.225 1248.41 58.225C1246.68 58.225 1245.14 59.1203 1244.32 60.5297C1245.15 60.813 1245.92 61.2544 1246.59 61.8364C1246.6 61.8432 1246.6 61.8529 1246.61 61.8598C1246.99 61.6858 1247.42 61.5815 1247.87 61.5815C1249.51 61.5815 1250.86 62.8853 1250.86 64.4874C1250.86 66.09 1249.51 67.3938 1247.87 67.3938C1246.22 67.3938 1244.88 66.09 1244.88 64.4874C1244.88 64.0541 1244.98 63.6465 1245.16 63.2768C1244.3 62.5582 1243.22 62.1612 1242.08 62.1612C1239.49 62.1612 1237.38 64.2111 1237.38 66.7307C1237.38 66.8749 1237.4 67.0183 1237.41 67.1615C1238.63 67.284 1239.8 67.6579 1240.85 68.27C1241.31 67.9875 1241.85 67.8176 1242.43 67.8176C1244.08 67.8176 1245.42 69.1214 1245.42 70.7239C1245.42 72.3262 1244.08 73.6299 1242.43 73.6299C1240.78 73.6299 1239.44 72.3261 1239.44 70.7239C1239.44 70.43 1239.5 70.1516 1239.58 69.8839C1238.66 69.388 1237.63 69.1172 1236.55 69.1139C1235.06 69.1935 1233.6 69.857 1232.44 70.9873C1231.23 72.1588 1230.57 73.7162 1230.57 75.3728C1230.57 77.0293 1231.23 78.5866 1232.44 79.7581ZM1241.5 70.7241C1241.5 71.2237 1241.92 71.63 1242.43 71.63C1242.95 71.63 1243.36 71.2237 1243.36 70.7241C1243.36 70.2244 1242.95 69.8179 1242.43 69.8179C1241.92 69.8177 1241.5 70.2243 1241.5 70.7241ZM1247.87 65.3938C1248.38 65.3938 1248.8 64.9872 1248.8 64.4876C1248.8 63.9879 1248.38 63.5816 1247.87 63.5816C1247.35 63.5816 1246.93 63.9879 1246.93 64.4876C1246.93 64.9872 1247.35 65.3938 1247.87 65.3938ZM1253.11 100.204V82.499H1233.37C1233.03 82.7166 1232.72 82.9651 1232.44 83.2399C1231.23 84.4112 1230.57 85.9685 1230.57 87.6251C1230.57 89.2817 1231.23 90.8391 1232.44 92.0106C1233.6 93.1409 1235.06 93.8044 1236.55 93.884C1237.61 93.8807 1238.63 93.62 1239.54 93.1388C1239.48 92.9112 1239.44 92.6768 1239.44 92.4315C1239.44 90.8289 1240.78 89.5251 1242.43 89.5251C1244.08 89.5251 1245.42 90.8289 1245.42 92.4315C1245.42 94.0341 1244.08 95.3379 1242.43 95.3379C1241.79 95.3379 1241.2 95.1364 1240.71 94.8008C1239.7 95.3682 1238.58 95.7192 1237.41 95.8365C1237.4 95.9797 1237.38 96.1231 1237.38 96.2674C1237.38 98.787 1239.49 100.836 1242.08 100.836C1243.19 100.836 1244.26 100.455 1245.1 99.7652C1244.96 99.4261 1244.88 99.0564 1244.88 98.6677C1244.88 97.0652 1246.22 95.7614 1247.87 95.7614C1249.51 95.7614 1250.86 97.0652 1250.86 98.6677C1250.86 100.27 1249.51 101.574 1247.87 101.574C1247.37 101.574 1246.91 101.445 1246.5 101.236C1245.85 101.779 1245.11 102.198 1244.32 102.468C1245.14 103.878 1246.68 104.773 1248.41 104.773C1251 104.773 1253.11 102.724 1253.11 100.204ZM1247.87 99.5741C1248.38 99.5741 1248.8 99.1675 1248.8 98.6679C1248.8 98.1682 1248.38 97.7617 1247.87 97.7617C1247.35 97.7617 1246.93 98.1682 1246.93 98.6679C1246.93 99.1675 1247.35 99.5741 1247.87 99.5741ZM1242.43 93.3379C1242.95 93.3379 1243.36 92.9313 1243.36 92.4316C1243.36 91.932 1242.95 91.5254 1242.43 91.5254C1241.92 91.5254 1241.5 91.932 1241.5 92.4316C1241.5 92.5993 1241.55 92.7544 1241.63 92.8892C1241.65 92.9087 1241.67 92.9252 1241.68 92.9463C1241.7 92.9687 1241.71 92.9933 1241.73 93.0166C1241.9 93.2114 1242.15 93.3379 1242.43 93.3379ZM1281.44 81.5261C1281.44 81.0264 1281.02 80.6198 1280.51 80.6198C1280 80.6198 1279.58 81.0264 1279.58 81.5261C1279.58 82.0257 1280 82.4323 1280.51 82.4323C1281.02 82.4323 1281.44 82.0257 1281.44 81.5261Z" stroke="white" mask="url(#path-5-outside-1_3_82)"/>
</svg>
