<svg width="1363" height="163" viewBox="0 0 1363 163" fill="none" xmlns="http://www.w3.org/2000/svg">
<path d="M0 15C0 6.71573 6.71573 0 15 0H37V163H15C6.71573 163 0 156.284 0 148V15Z" fill="#424242"/>
<rect width="1097" height="163" transform="translate(37)" fill="#F0F0F0"/>
<path d="M105.492 58.2578V61H96.9023V58.2578H105.492ZM98.0391 43.9375V61H94.5234V43.9375H98.0391ZM110.859 48.3203V61H107.473V48.3203H110.859ZM107.262 45.0156C107.262 44.5234 107.434 44.1172 107.777 43.7969C108.121 43.4766 108.582 43.3164 109.16 43.3164C109.73 43.3164 110.188 43.4766 110.531 43.7969C110.883 44.1172 111.059 44.5234 111.059 45.0156C111.059 45.5078 110.883 45.9141 110.531 46.2344C110.188 46.5547 109.73 46.7148 109.16 46.7148C108.582 46.7148 108.121 46.5547 107.777 46.2344C107.434 45.9141 107.262 45.5078 107.262 45.0156ZM116.953 51.0273V61H113.578V48.3203H116.742L116.953 51.0273ZM116.461 54.2148H115.547C115.547 53.2773 115.668 52.4336 115.91 51.6836C116.152 50.9258 116.492 50.2812 116.93 49.75C117.367 49.2109 117.887 48.8008 118.488 48.5195C119.098 48.2305 119.777 48.0859 120.527 48.0859C121.121 48.0859 121.664 48.1719 122.156 48.3438C122.648 48.5156 123.07 48.7891 123.422 49.1641C123.781 49.5391 124.055 50.0352 124.242 50.6523C124.438 51.2695 124.535 52.0234 124.535 52.9141V61H121.137V52.9023C121.137 52.3398 121.059 51.9023 120.902 51.5898C120.746 51.2773 120.516 51.0586 120.211 50.9336C119.914 50.8008 119.547 50.7344 119.109 50.7344C118.656 50.7344 118.262 50.8242 117.926 51.0039C117.598 51.1836 117.324 51.4336 117.105 51.7539C116.895 52.0664 116.734 52.4336 116.625 52.8555C116.516 53.2773 116.461 53.7305 116.461 54.2148ZM135.129 48.3203H138.188V60.5781C138.188 61.7344 137.93 62.7148 137.414 63.5195C136.906 64.332 136.195 64.9453 135.281 65.3594C134.367 65.7812 133.305 65.9922 132.094 65.9922C131.562 65.9922 131 65.9219 130.406 65.7812C129.82 65.6406 129.258 65.4219 128.719 65.125C128.188 64.8281 127.742 64.4531 127.383 64L128.871 62.0078C129.262 62.4609 129.715 62.8125 130.23 63.0625C130.746 63.3203 131.316 63.4492 131.941 63.4492C132.551 63.4492 133.066 63.3359 133.488 63.1094C133.91 62.8906 134.234 62.5664 134.461 62.1367C134.688 61.7148 134.801 61.2031 134.801 60.6016V51.25L135.129 48.3203ZM126.598 54.8125V54.5664C126.598 53.5977 126.715 52.7188 126.949 51.9297C127.191 51.1328 127.531 50.4492 127.969 49.8789C128.414 49.3086 128.953 48.8672 129.586 48.5547C130.219 48.2422 130.934 48.0859 131.73 48.0859C132.574 48.0859 133.281 48.2422 133.852 48.5547C134.422 48.8672 134.891 49.3125 135.258 49.8906C135.625 50.4609 135.91 51.1367 136.113 51.918C136.324 52.6914 136.488 53.5391 136.605 54.4609V55C136.488 55.8828 136.312 56.7031 136.078 57.4609C135.844 58.2188 135.535 58.8828 135.152 59.4531C134.77 60.0156 134.293 60.4531 133.723 60.7656C133.16 61.0781 132.488 61.2344 131.707 61.2344C130.926 61.2344 130.219 61.0742 129.586 60.7539C128.961 60.4336 128.426 59.9844 127.98 59.4062C127.535 58.8281 127.191 58.1484 126.949 57.3672C126.715 56.5859 126.598 55.7344 126.598 54.8125ZM129.973 54.5664V54.8125C129.973 55.3359 130.023 55.8242 130.125 56.2773C130.227 56.7305 130.383 57.1328 130.594 57.4844C130.812 57.8281 131.082 58.0977 131.402 58.293C131.73 58.4805 132.117 58.5742 132.562 58.5742C133.18 58.5742 133.684 58.4453 134.074 58.1875C134.465 57.9219 134.758 57.5586 134.953 57.0977C135.148 56.6367 135.262 56.1055 135.293 55.5039V53.9688C135.277 53.4766 135.211 53.0352 135.094 52.6445C134.977 52.2461 134.812 51.9062 134.602 51.625C134.391 51.3438 134.117 51.125 133.781 50.9688C133.445 50.8125 133.047 50.7344 132.586 50.7344C132.141 50.7344 131.754 50.8359 131.426 51.0391C131.105 51.2344 130.836 51.5039 130.617 51.8477C130.406 52.1914 130.246 52.5977 130.137 53.0664C130.027 53.5273 129.973 54.0273 129.973 54.5664ZM140.273 54.7891V54.543C140.273 53.6133 140.406 52.7578 140.672 51.9766C140.938 51.1875 141.324 50.5039 141.832 49.9258C142.34 49.3477 142.965 48.8984 143.707 48.5781C144.449 48.25 145.301 48.0859 146.262 48.0859C147.223 48.0859 148.078 48.25 148.828 48.5781C149.578 48.8984 150.207 49.3477 150.715 49.9258C151.23 50.5039 151.621 51.1875 151.887 51.9766C152.152 52.7578 152.285 53.6133 152.285 54.543V54.7891C152.285 55.7109 152.152 56.5664 151.887 57.3555C151.621 58.1367 151.23 58.8203 150.715 59.4062C150.207 59.9844 149.582 60.4336 148.84 60.7539C148.098 61.0742 147.246 61.2344 146.285 61.2344C145.324 61.2344 144.469 61.0742 143.719 60.7539C142.977 60.4336 142.348 59.9844 141.832 59.4062C141.324 58.8203 140.938 58.1367 140.672 57.3555C140.406 56.5664 140.273 55.7109 140.273 54.7891ZM143.648 54.543V54.7891C143.648 55.3203 143.695 55.8164 143.789 56.2773C143.883 56.7383 144.031 57.1445 144.234 57.4961C144.445 57.8398 144.719 58.1094 145.055 58.3047C145.391 58.5 145.801 58.5977 146.285 58.5977C146.754 58.5977 147.156 58.5 147.492 58.3047C147.828 58.1094 148.098 57.8398 148.301 57.4961C148.504 57.1445 148.652 56.7383 148.746 56.2773C148.848 55.8164 148.898 55.3203 148.898 54.7891V54.543C148.898 54.0273 148.848 53.543 148.746 53.0898C148.652 52.6289 148.5 52.2227 148.289 51.8711C148.086 51.5117 147.816 51.2305 147.48 51.0273C147.145 50.8242 146.738 50.7227 146.262 50.7227C145.785 50.7227 145.379 50.8242 145.043 51.0273C144.715 51.2305 144.445 51.5117 144.234 51.8711C144.031 52.2227 143.883 52.6289 143.789 53.0898C143.695 53.543 143.648 54.0273 143.648 54.543ZM169.816 58.4688L174.434 62.125L172.219 64.0469L167.672 60.3906L169.816 58.4688ZM174.551 52.0703V52.8789C174.551 54.1758 174.375 55.3398 174.023 56.3711C173.68 57.4023 173.184 58.2812 172.535 59.0078C171.887 59.7266 171.121 60.2773 170.238 60.6602C169.355 61.043 168.375 61.2344 167.297 61.2344C166.227 61.2344 165.246 61.043 164.355 60.6602C163.465 60.2773 162.695 59.7266 162.047 59.0078C161.398 58.2812 160.895 57.4023 160.535 56.3711C160.184 55.3398 160.008 54.1758 160.008 52.8789V52.0703C160.008 50.7656 160.184 49.6016 160.535 48.5781C160.895 47.5469 161.395 46.668 162.035 45.9414C162.676 45.2148 163.441 44.6602 164.332 44.2773C165.223 43.8945 166.203 43.7031 167.273 43.7031C168.352 43.7031 169.332 43.8945 170.215 44.2773C171.105 44.6602 171.875 45.2148 172.523 45.9414C173.172 46.668 173.672 47.5469 174.023 48.5781C174.375 49.6016 174.551 50.7656 174.551 52.0703ZM171 52.8789V52.0469C171 51.1406 170.914 50.3438 170.742 49.6562C170.578 48.9688 170.336 48.3906 170.016 47.9219C169.703 47.4531 169.316 47.1016 168.855 46.8672C168.395 46.625 167.867 46.5039 167.273 46.5039C166.68 46.5039 166.152 46.625 165.691 46.8672C165.23 47.1016 164.844 47.4531 164.531 47.9219C164.219 48.3906 163.98 48.9688 163.816 49.6562C163.652 50.3438 163.57 51.1406 163.57 52.0469V52.8789C163.57 53.7773 163.652 54.5742 163.816 55.2695C163.98 55.957 164.219 56.5391 164.531 57.0156C164.852 57.4844 165.242 57.8398 165.703 58.082C166.172 58.3242 166.703 58.4453 167.297 58.4453C167.891 58.4453 168.414 58.3242 168.867 58.082C169.328 57.8398 169.715 57.4844 170.027 57.0156C170.348 56.5391 170.59 55.957 170.754 55.2695C170.918 54.5742 171 53.7773 171 52.8789ZM184.383 57.9648V48.3203H187.758V61H184.582L184.383 57.9648ZM184.758 55.3633L185.754 55.3398C185.754 56.1836 185.656 56.9688 185.461 57.6953C185.266 58.4141 184.973 59.0391 184.582 59.5703C184.191 60.0938 183.699 60.5039 183.105 60.8008C182.512 61.0898 181.812 61.2344 181.008 61.2344C180.391 61.2344 179.82 61.1484 179.297 60.9766C178.781 60.7969 178.336 60.5195 177.961 60.1445C177.594 59.7617 177.305 59.2734 177.094 58.6797C176.891 58.0781 176.789 57.3555 176.789 56.5117V48.3203H180.164V56.5352C180.164 56.9102 180.207 57.2266 180.293 57.4844C180.387 57.7422 180.516 57.9531 180.68 58.1172C180.844 58.2812 181.035 58.3984 181.254 58.4688C181.48 58.5391 181.73 58.5742 182.004 58.5742C182.699 58.5742 183.246 58.4336 183.645 58.1523C184.051 57.8711 184.336 57.4883 184.5 57.0039C184.672 56.5117 184.758 55.9648 184.758 55.3633ZM196.172 61.2344C195.188 61.2344 194.305 61.0781 193.523 60.7656C192.742 60.4453 192.078 60.0039 191.531 59.4414C190.992 58.8789 190.578 58.2266 190.289 57.4844C190 56.7344 189.855 55.9375 189.855 55.0938V54.625C189.855 53.6641 189.992 52.7852 190.266 51.9883C190.539 51.1914 190.93 50.5 191.438 49.9141C191.953 49.3281 192.578 48.8789 193.312 48.5664C194.047 48.2461 194.875 48.0859 195.797 48.0859C196.695 48.0859 197.492 48.2344 198.188 48.5312C198.883 48.8281 199.465 49.25 199.934 49.7969C200.41 50.3438 200.77 51 201.012 51.7656C201.254 52.5234 201.375 53.3672 201.375 54.2969V55.7031H191.297V53.4531H198.059V53.1953C198.059 52.7266 197.973 52.3086 197.801 51.9414C197.637 51.5664 197.387 51.2695 197.051 51.0508C196.715 50.832 196.285 50.7227 195.762 50.7227C195.316 50.7227 194.934 50.8203 194.613 51.0156C194.293 51.2109 194.031 51.4844 193.828 51.8359C193.633 52.1875 193.484 52.6016 193.383 53.0781C193.289 53.5469 193.242 54.0625 193.242 54.625V55.0938C193.242 55.6016 193.312 56.0703 193.453 56.5C193.602 56.9297 193.809 57.3008 194.074 57.6133C194.348 57.9258 194.676 58.168 195.059 58.3398C195.449 58.5117 195.891 58.5977 196.383 58.5977C196.992 58.5977 197.559 58.4805 198.082 58.2461C198.613 58.0039 199.07 57.6406 199.453 57.1562L201.094 58.9375C200.828 59.3203 200.465 59.6875 200.004 60.0391C199.551 60.3906 199.004 60.6797 198.363 60.9062C197.723 61.125 196.992 61.2344 196.172 61.2344ZM210.152 57.4961C210.152 57.2539 210.082 57.0352 209.941 56.8398C209.801 56.6445 209.539 56.4648 209.156 56.3008C208.781 56.1289 208.238 55.9727 207.527 55.832C206.887 55.6914 206.289 55.5156 205.734 55.3047C205.188 55.0859 204.711 54.8242 204.305 54.5195C203.906 54.2148 203.594 53.8555 203.367 53.4414C203.141 53.0195 203.027 52.5391 203.027 52C203.027 51.4688 203.141 50.9688 203.367 50.5C203.602 50.0312 203.934 49.6172 204.363 49.2578C204.801 48.8906 205.332 48.6055 205.957 48.4023C206.59 48.1914 207.301 48.0859 208.09 48.0859C209.191 48.0859 210.137 48.2617 210.926 48.6133C211.723 48.9648 212.332 49.4492 212.754 50.0664C213.184 50.6758 213.398 51.3711 213.398 52.1523H210.023C210.023 51.8242 209.953 51.5312 209.812 51.2734C209.68 51.0078 209.469 50.8008 209.18 50.6523C208.898 50.4961 208.531 50.418 208.078 50.418C207.703 50.418 207.379 50.4844 207.105 50.6172C206.832 50.7422 206.621 50.9141 206.473 51.1328C206.332 51.3438 206.262 51.5781 206.262 51.8359C206.262 52.0312 206.301 52.207 206.379 52.3633C206.465 52.5117 206.602 52.6484 206.789 52.7734C206.977 52.8984 207.219 53.0156 207.516 53.125C207.82 53.2266 208.195 53.3203 208.641 53.4062C209.555 53.5938 210.371 53.8398 211.09 54.1445C211.809 54.4414 212.379 54.8477 212.801 55.3633C213.223 55.8711 213.434 56.5391 213.434 57.3672C213.434 57.9297 213.309 58.4453 213.059 58.9141C212.809 59.3828 212.449 59.793 211.98 60.1445C211.512 60.4883 210.949 60.7578 210.293 60.9531C209.645 61.1406 208.914 61.2344 208.102 61.2344C206.922 61.2344 205.922 61.0234 205.102 60.6016C204.289 60.1797 203.672 59.6445 203.25 58.9961C202.836 58.3398 202.629 57.668 202.629 56.9805H205.828C205.844 57.4414 205.961 57.8125 206.18 58.0938C206.406 58.375 206.691 58.5781 207.035 58.7031C207.387 58.8281 207.766 58.8906 208.172 58.8906C208.609 58.8906 208.973 58.832 209.262 58.7148C209.551 58.5898 209.77 58.4258 209.918 58.2227C210.074 58.0117 210.152 57.7695 210.152 57.4961ZM221.836 48.3203V50.7109H214.453V48.3203H221.836ZM216.281 45.1914H219.656V57.1797C219.656 57.5469 219.703 57.8281 219.797 58.0234C219.898 58.2188 220.047 58.3555 220.242 58.4336C220.438 58.5039 220.684 58.5391 220.98 58.5391C221.191 58.5391 221.379 58.5312 221.543 58.5156C221.715 58.4922 221.859 58.4688 221.977 58.4453L221.988 60.9297C221.699 61.0234 221.387 61.0977 221.051 61.1523C220.715 61.207 220.344 61.2344 219.938 61.2344C219.195 61.2344 218.547 61.1133 217.992 60.8711C217.445 60.6211 217.023 60.2227 216.727 59.6758C216.43 59.1289 216.281 58.4102 216.281 57.5195V45.1914Z" fill="#888888"/>
<path d="M104.344 84.875V119H96.1406V84.875H104.344ZM117.727 99.0078V119H109.828V93.6406H117.234L117.727 99.0078ZM116.766 105.453L114.961 105.5C114.961 103.719 115.172 102.078 115.594 100.578C116.016 99.0781 116.641 97.7734 117.469 96.6641C118.297 95.5547 119.312 94.6953 120.516 94.0859C121.734 93.4766 123.141 93.1719 124.734 93.1719C125.844 93.1719 126.852 93.3438 127.758 93.6875C128.664 94.0156 129.445 94.5391 130.102 95.2578C130.758 95.9609 131.258 96.8828 131.602 98.0234C131.961 99.1484 132.141 100.5 132.141 102.078V119H124.242V103.086C124.242 102.008 124.117 101.195 123.867 100.648C123.633 100.102 123.289 99.7344 122.836 99.5469C122.383 99.3594 121.828 99.2656 121.172 99.2656C120.484 99.2656 119.867 99.4219 119.32 99.7344C118.773 100.047 118.305 100.484 117.914 101.047C117.539 101.594 117.25 102.242 117.047 102.992C116.859 103.742 116.766 104.562 116.766 105.453ZM131.25 105.453L129.047 105.5C129.047 103.719 129.242 102.078 129.633 100.578C130.039 99.0781 130.641 97.7734 131.438 96.6641C132.25 95.5547 133.258 94.6953 134.461 94.0859C135.664 93.4766 137.062 93.1719 138.656 93.1719C139.812 93.1719 140.875 93.3438 141.844 93.6875C142.812 94.0312 143.648 94.5859 144.352 95.3516C145.055 96.1172 145.602 97.1328 145.992 98.3984C146.383 99.6484 146.578 101.195 146.578 103.039V119H138.656V103.039C138.656 101.992 138.531 101.203 138.281 100.672C138.047 100.125 137.703 99.7578 137.25 99.5703C136.797 99.3672 136.258 99.2656 135.633 99.2656C134.883 99.2656 134.234 99.4219 133.688 99.7344C133.141 100.047 132.68 100.484 132.305 101.047C131.945 101.594 131.68 102.242 131.508 102.992C131.336 103.742 131.25 104.562 131.25 105.453ZM159.07 98.5156V128.75H151.172V93.6406H158.531L159.07 98.5156ZM174.633 106.016V106.508C174.633 108.352 174.422 110.062 174 111.641C173.578 113.219 172.953 114.594 172.125 115.766C171.297 116.938 170.266 117.852 169.031 118.508C167.812 119.148 166.398 119.469 164.789 119.469C163.273 119.469 161.969 119.133 160.875 118.461C159.781 117.789 158.867 116.859 158.133 115.672C157.398 114.484 156.805 113.125 156.352 111.594C155.898 110.062 155.539 108.445 155.273 106.742V106.109C155.539 104.281 155.898 102.586 156.352 101.023C156.805 99.4453 157.398 98.0703 158.133 96.8984C158.867 95.7266 159.773 94.8125 160.852 94.1562C161.945 93.5 163.25 93.1719 164.766 93.1719C166.375 93.1719 167.789 93.4766 169.008 94.0859C170.242 94.6953 171.273 95.5703 172.102 96.7109C172.945 97.8359 173.578 99.1875 174 100.766C174.422 102.344 174.633 104.094 174.633 106.016ZM166.734 106.508V106.016C166.734 105.031 166.664 104.133 166.523 103.32C166.383 102.492 166.156 101.773 165.844 101.164C165.547 100.555 165.148 100.086 164.648 99.7578C164.148 99.4297 163.531 99.2656 162.797 99.2656C161.953 99.2656 161.242 99.3984 160.664 99.6641C160.102 99.9141 159.648 100.305 159.305 100.836C158.977 101.352 158.742 102 158.602 102.781C158.477 103.547 158.422 104.445 158.438 105.477V107.398C158.406 108.586 158.523 109.633 158.789 110.539C159.055 111.43 159.516 112.125 160.172 112.625C160.828 113.125 161.719 113.375 162.844 113.375C163.594 113.375 164.219 113.203 164.719 112.859C165.219 112.5 165.617 112.008 165.914 111.383C166.211 110.742 166.422 110.008 166.547 109.18C166.672 108.352 166.734 107.461 166.734 106.508ZM186.492 83V119H178.57V83H186.492ZM203.648 119.469C201.586 119.469 199.742 119.148 198.117 118.508C196.492 117.852 195.117 116.953 193.992 115.812C192.883 114.672 192.031 113.359 191.438 111.875C190.859 110.391 190.57 108.82 190.57 107.164V106.273C190.57 104.414 190.828 102.695 191.344 101.117C191.859 99.5234 192.625 98.1328 193.641 96.9453C194.656 95.7578 195.93 94.8359 197.461 94.1797C198.992 93.5078 200.773 93.1719 202.805 93.1719C204.602 93.1719 206.211 93.4609 207.633 94.0391C209.055 94.6172 210.258 95.4453 211.242 96.5234C212.242 97.6016 213 98.9062 213.516 100.438C214.047 101.969 214.312 103.688 214.312 105.594V108.805H193.594V103.859H206.602V103.25C206.617 102.406 206.469 101.688 206.156 101.094C205.859 100.5 205.422 100.047 204.844 99.7344C204.266 99.4219 203.562 99.2656 202.734 99.2656C201.875 99.2656 201.164 99.4531 200.602 99.8281C200.055 100.203 199.625 100.719 199.312 101.375C199.016 102.016 198.805 102.758 198.68 103.602C198.555 104.445 198.492 105.336 198.492 106.273V107.164C198.492 108.102 198.617 108.953 198.867 109.719C199.133 110.484 199.508 111.141 199.992 111.688C200.492 112.219 201.086 112.633 201.773 112.93C202.477 113.227 203.273 113.375 204.164 113.375C205.242 113.375 206.305 113.172 207.352 112.766C208.398 112.359 209.297 111.688 210.047 110.75L213.633 115.016C213.117 115.75 212.383 116.461 211.43 117.148C210.492 117.836 209.367 118.398 208.055 118.836C206.742 119.258 205.273 119.469 203.648 119.469ZM225.492 99.0078V119H217.594V93.6406H225L225.492 99.0078ZM224.531 105.453L222.727 105.5C222.727 103.719 222.938 102.078 223.359 100.578C223.781 99.0781 224.406 97.7734 225.234 96.6641C226.062 95.5547 227.078 94.6953 228.281 94.0859C229.5 93.4766 230.906 93.1719 232.5 93.1719C233.609 93.1719 234.617 93.3438 235.523 93.6875C236.43 94.0156 237.211 94.5391 237.867 95.2578C238.523 95.9609 239.023 96.8828 239.367 98.0234C239.727 99.1484 239.906 100.5 239.906 102.078V119H232.008V103.086C232.008 102.008 231.883 101.195 231.633 100.648C231.398 100.102 231.055 99.7344 230.602 99.5469C230.148 99.3594 229.594 99.2656 228.938 99.2656C228.25 99.2656 227.633 99.4219 227.086 99.7344C226.539 100.047 226.07 100.484 225.68 101.047C225.305 101.594 225.016 102.242 224.812 102.992C224.625 103.742 224.531 104.562 224.531 105.453ZM239.016 105.453L236.812 105.5C236.812 103.719 237.008 102.078 237.398 100.578C237.805 99.0781 238.406 97.7734 239.203 96.6641C240.016 95.5547 241.023 94.6953 242.227 94.0859C243.43 93.4766 244.828 93.1719 246.422 93.1719C247.578 93.1719 248.641 93.3438 249.609 93.6875C250.578 94.0312 251.414 94.5859 252.117 95.3516C252.82 96.1172 253.367 97.1328 253.758 98.3984C254.148 99.6484 254.344 101.195 254.344 103.039V119H246.422V103.039C246.422 101.992 246.297 101.203 246.047 100.672C245.812 100.125 245.469 99.7578 245.016 99.5703C244.562 99.3672 244.023 99.2656 243.398 99.2656C242.648 99.2656 242 99.4219 241.453 99.7344C240.906 100.047 240.445 100.484 240.07 101.047C239.711 101.594 239.445 102.242 239.273 102.992C239.102 103.742 239.016 104.562 239.016 105.453ZM271.148 119.469C269.086 119.469 267.242 119.148 265.617 118.508C263.992 117.852 262.617 116.953 261.492 115.812C260.383 114.672 259.531 113.359 258.938 111.875C258.359 110.391 258.07 108.82 258.07 107.164V106.273C258.07 104.414 258.328 102.695 258.844 101.117C259.359 99.5234 260.125 98.1328 261.141 96.9453C262.156 95.7578 263.43 94.8359 264.961 94.1797C266.492 93.5078 268.273 93.1719 270.305 93.1719C272.102 93.1719 273.711 93.4609 275.133 94.0391C276.555 94.6172 277.758 95.4453 278.742 96.5234C279.742 97.6016 280.5 98.9062 281.016 100.438C281.547 101.969 281.812 103.688 281.812 105.594V108.805H261.094V103.859H274.102V103.25C274.117 102.406 273.969 101.688 273.656 101.094C273.359 100.5 272.922 100.047 272.344 99.7344C271.766 99.4219 271.062 99.2656 270.234 99.2656C269.375 99.2656 268.664 99.4531 268.102 99.8281C267.555 100.203 267.125 100.719 266.812 101.375C266.516 102.016 266.305 102.758 266.18 103.602C266.055 104.445 265.992 105.336 265.992 106.273V107.164C265.992 108.102 266.117 108.953 266.367 109.719C266.633 110.484 267.008 111.141 267.492 111.688C267.992 112.219 268.586 112.633 269.273 112.93C269.977 113.227 270.773 113.375 271.664 113.375C272.742 113.375 273.805 113.172 274.852 112.766C275.898 112.359 276.797 111.688 277.547 110.75L281.133 115.016C280.617 115.75 279.883 116.461 278.93 117.148C277.992 117.836 276.867 118.398 275.555 118.836C274.242 119.258 272.773 119.469 271.148 119.469ZM292.781 99.0547V119H284.883V93.6406H292.289L292.781 99.0547ZM291.844 105.453L289.992 105.5C289.992 103.562 290.227 101.836 290.695 100.32C291.164 98.7891 291.828 97.4922 292.688 96.4297C293.547 95.3672 294.57 94.5625 295.758 94.0156C296.961 93.4531 298.297 93.1719 299.766 93.1719C300.938 93.1719 302.008 93.3438 302.977 93.6875C303.961 94.0312 304.805 94.5859 305.508 95.3516C306.227 96.1172 306.773 97.1328 307.148 98.3984C307.539 99.6484 307.734 101.195 307.734 103.039V119H299.789V103.016C299.789 102 299.648 101.227 299.367 100.695C299.086 100.148 298.68 99.7734 298.148 99.5703C297.617 99.3672 296.969 99.2656 296.203 99.2656C295.391 99.2656 294.703 99.4219 294.141 99.7344C293.578 100.047 293.125 100.484 292.781 101.047C292.453 101.594 292.211 102.242 292.055 102.992C291.914 103.742 291.844 104.562 291.844 105.453ZM325.477 93.6406V99.125H310.195V93.6406H325.477ZM313.406 87.3359H321.305V110.727C321.305 111.398 321.383 111.922 321.539 112.297C321.695 112.656 321.961 112.914 322.336 113.07C322.727 113.211 323.242 113.281 323.883 113.281C324.336 113.281 324.711 113.273 325.008 113.258C325.305 113.227 325.586 113.188 325.852 113.141V118.789C325.18 119.008 324.477 119.172 323.742 119.281C323.008 119.406 322.227 119.469 321.398 119.469C319.711 119.469 318.266 119.203 317.062 118.672C315.875 118.141 314.969 117.305 314.344 116.164C313.719 115.023 313.406 113.539 313.406 111.711V87.3359ZM341.789 112.625V102.172C341.789 101.453 341.688 100.836 341.484 100.32C341.281 99.8047 340.961 99.4062 340.523 99.125C340.086 98.8281 339.5 98.6797 338.766 98.6797C338.172 98.6797 337.664 98.7812 337.242 98.9844C336.82 99.1875 336.5 99.4922 336.281 99.8984C336.062 100.305 335.953 100.82 335.953 101.445H328.055C328.055 100.273 328.312 99.1875 328.828 98.1875C329.359 97.1719 330.109 96.2891 331.078 95.5391C332.062 94.7891 333.234 94.2109 334.594 93.8047C335.969 93.3828 337.5 93.1719 339.188 93.1719C341.203 93.1719 343 93.5078 344.578 94.1797C346.172 94.8516 347.43 95.8594 348.352 97.2031C349.273 98.5312 349.734 100.203 349.734 102.219V112.602C349.734 114.258 349.828 115.516 350.016 116.375C350.203 117.219 350.469 117.961 350.812 118.602V119H342.891C342.516 118.219 342.234 117.266 342.047 116.141C341.875 115 341.789 113.828 341.789 112.625ZM342.75 103.508L342.797 107.727H339.305C338.57 107.727 337.945 107.828 337.43 108.031C336.93 108.234 336.523 108.516 336.211 108.875C335.914 109.219 335.695 109.609 335.555 110.047C335.43 110.484 335.367 110.945 335.367 111.43C335.367 111.898 335.477 112.32 335.695 112.695C335.93 113.055 336.242 113.336 336.633 113.539C337.023 113.742 337.461 113.844 337.945 113.844C338.82 113.844 339.562 113.68 340.172 113.352C340.797 113.008 341.273 112.594 341.602 112.109C341.93 111.625 342.094 111.172 342.094 110.75L343.828 113.984C343.516 114.609 343.156 115.242 342.75 115.883C342.359 116.523 341.867 117.117 341.273 117.664C340.695 118.195 339.984 118.633 339.141 118.977C338.297 119.305 337.273 119.469 336.07 119.469C334.508 119.469 333.07 119.148 331.758 118.508C330.461 117.867 329.422 116.977 328.641 115.836C327.859 114.68 327.469 113.352 327.469 111.852C327.469 110.539 327.703 109.367 328.172 108.336C328.656 107.305 329.383 106.43 330.352 105.711C331.32 104.992 332.555 104.445 334.055 104.07C335.555 103.695 337.32 103.508 339.352 103.508H342.75ZM367.477 93.6406V99.125H352.195V93.6406H367.477ZM355.406 87.3359H363.305V110.727C363.305 111.398 363.383 111.922 363.539 112.297C363.695 112.656 363.961 112.914 364.336 113.07C364.727 113.211 365.242 113.281 365.883 113.281C366.336 113.281 366.711 113.273 367.008 113.258C367.305 113.227 367.586 113.188 367.852 113.141V118.789C367.18 119.008 366.477 119.172 365.742 119.281C365.008 119.406 364.227 119.469 363.398 119.469C361.711 119.469 360.266 119.203 359.062 118.672C357.875 118.141 356.969 117.305 356.344 116.164C355.719 115.023 355.406 113.539 355.406 111.711V87.3359ZM378.961 93.6406V119H371.039V93.6406H378.961ZM370.57 87.1016C370.57 85.9766 370.977 85.0547 371.789 84.3359C372.602 83.6172 373.656 83.2578 374.953 83.2578C376.25 83.2578 377.305 83.6172 378.117 84.3359C378.93 85.0547 379.336 85.9766 379.336 87.1016C379.336 88.2266 378.93 89.1484 378.117 89.8672C377.305 90.5859 376.25 90.9453 374.953 90.9453C373.656 90.9453 372.602 90.5859 371.789 89.8672C370.977 89.1484 370.57 88.2266 370.57 87.1016ZM382.852 106.578V106.086C382.852 104.227 383.117 102.516 383.648 100.953C384.18 99.375 384.961 98.0078 385.992 96.8516C387.023 95.6953 388.297 94.7969 389.812 94.1562C391.328 93.5 393.078 93.1719 395.062 93.1719C397.062 93.1719 398.82 93.5 400.336 94.1562C401.867 94.7969 403.148 95.6953 404.18 96.8516C405.211 98.0078 405.992 99.375 406.523 100.953C407.055 102.516 407.32 104.227 407.32 106.086V106.578C407.32 108.422 407.055 110.133 406.523 111.711C405.992 113.273 405.211 114.641 404.18 115.812C403.148 116.969 401.875 117.867 400.359 118.508C398.844 119.148 397.094 119.469 395.109 119.469C393.125 119.469 391.367 119.148 389.836 118.508C388.305 117.867 387.023 116.969 385.992 115.812C384.961 114.641 384.18 113.273 383.648 111.711C383.117 110.133 382.852 108.422 382.852 106.578ZM390.75 106.086V106.578C390.75 107.531 390.82 108.422 390.961 109.25C391.102 110.078 391.336 110.805 391.664 111.43C391.992 112.039 392.438 112.516 393 112.859C393.562 113.203 394.266 113.375 395.109 113.375C395.938 113.375 396.625 113.203 397.172 112.859C397.734 112.516 398.18 112.039 398.508 111.43C398.836 110.805 399.07 110.078 399.211 109.25C399.352 108.422 399.422 107.531 399.422 106.578V106.086C399.422 105.164 399.352 104.297 399.211 103.484C399.07 102.656 398.836 101.93 398.508 101.305C398.18 100.664 397.734 100.164 397.172 99.8047C396.609 99.4453 395.906 99.2656 395.062 99.2656C394.234 99.2656 393.539 99.4453 392.977 99.8047C392.43 100.164 391.992 100.664 391.664 101.305C391.336 101.93 391.102 102.656 390.961 103.484C390.82 104.297 390.75 105.164 390.75 106.086ZM418.594 99.0547V119H410.695V93.6406H418.102L418.594 99.0547ZM417.656 105.453L415.805 105.5C415.805 103.562 416.039 101.836 416.508 100.32C416.977 98.7891 417.641 97.4922 418.5 96.4297C419.359 95.3672 420.383 94.5625 421.57 94.0156C422.773 93.4531 424.109 93.1719 425.578 93.1719C426.75 93.1719 427.82 93.3438 428.789 93.6875C429.773 94.0312 430.617 94.5859 431.32 95.3516C432.039 96.1172 432.586 97.1328 432.961 98.3984C433.352 99.6484 433.547 101.195 433.547 103.039V119H425.602V103.016C425.602 102 425.461 101.227 425.18 100.695C424.898 100.148 424.492 99.7734 423.961 99.5703C423.43 99.3672 422.781 99.2656 422.016 99.2656C421.203 99.2656 420.516 99.4219 419.953 99.7344C419.391 100.047 418.938 100.484 418.594 101.047C418.266 101.594 418.023 102.242 417.867 102.992C417.727 103.742 417.656 104.562 417.656 105.453Z" fill="black"/>
<path d="M1134 0H1348C1356.28 0 1363 6.71573 1363 15V148C1363 156.284 1356.28 163 1348 163H1134V0Z" fill="#4261D1"/>
<path d="M1280.07 47.5H1216.93L1214.5 49.9286V113.071L1216.93 115.5H1280.07L1282.5 113.071V49.9286L1280.07 47.5ZM1277.64 110.643H1233.93V100.929H1245.1C1246.56 103.843 1249.96 105.786 1253.36 105.786C1258.7 105.786 1263.07 101.414 1263.07 96.0714C1263.07 90.7286 1258.7 86.3571 1253.36 86.3571C1248.01 86.3571 1243.64 90.7286 1243.64 96.0714H1229.07V110.643H1219.36V52.3571H1229.07V63.5286C1226.16 64.9857 1224.21 68.3857 1224.21 71.7857C1224.21 77.1286 1228.59 81.5 1233.93 81.5C1239.27 81.5 1243.64 77.1286 1243.64 71.7857H1253.36C1253.36 77.1286 1257.73 81.5 1263.07 81.5C1268.41 81.5 1272.79 77.1286 1272.79 71.7857C1272.79 66.4429 1268.41 62.0714 1263.07 62.0714C1259.67 62.0714 1256.27 64.0143 1254.81 66.9286H1242.19C1240.73 64.0143 1237.33 62.0714 1233.93 62.0714V52.3571H1277.64V110.643ZM1248.5 96.0714C1248.5 93.1571 1250.44 91.2143 1253.36 91.2143C1256.27 91.2143 1258.21 93.1571 1258.21 96.0714C1258.21 98.9857 1256.27 100.929 1253.36 100.929C1250.44 100.929 1248.5 98.9857 1248.5 96.0714ZM1233.93 66.9286C1236.84 66.9286 1238.79 68.8714 1238.79 71.7857C1238.79 74.7 1236.84 76.6429 1233.93 76.6429C1231.01 76.6429 1229.07 74.7 1229.07 71.7857C1229.07 68.8714 1231.01 66.9286 1233.93 66.9286ZM1263.07 66.9286C1265.99 66.9286 1267.93 68.8714 1267.93 71.7857C1267.93 74.7 1265.99 76.6429 1263.07 76.6429C1260.16 76.6429 1258.21 74.7 1258.21 71.7857C1258.21 68.8714 1260.16 66.9286 1263.07 66.9286Z" fill="white"/>
</svg>
