<svg width="1363" height="163" viewBox="0 0 1363 163" fill="none" xmlns="http://www.w3.org/2000/svg">
<path d="M0 15C0 6.71573 6.71573 0 15 0H37V163H15C6.71573 163 0 156.284 0 148V15Z" fill="#424242"/>
<rect width="1097" height="163" transform="translate(37)" fill="#F0F0F0"/>
<path d="M105.492 58.2578V61H96.9023V58.2578H105.492ZM98.0391 43.9375V61H94.5234V43.9375H98.0391ZM110.859 48.3203V61H107.473V48.3203H110.859ZM107.262 45.0156C107.262 44.5234 107.434 44.1172 107.777 43.7969C108.121 43.4766 108.582 43.3164 109.16 43.3164C109.73 43.3164 110.188 43.4766 110.531 43.7969C110.883 44.1172 111.059 44.5234 111.059 45.0156C111.059 45.5078 110.883 45.9141 110.531 46.2344C110.188 46.5547 109.73 46.7148 109.16 46.7148C108.582 46.7148 108.121 46.5547 107.777 46.2344C107.434 45.9141 107.262 45.5078 107.262 45.0156ZM116.953 51.0273V61H113.578V48.3203H116.742L116.953 51.0273ZM116.461 54.2148H115.547C115.547 53.2773 115.668 52.4336 115.91 51.6836C116.152 50.9258 116.492 50.2812 116.93 49.75C117.367 49.2109 117.887 48.8008 118.488 48.5195C119.098 48.2305 119.777 48.0859 120.527 48.0859C121.121 48.0859 121.664 48.1719 122.156 48.3438C122.648 48.5156 123.07 48.7891 123.422 49.1641C123.781 49.5391 124.055 50.0352 124.242 50.6523C124.438 51.2695 124.535 52.0234 124.535 52.9141V61H121.137V52.9023C121.137 52.3398 121.059 51.9023 120.902 51.5898C120.746 51.2773 120.516 51.0586 120.211 50.9336C119.914 50.8008 119.547 50.7344 119.109 50.7344C118.656 50.7344 118.262 50.8242 117.926 51.0039C117.598 51.1836 117.324 51.4336 117.105 51.7539C116.895 52.0664 116.734 52.4336 116.625 52.8555C116.516 53.2773 116.461 53.7305 116.461 54.2148ZM135.129 48.3203H138.188V60.5781C138.188 61.7344 137.93 62.7148 137.414 63.5195C136.906 64.332 136.195 64.9453 135.281 65.3594C134.367 65.7812 133.305 65.9922 132.094 65.9922C131.562 65.9922 131 65.9219 130.406 65.7812C129.82 65.6406 129.258 65.4219 128.719 65.125C128.188 64.8281 127.742 64.4531 127.383 64L128.871 62.0078C129.262 62.4609 129.715 62.8125 130.23 63.0625C130.746 63.3203 131.316 63.4492 131.941 63.4492C132.551 63.4492 133.066 63.3359 133.488 63.1094C133.91 62.8906 134.234 62.5664 134.461 62.1367C134.688 61.7148 134.801 61.2031 134.801 60.6016V51.25L135.129 48.3203ZM126.598 54.8125V54.5664C126.598 53.5977 126.715 52.7188 126.949 51.9297C127.191 51.1328 127.531 50.4492 127.969 49.8789C128.414 49.3086 128.953 48.8672 129.586 48.5547C130.219 48.2422 130.934 48.0859 131.73 48.0859C132.574 48.0859 133.281 48.2422 133.852 48.5547C134.422 48.8672 134.891 49.3125 135.258 49.8906C135.625 50.4609 135.91 51.1367 136.113 51.918C136.324 52.6914 136.488 53.5391 136.605 54.4609V55C136.488 55.8828 136.312 56.7031 136.078 57.4609C135.844 58.2188 135.535 58.8828 135.152 59.4531C134.77 60.0156 134.293 60.4531 133.723 60.7656C133.16 61.0781 132.488 61.2344 131.707 61.2344C130.926 61.2344 130.219 61.0742 129.586 60.7539C128.961 60.4336 128.426 59.9844 127.98 59.4062C127.535 58.8281 127.191 58.1484 126.949 57.3672C126.715 56.5859 126.598 55.7344 126.598 54.8125ZM129.973 54.5664V54.8125C129.973 55.3359 130.023 55.8242 130.125 56.2773C130.227 56.7305 130.383 57.1328 130.594 57.4844C130.812 57.8281 131.082 58.0977 131.402 58.293C131.73 58.4805 132.117 58.5742 132.562 58.5742C133.18 58.5742 133.684 58.4453 134.074 58.1875C134.465 57.9219 134.758 57.5586 134.953 57.0977C135.148 56.6367 135.262 56.1055 135.293 55.5039V53.9688C135.277 53.4766 135.211 53.0352 135.094 52.6445C134.977 52.2461 134.812 51.9062 134.602 51.625C134.391 51.3438 134.117 51.125 133.781 50.9688C133.445 50.8125 133.047 50.7344 132.586 50.7344C132.141 50.7344 131.754 50.8359 131.426 51.0391C131.105 51.2344 130.836 51.5039 130.617 51.8477C130.406 52.1914 130.246 52.5977 130.137 53.0664C130.027 53.5273 129.973 54.0273 129.973 54.5664ZM140.273 54.7891V54.543C140.273 53.6133 140.406 52.7578 140.672 51.9766C140.938 51.1875 141.324 50.5039 141.832 49.9258C142.34 49.3477 142.965 48.8984 143.707 48.5781C144.449 48.25 145.301 48.0859 146.262 48.0859C147.223 48.0859 148.078 48.25 148.828 48.5781C149.578 48.8984 150.207 49.3477 150.715 49.9258C151.23 50.5039 151.621 51.1875 151.887 51.9766C152.152 52.7578 152.285 53.6133 152.285 54.543V54.7891C152.285 55.7109 152.152 56.5664 151.887 57.3555C151.621 58.1367 151.23 58.8203 150.715 59.4062C150.207 59.9844 149.582 60.4336 148.84 60.7539C148.098 61.0742 147.246 61.2344 146.285 61.2344C145.324 61.2344 144.469 61.0742 143.719 60.7539C142.977 60.4336 142.348 59.9844 141.832 59.4062C141.324 58.8203 140.938 58.1367 140.672 57.3555C140.406 56.5664 140.273 55.7109 140.273 54.7891ZM143.648 54.543V54.7891C143.648 55.3203 143.695 55.8164 143.789 56.2773C143.883 56.7383 144.031 57.1445 144.234 57.4961C144.445 57.8398 144.719 58.1094 145.055 58.3047C145.391 58.5 145.801 58.5977 146.285 58.5977C146.754 58.5977 147.156 58.5 147.492 58.3047C147.828 58.1094 148.098 57.8398 148.301 57.4961C148.504 57.1445 148.652 56.7383 148.746 56.2773C148.848 55.8164 148.898 55.3203 148.898 54.7891V54.543C148.898 54.0273 148.848 53.543 148.746 53.0898C148.652 52.6289 148.5 52.2227 148.289 51.8711C148.086 51.5117 147.816 51.2305 147.48 51.0273C147.145 50.8242 146.738 50.7227 146.262 50.7227C145.785 50.7227 145.379 50.8242 145.043 51.0273C144.715 51.2305 144.445 51.5117 144.234 51.8711C144.031 52.2227 143.883 52.6289 143.789 53.0898C143.695 53.543 143.648 54.0273 143.648 54.543ZM169.816 58.4688L174.434 62.125L172.219 64.0469L167.672 60.3906L169.816 58.4688ZM174.551 52.0703V52.8789C174.551 54.1758 174.375 55.3398 174.023 56.3711C173.68 57.4023 173.184 58.2812 172.535 59.0078C171.887 59.7266 171.121 60.2773 170.238 60.6602C169.355 61.043 168.375 61.2344 167.297 61.2344C166.227 61.2344 165.246 61.043 164.355 60.6602C163.465 60.2773 162.695 59.7266 162.047 59.0078C161.398 58.2812 160.895 57.4023 160.535 56.3711C160.184 55.3398 160.008 54.1758 160.008 52.8789V52.0703C160.008 50.7656 160.184 49.6016 160.535 48.5781C160.895 47.5469 161.395 46.668 162.035 45.9414C162.676 45.2148 163.441 44.6602 164.332 44.2773C165.223 43.8945 166.203 43.7031 167.273 43.7031C168.352 43.7031 169.332 43.8945 170.215 44.2773C171.105 44.6602 171.875 45.2148 172.523 45.9414C173.172 46.668 173.672 47.5469 174.023 48.5781C174.375 49.6016 174.551 50.7656 174.551 52.0703ZM171 52.8789V52.0469C171 51.1406 170.914 50.3438 170.742 49.6562C170.578 48.9688 170.336 48.3906 170.016 47.9219C169.703 47.4531 169.316 47.1016 168.855 46.8672C168.395 46.625 167.867 46.5039 167.273 46.5039C166.68 46.5039 166.152 46.625 165.691 46.8672C165.23 47.1016 164.844 47.4531 164.531 47.9219C164.219 48.3906 163.98 48.9688 163.816 49.6562C163.652 50.3438 163.57 51.1406 163.57 52.0469V52.8789C163.57 53.7773 163.652 54.5742 163.816 55.2695C163.98 55.957 164.219 56.5391 164.531 57.0156C164.852 57.4844 165.242 57.8398 165.703 58.082C166.172 58.3242 166.703 58.4453 167.297 58.4453C167.891 58.4453 168.414 58.3242 168.867 58.082C169.328 57.8398 169.715 57.4844 170.027 57.0156C170.348 56.5391 170.59 55.957 170.754 55.2695C170.918 54.5742 171 53.7773 171 52.8789ZM184.383 57.9648V48.3203H187.758V61H184.582L184.383 57.9648ZM184.758 55.3633L185.754 55.3398C185.754 56.1836 185.656 56.9688 185.461 57.6953C185.266 58.4141 184.973 59.0391 184.582 59.5703C184.191 60.0938 183.699 60.5039 183.105 60.8008C182.512 61.0898 181.812 61.2344 181.008 61.2344C180.391 61.2344 179.82 61.1484 179.297 60.9766C178.781 60.7969 178.336 60.5195 177.961 60.1445C177.594 59.7617 177.305 59.2734 177.094 58.6797C176.891 58.0781 176.789 57.3555 176.789 56.5117V48.3203H180.164V56.5352C180.164 56.9102 180.207 57.2266 180.293 57.4844C180.387 57.7422 180.516 57.9531 180.68 58.1172C180.844 58.2812 181.035 58.3984 181.254 58.4688C181.48 58.5391 181.73 58.5742 182.004 58.5742C182.699 58.5742 183.246 58.4336 183.645 58.1523C184.051 57.8711 184.336 57.4883 184.5 57.0039C184.672 56.5117 184.758 55.9648 184.758 55.3633ZM196.172 61.2344C195.188 61.2344 194.305 61.0781 193.523 60.7656C192.742 60.4453 192.078 60.0039 191.531 59.4414C190.992 58.8789 190.578 58.2266 190.289 57.4844C190 56.7344 189.855 55.9375 189.855 55.0938V54.625C189.855 53.6641 189.992 52.7852 190.266 51.9883C190.539 51.1914 190.93 50.5 191.438 49.9141C191.953 49.3281 192.578 48.8789 193.312 48.5664C194.047 48.2461 194.875 48.0859 195.797 48.0859C196.695 48.0859 197.492 48.2344 198.188 48.5312C198.883 48.8281 199.465 49.25 199.934 49.7969C200.41 50.3438 200.77 51 201.012 51.7656C201.254 52.5234 201.375 53.3672 201.375 54.2969V55.7031H191.297V53.4531H198.059V53.1953C198.059 52.7266 197.973 52.3086 197.801 51.9414C197.637 51.5664 197.387 51.2695 197.051 51.0508C196.715 50.832 196.285 50.7227 195.762 50.7227C195.316 50.7227 194.934 50.8203 194.613 51.0156C194.293 51.2109 194.031 51.4844 193.828 51.8359C193.633 52.1875 193.484 52.6016 193.383 53.0781C193.289 53.5469 193.242 54.0625 193.242 54.625V55.0938C193.242 55.6016 193.312 56.0703 193.453 56.5C193.602 56.9297 193.809 57.3008 194.074 57.6133C194.348 57.9258 194.676 58.168 195.059 58.3398C195.449 58.5117 195.891 58.5977 196.383 58.5977C196.992 58.5977 197.559 58.4805 198.082 58.2461C198.613 58.0039 199.07 57.6406 199.453 57.1562L201.094 58.9375C200.828 59.3203 200.465 59.6875 200.004 60.0391C199.551 60.3906 199.004 60.6797 198.363 60.9062C197.723 61.125 196.992 61.2344 196.172 61.2344ZM210.152 57.4961C210.152 57.2539 210.082 57.0352 209.941 56.8398C209.801 56.6445 209.539 56.4648 209.156 56.3008C208.781 56.1289 208.238 55.9727 207.527 55.832C206.887 55.6914 206.289 55.5156 205.734 55.3047C205.188 55.0859 204.711 54.8242 204.305 54.5195C203.906 54.2148 203.594 53.8555 203.367 53.4414C203.141 53.0195 203.027 52.5391 203.027 52C203.027 51.4688 203.141 50.9688 203.367 50.5C203.602 50.0312 203.934 49.6172 204.363 49.2578C204.801 48.8906 205.332 48.6055 205.957 48.4023C206.59 48.1914 207.301 48.0859 208.09 48.0859C209.191 48.0859 210.137 48.2617 210.926 48.6133C211.723 48.9648 212.332 49.4492 212.754 50.0664C213.184 50.6758 213.398 51.3711 213.398 52.1523H210.023C210.023 51.8242 209.953 51.5312 209.812 51.2734C209.68 51.0078 209.469 50.8008 209.18 50.6523C208.898 50.4961 208.531 50.418 208.078 50.418C207.703 50.418 207.379 50.4844 207.105 50.6172C206.832 50.7422 206.621 50.9141 206.473 51.1328C206.332 51.3438 206.262 51.5781 206.262 51.8359C206.262 52.0312 206.301 52.207 206.379 52.3633C206.465 52.5117 206.602 52.6484 206.789 52.7734C206.977 52.8984 207.219 53.0156 207.516 53.125C207.82 53.2266 208.195 53.3203 208.641 53.4062C209.555 53.5938 210.371 53.8398 211.09 54.1445C211.809 54.4414 212.379 54.8477 212.801 55.3633C213.223 55.8711 213.434 56.5391 213.434 57.3672C213.434 57.9297 213.309 58.4453 213.059 58.9141C212.809 59.3828 212.449 59.793 211.98 60.1445C211.512 60.4883 210.949 60.7578 210.293 60.9531C209.645 61.1406 208.914 61.2344 208.102 61.2344C206.922 61.2344 205.922 61.0234 205.102 60.6016C204.289 60.1797 203.672 59.6445 203.25 58.9961C202.836 58.3398 202.629 57.668 202.629 56.9805H205.828C205.844 57.4414 205.961 57.8125 206.18 58.0938C206.406 58.375 206.691 58.5781 207.035 58.7031C207.387 58.8281 207.766 58.8906 208.172 58.8906C208.609 58.8906 208.973 58.832 209.262 58.7148C209.551 58.5898 209.77 58.4258 209.918 58.2227C210.074 58.0117 210.152 57.7695 210.152 57.4961ZM221.836 48.3203V50.7109H214.453V48.3203H221.836ZM216.281 45.1914H219.656V57.1797C219.656 57.5469 219.703 57.8281 219.797 58.0234C219.898 58.2188 220.047 58.3555 220.242 58.4336C220.438 58.5039 220.684 58.5391 220.98 58.5391C221.191 58.5391 221.379 58.5312 221.543 58.5156C221.715 58.4922 221.859 58.4688 221.977 58.4453L221.988 60.9297C221.699 61.0234 221.387 61.0977 221.051 61.1523C220.715 61.207 220.344 61.2344 219.938 61.2344C219.195 61.2344 218.547 61.1133 217.992 60.8711C217.445 60.6211 217.023 60.2227 216.727 59.6758C216.43 59.1289 216.281 58.4102 216.281 57.5195V45.1914Z" fill="#888888"/>
<path d="M114.117 84.875H122.344V107.164C122.344 109.82 121.789 112.07 120.68 113.914C119.57 115.742 118.016 117.125 116.016 118.062C114.016 119 111.664 119.469 108.961 119.469C106.289 119.469 103.938 119 101.906 118.062C99.8906 117.125 98.3125 115.742 97.1719 113.914C96.0469 112.07 95.4844 109.82 95.4844 107.164V84.875H103.734V107.164C103.734 108.57 103.938 109.719 104.344 110.609C104.75 111.484 105.344 112.125 106.125 112.531C106.906 112.938 107.852 113.141 108.961 113.141C110.086 113.141 111.031 112.938 111.797 112.531C112.562 112.125 113.141 111.484 113.531 110.609C113.922 109.719 114.117 108.57 114.117 107.164V84.875ZM136.266 84.875V119H128.062V84.875H136.266ZM172.523 84.875H180.75V107.164C180.75 109.82 180.195 112.07 179.086 113.914C177.977 115.742 176.422 117.125 174.422 118.062C172.422 119 170.07 119.469 167.367 119.469C164.695 119.469 162.344 119 160.312 118.062C158.297 117.125 156.719 115.742 155.578 113.914C154.453 112.07 153.891 109.82 153.891 107.164V84.875H162.141V107.164C162.141 108.57 162.344 109.719 162.75 110.609C163.156 111.484 163.75 112.125 164.531 112.531C165.312 112.938 166.258 113.141 167.367 113.141C168.492 113.141 169.438 112.938 170.203 112.531C170.969 112.125 171.547 111.484 171.938 110.609C172.328 109.719 172.523 108.57 172.523 107.164V84.875ZM193.078 84.875L198.656 96.2188L204.234 84.875H213.609L204.094 101.797L213.867 119H204.398L198.656 107.445L192.914 119H183.422L193.219 101.797L183.68 84.875H193.078Z" fill="black"/>
<path d="M1134 0H1348C1356.28 0 1363 6.71573 1363 15V148C1363 156.284 1356.28 163 1348 163H1134V0Z" fill="#4261D1"/>
<path d="M1248.5 111.917C1244.51 111.917 1240.55 111.13 1236.86 109.601C1233.17 108.073 1229.82 105.832 1226.99 103.008C1221.29 97.3036 1218.08 89.567 1218.08 81.5C1218.08 73.433 1221.29 65.6964 1226.99 59.9922C1232.7 54.2879 1240.43 51.0833 1248.5 51.0833C1265.23 51.0833 1278.92 63.25 1278.92 78.4583C1278.92 83.2985 1276.99 87.9405 1273.57 91.363C1270.15 94.7856 1265.51 96.7083 1260.67 96.7083H1255.19C1254.28 96.7083 1253.67 97.3167 1253.67 98.2292C1253.67 98.5333 1253.97 98.8375 1253.97 99.1417C1255.19 100.662 1255.8 102.487 1255.8 104.312C1256.1 108.571 1252.76 111.917 1248.5 111.917ZM1248.5 57.1667C1242.05 57.1667 1235.86 59.7303 1231.29 64.2937C1226.73 68.8571 1224.17 75.0464 1224.17 81.5C1224.17 87.9536 1226.73 94.1429 1231.29 98.7063C1235.86 103.27 1242.05 105.833 1248.5 105.833C1249.41 105.833 1250.02 105.225 1250.02 104.312C1250.02 103.704 1249.72 103.4 1249.72 103.096C1248.5 101.575 1247.89 100.054 1247.89 98.2292C1247.89 93.9708 1251.24 90.625 1255.5 90.625H1260.67C1263.89 90.625 1266.99 89.3432 1269.27 87.0615C1271.55 84.7798 1272.83 81.6851 1272.83 78.4583C1272.83 66.5958 1261.88 57.1667 1248.5 57.1667ZM1231.77 75.4167C1234.2 75.4167 1236.33 77.5458 1236.33 79.9792C1236.33 82.4125 1234.2 84.5417 1231.77 84.5417C1229.34 84.5417 1227.21 82.4125 1227.21 79.9792C1227.21 77.5458 1229.34 75.4167 1231.77 75.4167ZM1240.9 63.25C1243.33 63.25 1245.46 65.3792 1245.46 67.8125C1245.46 70.2458 1243.33 72.375 1240.9 72.375C1238.46 72.375 1236.33 70.2458 1236.33 67.8125C1236.33 65.3792 1238.46 63.25 1240.9 63.25ZM1256.1 63.25C1258.54 63.25 1260.67 65.3792 1260.67 67.8125C1260.67 70.2458 1258.54 72.375 1256.1 72.375C1253.67 72.375 1251.54 70.2458 1251.54 67.8125C1251.54 65.3792 1253.67 63.25 1256.1 63.25ZM1265.23 75.4167C1267.66 75.4167 1269.79 77.5458 1269.79 79.9792C1269.79 82.4125 1267.66 84.5417 1265.23 84.5417C1262.8 84.5417 1260.67 82.4125 1260.67 79.9792C1260.67 77.5458 1262.8 75.4167 1265.23 75.4167Z" fill="white"/>
</svg>
