<svg width="1363" height="163" viewBox="0 0 1363 163" fill="none" xmlns="http://www.w3.org/2000/svg">
<path d="M0 15C0 6.71573 6.71573 0 15 0H37V163H15C6.71573 163 0 156.284 0 148V15Z" fill="#424242"/>
<rect width="1097" height="163" transform="translate(37)" fill="#F0F0F0"/>
<path d="M105.492 58.2578V61H96.9023V58.2578H105.492ZM98.0391 43.9375V61H94.5234V43.9375H98.0391ZM110.859 48.3203V61H107.473V48.3203H110.859ZM107.262 45.0156C107.262 44.5234 107.434 44.1172 107.777 43.7969C108.121 43.4766 108.582 43.3164 109.16 43.3164C109.73 43.3164 110.188 43.4766 110.531 43.7969C110.883 44.1172 111.059 44.5234 111.059 45.0156C111.059 45.5078 110.883 45.9141 110.531 46.2344C110.188 46.5547 109.73 46.7148 109.16 46.7148C108.582 46.7148 108.121 46.5547 107.777 46.2344C107.434 45.9141 107.262 45.5078 107.262 45.0156ZM116.953 51.0273V61H113.578V48.3203H116.742L116.953 51.0273ZM116.461 54.2148H115.547C115.547 53.2773 115.668 52.4336 115.91 51.6836C116.152 50.9258 116.492 50.2812 116.93 49.75C117.367 49.2109 117.887 48.8008 118.488 48.5195C119.098 48.2305 119.777 48.0859 120.527 48.0859C121.121 48.0859 121.664 48.1719 122.156 48.3438C122.648 48.5156 123.07 48.7891 123.422 49.1641C123.781 49.5391 124.055 50.0352 124.242 50.6523C124.438 51.2695 124.535 52.0234 124.535 52.9141V61H121.137V52.9023C121.137 52.3398 121.059 51.9023 120.902 51.5898C120.746 51.2773 120.516 51.0586 120.211 50.9336C119.914 50.8008 119.547 50.7344 119.109 50.7344C118.656 50.7344 118.262 50.8242 117.926 51.0039C117.598 51.1836 117.324 51.4336 117.105 51.7539C116.895 52.0664 116.734 52.4336 116.625 52.8555C116.516 53.2773 116.461 53.7305 116.461 54.2148ZM135.129 48.3203H138.188V60.5781C138.188 61.7344 137.93 62.7148 137.414 63.5195C136.906 64.332 136.195 64.9453 135.281 65.3594C134.367 65.7812 133.305 65.9922 132.094 65.9922C131.562 65.9922 131 65.9219 130.406 65.7812C129.82 65.6406 129.258 65.4219 128.719 65.125C128.188 64.8281 127.742 64.4531 127.383 64L128.871 62.0078C129.262 62.4609 129.715 62.8125 130.23 63.0625C130.746 63.3203 131.316 63.4492 131.941 63.4492C132.551 63.4492 133.066 63.3359 133.488 63.1094C133.91 62.8906 134.234 62.5664 134.461 62.1367C134.688 61.7148 134.801 61.2031 134.801 60.6016V51.25L135.129 48.3203ZM126.598 54.8125V54.5664C126.598 53.5977 126.715 52.7188 126.949 51.9297C127.191 51.1328 127.531 50.4492 127.969 49.8789C128.414 49.3086 128.953 48.8672 129.586 48.5547C130.219 48.2422 130.934 48.0859 131.73 48.0859C132.574 48.0859 133.281 48.2422 133.852 48.5547C134.422 48.8672 134.891 49.3125 135.258 49.8906C135.625 50.4609 135.91 51.1367 136.113 51.918C136.324 52.6914 136.488 53.5391 136.605 54.4609V55C136.488 55.8828 136.312 56.7031 136.078 57.4609C135.844 58.2188 135.535 58.8828 135.152 59.4531C134.77 60.0156 134.293 60.4531 133.723 60.7656C133.16 61.0781 132.488 61.2344 131.707 61.2344C130.926 61.2344 130.219 61.0742 129.586 60.7539C128.961 60.4336 128.426 59.9844 127.98 59.4062C127.535 58.8281 127.191 58.1484 126.949 57.3672C126.715 56.5859 126.598 55.7344 126.598 54.8125ZM129.973 54.5664V54.8125C129.973 55.3359 130.023 55.8242 130.125 56.2773C130.227 56.7305 130.383 57.1328 130.594 57.4844C130.812 57.8281 131.082 58.0977 131.402 58.293C131.73 58.4805 132.117 58.5742 132.562 58.5742C133.18 58.5742 133.684 58.4453 134.074 58.1875C134.465 57.9219 134.758 57.5586 134.953 57.0977C135.148 56.6367 135.262 56.1055 135.293 55.5039V53.9688C135.277 53.4766 135.211 53.0352 135.094 52.6445C134.977 52.2461 134.812 51.9062 134.602 51.625C134.391 51.3438 134.117 51.125 133.781 50.9688C133.445 50.8125 133.047 50.7344 132.586 50.7344C132.141 50.7344 131.754 50.8359 131.426 51.0391C131.105 51.2344 130.836 51.5039 130.617 51.8477C130.406 52.1914 130.246 52.5977 130.137 53.0664C130.027 53.5273 129.973 54.0273 129.973 54.5664ZM140.273 54.7891V54.543C140.273 53.6133 140.406 52.7578 140.672 51.9766C140.938 51.1875 141.324 50.5039 141.832 49.9258C142.34 49.3477 142.965 48.8984 143.707 48.5781C144.449 48.25 145.301 48.0859 146.262 48.0859C147.223 48.0859 148.078 48.25 148.828 48.5781C149.578 48.8984 150.207 49.3477 150.715 49.9258C151.23 50.5039 151.621 51.1875 151.887 51.9766C152.152 52.7578 152.285 53.6133 152.285 54.543V54.7891C152.285 55.7109 152.152 56.5664 151.887 57.3555C151.621 58.1367 151.23 58.8203 150.715 59.4062C150.207 59.9844 149.582 60.4336 148.84 60.7539C148.098 61.0742 147.246 61.2344 146.285 61.2344C145.324 61.2344 144.469 61.0742 143.719 60.7539C142.977 60.4336 142.348 59.9844 141.832 59.4062C141.324 58.8203 140.938 58.1367 140.672 57.3555C140.406 56.5664 140.273 55.7109 140.273 54.7891ZM143.648 54.543V54.7891C143.648 55.3203 143.695 55.8164 143.789 56.2773C143.883 56.7383 144.031 57.1445 144.234 57.4961C144.445 57.8398 144.719 58.1094 145.055 58.3047C145.391 58.5 145.801 58.5977 146.285 58.5977C146.754 58.5977 147.156 58.5 147.492 58.3047C147.828 58.1094 148.098 57.8398 148.301 57.4961C148.504 57.1445 148.652 56.7383 148.746 56.2773C148.848 55.8164 148.898 55.3203 148.898 54.7891V54.543C148.898 54.0273 148.848 53.543 148.746 53.0898C148.652 52.6289 148.5 52.2227 148.289 51.8711C148.086 51.5117 147.816 51.2305 147.48 51.0273C147.145 50.8242 146.738 50.7227 146.262 50.7227C145.785 50.7227 145.379 50.8242 145.043 51.0273C144.715 51.2305 144.445 51.5117 144.234 51.8711C144.031 52.2227 143.883 52.6289 143.789 53.0898C143.695 53.543 143.648 54.0273 143.648 54.543ZM169.816 58.4688L174.434 62.125L172.219 64.0469L167.672 60.3906L169.816 58.4688ZM174.551 52.0703V52.8789C174.551 54.1758 174.375 55.3398 174.023 56.3711C173.68 57.4023 173.184 58.2812 172.535 59.0078C171.887 59.7266 171.121 60.2773 170.238 60.6602C169.355 61.043 168.375 61.2344 167.297 61.2344C166.227 61.2344 165.246 61.043 164.355 60.6602C163.465 60.2773 162.695 59.7266 162.047 59.0078C161.398 58.2812 160.895 57.4023 160.535 56.3711C160.184 55.3398 160.008 54.1758 160.008 52.8789V52.0703C160.008 50.7656 160.184 49.6016 160.535 48.5781C160.895 47.5469 161.395 46.668 162.035 45.9414C162.676 45.2148 163.441 44.6602 164.332 44.2773C165.223 43.8945 166.203 43.7031 167.273 43.7031C168.352 43.7031 169.332 43.8945 170.215 44.2773C171.105 44.6602 171.875 45.2148 172.523 45.9414C173.172 46.668 173.672 47.5469 174.023 48.5781C174.375 49.6016 174.551 50.7656 174.551 52.0703ZM171 52.8789V52.0469C171 51.1406 170.914 50.3438 170.742 49.6562C170.578 48.9688 170.336 48.3906 170.016 47.9219C169.703 47.4531 169.316 47.1016 168.855 46.8672C168.395 46.625 167.867 46.5039 167.273 46.5039C166.68 46.5039 166.152 46.625 165.691 46.8672C165.23 47.1016 164.844 47.4531 164.531 47.9219C164.219 48.3906 163.98 48.9688 163.816 49.6562C163.652 50.3438 163.57 51.1406 163.57 52.0469V52.8789C163.57 53.7773 163.652 54.5742 163.816 55.2695C163.98 55.957 164.219 56.5391 164.531 57.0156C164.852 57.4844 165.242 57.8398 165.703 58.082C166.172 58.3242 166.703 58.4453 167.297 58.4453C167.891 58.4453 168.414 58.3242 168.867 58.082C169.328 57.8398 169.715 57.4844 170.027 57.0156C170.348 56.5391 170.59 55.957 170.754 55.2695C170.918 54.5742 171 53.7773 171 52.8789ZM184.383 57.9648V48.3203H187.758V61H184.582L184.383 57.9648ZM184.758 55.3633L185.754 55.3398C185.754 56.1836 185.656 56.9688 185.461 57.6953C185.266 58.4141 184.973 59.0391 184.582 59.5703C184.191 60.0938 183.699 60.5039 183.105 60.8008C182.512 61.0898 181.812 61.2344 181.008 61.2344C180.391 61.2344 179.82 61.1484 179.297 60.9766C178.781 60.7969 178.336 60.5195 177.961 60.1445C177.594 59.7617 177.305 59.2734 177.094 58.6797C176.891 58.0781 176.789 57.3555 176.789 56.5117V48.3203H180.164V56.5352C180.164 56.9102 180.207 57.2266 180.293 57.4844C180.387 57.7422 180.516 57.9531 180.68 58.1172C180.844 58.2812 181.035 58.3984 181.254 58.4688C181.48 58.5391 181.73 58.5742 182.004 58.5742C182.699 58.5742 183.246 58.4336 183.645 58.1523C184.051 57.8711 184.336 57.4883 184.5 57.0039C184.672 56.5117 184.758 55.9648 184.758 55.3633ZM196.172 61.2344C195.188 61.2344 194.305 61.0781 193.523 60.7656C192.742 60.4453 192.078 60.0039 191.531 59.4414C190.992 58.8789 190.578 58.2266 190.289 57.4844C190 56.7344 189.855 55.9375 189.855 55.0938V54.625C189.855 53.6641 189.992 52.7852 190.266 51.9883C190.539 51.1914 190.93 50.5 191.438 49.9141C191.953 49.3281 192.578 48.8789 193.312 48.5664C194.047 48.2461 194.875 48.0859 195.797 48.0859C196.695 48.0859 197.492 48.2344 198.188 48.5312C198.883 48.8281 199.465 49.25 199.934 49.7969C200.41 50.3438 200.77 51 201.012 51.7656C201.254 52.5234 201.375 53.3672 201.375 54.2969V55.7031H191.297V53.4531H198.059V53.1953C198.059 52.7266 197.973 52.3086 197.801 51.9414C197.637 51.5664 197.387 51.2695 197.051 51.0508C196.715 50.832 196.285 50.7227 195.762 50.7227C195.316 50.7227 194.934 50.8203 194.613 51.0156C194.293 51.2109 194.031 51.4844 193.828 51.8359C193.633 52.1875 193.484 52.6016 193.383 53.0781C193.289 53.5469 193.242 54.0625 193.242 54.625V55.0938C193.242 55.6016 193.312 56.0703 193.453 56.5C193.602 56.9297 193.809 57.3008 194.074 57.6133C194.348 57.9258 194.676 58.168 195.059 58.3398C195.449 58.5117 195.891 58.5977 196.383 58.5977C196.992 58.5977 197.559 58.4805 198.082 58.2461C198.613 58.0039 199.07 57.6406 199.453 57.1562L201.094 58.9375C200.828 59.3203 200.465 59.6875 200.004 60.0391C199.551 60.3906 199.004 60.6797 198.363 60.9062C197.723 61.125 196.992 61.2344 196.172 61.2344ZM210.152 57.4961C210.152 57.2539 210.082 57.0352 209.941 56.8398C209.801 56.6445 209.539 56.4648 209.156 56.3008C208.781 56.1289 208.238 55.9727 207.527 55.832C206.887 55.6914 206.289 55.5156 205.734 55.3047C205.188 55.0859 204.711 54.8242 204.305 54.5195C203.906 54.2148 203.594 53.8555 203.367 53.4414C203.141 53.0195 203.027 52.5391 203.027 52C203.027 51.4688 203.141 50.9688 203.367 50.5C203.602 50.0312 203.934 49.6172 204.363 49.2578C204.801 48.8906 205.332 48.6055 205.957 48.4023C206.59 48.1914 207.301 48.0859 208.09 48.0859C209.191 48.0859 210.137 48.2617 210.926 48.6133C211.723 48.9648 212.332 49.4492 212.754 50.0664C213.184 50.6758 213.398 51.3711 213.398 52.1523H210.023C210.023 51.8242 209.953 51.5312 209.812 51.2734C209.68 51.0078 209.469 50.8008 209.18 50.6523C208.898 50.4961 208.531 50.418 208.078 50.418C207.703 50.418 207.379 50.4844 207.105 50.6172C206.832 50.7422 206.621 50.9141 206.473 51.1328C206.332 51.3438 206.262 51.5781 206.262 51.8359C206.262 52.0312 206.301 52.207 206.379 52.3633C206.465 52.5117 206.602 52.6484 206.789 52.7734C206.977 52.8984 207.219 53.0156 207.516 53.125C207.82 53.2266 208.195 53.3203 208.641 53.4062C209.555 53.5938 210.371 53.8398 211.09 54.1445C211.809 54.4414 212.379 54.8477 212.801 55.3633C213.223 55.8711 213.434 56.5391 213.434 57.3672C213.434 57.9297 213.309 58.4453 213.059 58.9141C212.809 59.3828 212.449 59.793 211.98 60.1445C211.512 60.4883 210.949 60.7578 210.293 60.9531C209.645 61.1406 208.914 61.2344 208.102 61.2344C206.922 61.2344 205.922 61.0234 205.102 60.6016C204.289 60.1797 203.672 59.6445 203.25 58.9961C202.836 58.3398 202.629 57.668 202.629 56.9805H205.828C205.844 57.4414 205.961 57.8125 206.18 58.0938C206.406 58.375 206.691 58.5781 207.035 58.7031C207.387 58.8281 207.766 58.8906 208.172 58.8906C208.609 58.8906 208.973 58.832 209.262 58.7148C209.551 58.5898 209.77 58.4258 209.918 58.2227C210.074 58.0117 210.152 57.7695 210.152 57.4961ZM221.836 48.3203V50.7109H214.453V48.3203H221.836ZM216.281 45.1914H219.656V57.1797C219.656 57.5469 219.703 57.8281 219.797 58.0234C219.898 58.2188 220.047 58.3555 220.242 58.4336C220.438 58.5039 220.684 58.5391 220.98 58.5391C221.191 58.5391 221.379 58.5312 221.543 58.5156C221.715 58.4922 221.859 58.4688 221.977 58.4453L221.988 60.9297C221.699 61.0234 221.387 61.0977 221.051 61.1523C220.715 61.207 220.344 61.2344 219.938 61.2344C219.195 61.2344 218.547 61.1133 217.992 60.8711C217.445 60.6211 217.023 60.2227 216.727 59.6758C216.43 59.1289 216.281 58.4102 216.281 57.5195V45.1914Z" fill="#888888"/>
<path d="M110.062 92.0469L101.742 119H92.9062L105.445 84.875H111.047L110.062 92.0469ZM116.953 119L108.609 92.0469L107.531 84.875H113.203L125.812 119H116.953ZM116.625 106.273V112.625H99.1172V106.273H116.625ZM135.258 115.906L142.055 84.875H146.109L148.312 87.5234L141.07 119H136.594L135.258 115.906ZM133.453 84.875L139.195 116.141L137.719 119H132.539L125.297 84.875H133.453ZM152.039 115.977L157.734 84.875H165.867L158.625 119H153.469L152.039 115.977ZM149.039 84.875L156 116.094L154.594 119H150.117L142.711 87.4766L145.008 84.875H149.039ZM186.68 109.93C186.68 109.398 186.602 108.922 186.445 108.5C186.289 108.062 186 107.656 185.578 107.281C185.156 106.906 184.547 106.531 183.75 106.156C182.969 105.766 181.938 105.359 180.656 104.938C179.156 104.438 177.711 103.875 176.32 103.25C174.93 102.609 173.688 101.867 172.594 101.023C171.5 100.164 170.633 99.1641 169.992 98.0234C169.352 96.8672 169.031 95.5234 169.031 93.9922C169.031 92.5234 169.359 91.2031 170.016 90.0312C170.672 88.8438 171.586 87.8359 172.758 87.0078C173.945 86.1641 175.336 85.5234 176.93 85.0859C178.523 84.6328 180.266 84.4062 182.156 84.4062C184.656 84.4062 186.859 84.8438 188.766 85.7188C190.688 86.5781 192.188 87.8047 193.266 89.3984C194.359 90.9766 194.906 92.8438 194.906 95H186.727C186.727 94.1406 186.547 93.3828 186.188 92.7266C185.844 92.0703 185.32 91.5547 184.617 91.1797C183.914 90.8047 183.031 90.6172 181.969 90.6172C180.938 90.6172 180.07 90.7734 179.367 91.0859C178.664 91.3984 178.133 91.8203 177.773 92.3516C177.414 92.8672 177.234 93.4375 177.234 94.0625C177.234 94.5781 177.375 95.0469 177.656 95.4688C177.953 95.875 178.367 96.2578 178.898 96.6172C179.445 96.9766 180.102 97.3203 180.867 97.6484C181.648 97.9766 182.523 98.2969 183.492 98.6094C185.305 99.1875 186.914 99.8359 188.32 100.555C189.742 101.258 190.938 102.062 191.906 102.969C192.891 103.859 193.633 104.875 194.133 106.016C194.648 107.156 194.906 108.445 194.906 109.883C194.906 111.414 194.609 112.773 194.016 113.961C193.422 115.148 192.57 116.156 191.461 116.984C190.352 117.797 189.023 118.414 187.477 118.836C185.93 119.258 184.203 119.469 182.297 119.469C180.547 119.469 178.82 119.25 177.117 118.812C175.43 118.359 173.898 117.672 172.523 116.75C171.148 115.812 170.047 114.617 169.219 113.164C168.406 111.695 168 109.953 168 107.938H176.25C176.25 108.938 176.383 109.781 176.648 110.469C176.914 111.156 177.305 111.711 177.82 112.133C178.336 112.539 178.969 112.836 179.719 113.023C180.469 113.195 181.328 113.281 182.297 113.281C183.344 113.281 184.188 113.133 184.828 112.836C185.469 112.523 185.938 112.117 186.234 111.617C186.531 111.102 186.68 110.539 186.68 109.93ZM222.188 119H214.617L214.664 112.672H222.188C223.75 112.672 225.07 112.297 226.148 111.547C227.242 110.797 228.07 109.68 228.633 108.195C229.211 106.695 229.5 104.852 229.5 102.664V101.188C229.5 99.5469 229.336 98.1094 229.008 96.875C228.695 95.625 228.227 94.5859 227.602 93.7578C226.977 92.9141 226.195 92.2812 225.258 91.8594C224.336 91.4375 223.273 91.2266 222.07 91.2266H214.477V84.875H222.07C224.383 84.875 226.5 85.2734 228.422 86.0703C230.359 86.8516 232.031 87.9766 233.438 89.4453C234.859 90.8984 235.953 92.625 236.719 94.625C237.5 96.6094 237.891 98.8125 237.891 101.234V102.664C237.891 105.07 237.5 107.273 236.719 109.273C235.953 111.273 234.867 113 233.461 114.453C232.055 115.906 230.391 117.031 228.469 117.828C226.562 118.609 224.469 119 222.188 119ZM219.328 84.875V119H211.102V84.875H219.328ZM254.086 119.469C252.023 119.469 250.18 119.148 248.555 118.508C246.93 117.852 245.555 116.953 244.43 115.812C243.32 114.672 242.469 113.359 241.875 111.875C241.297 110.391 241.008 108.82 241.008 107.164V106.273C241.008 104.414 241.266 102.695 241.781 101.117C242.297 99.5234 243.062 98.1328 244.078 96.9453C245.094 95.7578 246.367 94.8359 247.898 94.1797C249.43 93.5078 251.211 93.1719 253.242 93.1719C255.039 93.1719 256.648 93.4609 258.07 94.0391C259.492 94.6172 260.695 95.4453 261.68 96.5234C262.68 97.6016 263.438 98.9062 263.953 100.438C264.484 101.969 264.75 103.688 264.75 105.594V108.805H244.031V103.859H257.039V103.25C257.055 102.406 256.906 101.688 256.594 101.094C256.297 100.5 255.859 100.047 255.281 99.7344C254.703 99.4219 254 99.2656 253.172 99.2656C252.312 99.2656 251.602 99.4531 251.039 99.8281C250.492 100.203 250.062 100.719 249.75 101.375C249.453 102.016 249.242 102.758 249.117 103.602C248.992 104.445 248.93 105.336 248.93 106.273V107.164C248.93 108.102 249.055 108.953 249.305 109.719C249.57 110.484 249.945 111.141 250.43 111.688C250.93 112.219 251.523 112.633 252.211 112.93C252.914 113.227 253.711 113.375 254.602 113.375C255.68 113.375 256.742 113.172 257.789 112.766C258.836 112.359 259.734 111.688 260.484 110.75L264.07 115.016C263.555 115.75 262.82 116.461 261.867 117.148C260.93 117.836 259.805 118.398 258.492 118.836C257.18 119.258 255.711 119.469 254.086 119.469ZM275.93 98.5156V128.75H268.031V93.6406H275.391L275.93 98.5156ZM291.492 106.016V106.508C291.492 108.352 291.281 110.062 290.859 111.641C290.438 113.219 289.812 114.594 288.984 115.766C288.156 116.938 287.125 117.852 285.891 118.508C284.672 119.148 283.258 119.469 281.648 119.469C280.133 119.469 278.828 119.133 277.734 118.461C276.641 117.789 275.727 116.859 274.992 115.672C274.258 114.484 273.664 113.125 273.211 111.594C272.758 110.062 272.398 108.445 272.133 106.742V106.109C272.398 104.281 272.758 102.586 273.211 101.023C273.664 99.4453 274.258 98.0703 274.992 96.8984C275.727 95.7266 276.633 94.8125 277.711 94.1562C278.805 93.5 280.109 93.1719 281.625 93.1719C283.234 93.1719 284.648 93.4766 285.867 94.0859C287.102 94.6953 288.133 95.5703 288.961 96.7109C289.805 97.8359 290.438 99.1875 290.859 100.766C291.281 102.344 291.492 104.094 291.492 106.016ZM283.594 106.508V106.016C283.594 105.031 283.523 104.133 283.383 103.32C283.242 102.492 283.016 101.773 282.703 101.164C282.406 100.555 282.008 100.086 281.508 99.7578C281.008 99.4297 280.391 99.2656 279.656 99.2656C278.812 99.2656 278.102 99.3984 277.523 99.6641C276.961 99.9141 276.508 100.305 276.164 100.836C275.836 101.352 275.602 102 275.461 102.781C275.336 103.547 275.281 104.445 275.297 105.477V107.398C275.266 108.586 275.383 109.633 275.648 110.539C275.914 111.43 276.375 112.125 277.031 112.625C277.688 113.125 278.578 113.375 279.703 113.375C280.453 113.375 281.078 113.203 281.578 112.859C282.078 112.5 282.477 112.008 282.773 111.383C283.07 110.742 283.281 110.008 283.406 109.18C283.531 108.352 283.594 107.461 283.594 106.508ZM303.352 83V119H295.43V83H303.352ZM307.242 106.578V106.086C307.242 104.227 307.508 102.516 308.039 100.953C308.57 99.375 309.352 98.0078 310.383 96.8516C311.414 95.6953 312.688 94.7969 314.203 94.1562C315.719 93.5 317.469 93.1719 319.453 93.1719C321.453 93.1719 323.211 93.5 324.727 94.1562C326.258 94.7969 327.539 95.6953 328.57 96.8516C329.602 98.0078 330.383 99.375 330.914 100.953C331.445 102.516 331.711 104.227 331.711 106.086V106.578C331.711 108.422 331.445 110.133 330.914 111.711C330.383 113.273 329.602 114.641 328.57 115.812C327.539 116.969 326.266 117.867 324.75 118.508C323.234 119.148 321.484 119.469 319.5 119.469C317.516 119.469 315.758 119.148 314.227 118.508C312.695 117.867 311.414 116.969 310.383 115.812C309.352 114.641 308.57 113.273 308.039 111.711C307.508 110.133 307.242 108.422 307.242 106.578ZM315.141 106.086V106.578C315.141 107.531 315.211 108.422 315.352 109.25C315.492 110.078 315.727 110.805 316.055 111.43C316.383 112.039 316.828 112.516 317.391 112.859C317.953 113.203 318.656 113.375 319.5 113.375C320.328 113.375 321.016 113.203 321.562 112.859C322.125 112.516 322.57 112.039 322.898 111.43C323.227 110.805 323.461 110.078 323.602 109.25C323.742 108.422 323.812 107.531 323.812 106.578V106.086C323.812 105.164 323.742 104.297 323.602 103.484C323.461 102.656 323.227 101.93 322.898 101.305C322.57 100.664 322.125 100.164 321.562 99.8047C321 99.4453 320.297 99.2656 319.453 99.2656C318.625 99.2656 317.93 99.4453 317.367 99.8047C316.82 100.164 316.383 100.664 316.055 101.305C315.727 101.93 315.492 102.656 315.352 103.484C315.211 104.297 315.141 105.164 315.141 106.086ZM342.633 116.023L349.195 93.6406H357.68L347.484 122.773C347.266 123.414 346.977 124.102 346.617 124.836C346.258 125.586 345.766 126.297 345.141 126.969C344.516 127.641 343.711 128.188 342.727 128.609C341.758 129.031 340.555 129.242 339.117 129.242C338.352 129.242 337.789 129.203 337.43 129.125C337.086 129.062 336.555 128.945 335.836 128.773V123.125C336.039 123.125 336.211 123.125 336.352 123.125C336.508 123.125 336.68 123.125 336.867 123.125C337.711 123.125 338.383 123.039 338.883 122.867C339.398 122.695 339.789 122.445 340.055 122.117C340.336 121.789 340.555 121.391 340.711 120.922L342.633 116.023ZM340.969 93.6406L345.961 111.383L346.828 119.75H341.531L332.508 93.6406H340.969ZM367.711 99.0078V119H359.812V93.6406H367.219L367.711 99.0078ZM366.75 105.453L364.945 105.5C364.945 103.719 365.156 102.078 365.578 100.578C366 99.0781 366.625 97.7734 367.453 96.6641C368.281 95.5547 369.297 94.6953 370.5 94.0859C371.719 93.4766 373.125 93.1719 374.719 93.1719C375.828 93.1719 376.836 93.3438 377.742 93.6875C378.648 94.0156 379.43 94.5391 380.086 95.2578C380.742 95.9609 381.242 96.8828 381.586 98.0234C381.945 99.1484 382.125 100.5 382.125 102.078V119H374.227V103.086C374.227 102.008 374.102 101.195 373.852 100.648C373.617 100.102 373.273 99.7344 372.82 99.5469C372.367 99.3594 371.812 99.2656 371.156 99.2656C370.469 99.2656 369.852 99.4219 369.305 99.7344C368.758 100.047 368.289 100.484 367.898 101.047C367.523 101.594 367.234 102.242 367.031 102.992C366.844 103.742 366.75 104.562 366.75 105.453ZM381.234 105.453L379.031 105.5C379.031 103.719 379.227 102.078 379.617 100.578C380.023 99.0781 380.625 97.7734 381.422 96.6641C382.234 95.5547 383.242 94.6953 384.445 94.0859C385.648 93.4766 387.047 93.1719 388.641 93.1719C389.797 93.1719 390.859 93.3438 391.828 93.6875C392.797 94.0312 393.633 94.5859 394.336 95.3516C395.039 96.1172 395.586 97.1328 395.977 98.3984C396.367 99.6484 396.562 101.195 396.562 103.039V119H388.641V103.039C388.641 101.992 388.516 101.203 388.266 100.672C388.031 100.125 387.688 99.7578 387.234 99.5703C386.781 99.3672 386.242 99.2656 385.617 99.2656C384.867 99.2656 384.219 99.4219 383.672 99.7344C383.125 100.047 382.664 100.484 382.289 101.047C381.93 101.594 381.664 102.242 381.492 102.992C381.32 103.742 381.234 104.562 381.234 105.453ZM413.367 119.469C411.305 119.469 409.461 119.148 407.836 118.508C406.211 117.852 404.836 116.953 403.711 115.812C402.602 114.672 401.75 113.359 401.156 111.875C400.578 110.391 400.289 108.82 400.289 107.164V106.273C400.289 104.414 400.547 102.695 401.062 101.117C401.578 99.5234 402.344 98.1328 403.359 96.9453C404.375 95.7578 405.648 94.8359 407.18 94.1797C408.711 93.5078 410.492 93.1719 412.523 93.1719C414.32 93.1719 415.93 93.4609 417.352 94.0391C418.773 94.6172 419.977 95.4453 420.961 96.5234C421.961 97.6016 422.719 98.9062 423.234 100.438C423.766 101.969 424.031 103.688 424.031 105.594V108.805H403.312V103.859H416.32V103.25C416.336 102.406 416.188 101.688 415.875 101.094C415.578 100.5 415.141 100.047 414.562 99.7344C413.984 99.4219 413.281 99.2656 412.453 99.2656C411.594 99.2656 410.883 99.4531 410.32 99.8281C409.773 100.203 409.344 100.719 409.031 101.375C408.734 102.016 408.523 102.758 408.398 103.602C408.273 104.445 408.211 105.336 408.211 106.273V107.164C408.211 108.102 408.336 108.953 408.586 109.719C408.852 110.484 409.227 111.141 409.711 111.688C410.211 112.219 410.805 112.633 411.492 112.93C412.195 113.227 412.992 113.375 413.883 113.375C414.961 113.375 416.023 113.172 417.07 112.766C418.117 112.359 419.016 111.688 419.766 110.75L423.352 115.016C422.836 115.75 422.102 116.461 421.148 117.148C420.211 117.836 419.086 118.398 417.773 118.836C416.461 119.258 414.992 119.469 413.367 119.469ZM435 99.0547V119H427.102V93.6406H434.508L435 99.0547ZM434.062 105.453L432.211 105.5C432.211 103.562 432.445 101.836 432.914 100.32C433.383 98.7891 434.047 97.4922 434.906 96.4297C435.766 95.3672 436.789 94.5625 437.977 94.0156C439.18 93.4531 440.516 93.1719 441.984 93.1719C443.156 93.1719 444.227 93.3438 445.195 93.6875C446.18 94.0312 447.023 94.5859 447.727 95.3516C448.445 96.1172 448.992 97.1328 449.367 98.3984C449.758 99.6484 449.953 101.195 449.953 103.039V119H442.008V103.016C442.008 102 441.867 101.227 441.586 100.695C441.305 100.148 440.898 99.7734 440.367 99.5703C439.836 99.3672 439.188 99.2656 438.422 99.2656C437.609 99.2656 436.922 99.4219 436.359 99.7344C435.797 100.047 435.344 100.484 435 101.047C434.672 101.594 434.43 102.242 434.273 102.992C434.133 103.742 434.062 104.562 434.062 105.453ZM467.695 93.6406V99.125H452.414V93.6406H467.695ZM455.625 87.3359H463.523V110.727C463.523 111.398 463.602 111.922 463.758 112.297C463.914 112.656 464.18 112.914 464.555 113.07C464.945 113.211 465.461 113.281 466.102 113.281C466.555 113.281 466.93 113.273 467.227 113.258C467.523 113.227 467.805 113.188 468.07 113.141V118.789C467.398 119.008 466.695 119.172 465.961 119.281C465.227 119.406 464.445 119.469 463.617 119.469C461.93 119.469 460.484 119.203 459.281 118.672C458.094 118.141 457.188 117.305 456.562 116.164C455.938 115.023 455.625 113.539 455.625 111.711V87.3359Z" fill="black"/>
<path d="M1134 0H1348C1356.28 0 1363 6.71573 1363 15V148C1363 156.284 1356.28 163 1348 163H1134V0Z" fill="#4261D1"/>
<path d="M1212.5 117.5L1212.5 45.5L1284.5 45.5L1284.5 117.5L1212.5 117.5Z" fill="white" fill-opacity="0.01"/>
<path d="M1221.5 81.5125L1221.5 108.5L1275.5 108.5L1275.5 81.5" stroke="white" stroke-width="7.24" stroke-linecap="round" stroke-linejoin="round"/>
<path d="M1262 68L1248.5 54.5L1235 68" stroke="white" stroke-width="7.24" stroke-linecap="round" stroke-linejoin="round"/>
<path d="M1248.49 93.5L1248.49 54.5" stroke="white" stroke-width="7.24" stroke-linecap="round" stroke-linejoin="round"/>
</svg>
