<svg width="1363" height="163" viewBox="0 0 1363 163" fill="none" xmlns="http://www.w3.org/2000/svg">
<path d="M0 15C0 6.71573 6.71573 0 15 0H37V163H15C6.71573 163 0 156.284 0 148V15Z" fill="#424242"/>
<rect width="1097" height="163" transform="translate(37)" fill="#F0F0F0"/>
<path d="M101.906 53.9219L94.3945 51.2383V48.0859L104.602 52.375V54.6367L101.906 53.9219ZM94.3945 56.1719L101.918 53.4297L104.602 52.7852V55.0352L94.3945 59.3242V56.1719ZM123.867 58.2578V61H115.277V58.2578H123.867ZM116.414 43.9375V61H112.898V43.9375H116.414ZM129.234 48.3203V61H125.848V48.3203H129.234ZM125.637 45.0156C125.637 44.5234 125.809 44.1172 126.152 43.7969C126.496 43.4766 126.957 43.3164 127.535 43.3164C128.105 43.3164 128.562 43.4766 128.906 43.7969C129.258 44.1172 129.434 44.5234 129.434 45.0156C129.434 45.5078 129.258 45.9141 128.906 46.2344C128.562 46.5547 128.105 46.7148 127.535 46.7148C126.957 46.7148 126.496 46.5547 126.152 46.2344C125.809 45.9141 125.637 45.5078 125.637 45.0156ZM135.328 51.0273V61H131.953V48.3203H135.117L135.328 51.0273ZM134.836 54.2148H133.922C133.922 53.2773 134.043 52.4336 134.285 51.6836C134.527 50.9258 134.867 50.2812 135.305 49.75C135.742 49.2109 136.262 48.8008 136.863 48.5195C137.473 48.2305 138.152 48.0859 138.902 48.0859C139.496 48.0859 140.039 48.1719 140.531 48.3438C141.023 48.5156 141.445 48.7891 141.797 49.1641C142.156 49.5391 142.43 50.0352 142.617 50.6523C142.812 51.2695 142.91 52.0234 142.91 52.9141V61H139.512V52.9023C139.512 52.3398 139.434 51.9023 139.277 51.5898C139.121 51.2773 138.891 51.0586 138.586 50.9336C138.289 50.8008 137.922 50.7344 137.484 50.7344C137.031 50.7344 136.637 50.8242 136.301 51.0039C135.973 51.1836 135.699 51.4336 135.48 51.7539C135.27 52.0664 135.109 52.4336 135 52.8555C134.891 53.2773 134.836 53.7305 134.836 54.2148ZM153.504 48.3203H156.562V60.5781C156.562 61.7344 156.305 62.7148 155.789 63.5195C155.281 64.332 154.57 64.9453 153.656 65.3594C152.742 65.7812 151.68 65.9922 150.469 65.9922C149.938 65.9922 149.375 65.9219 148.781 65.7812C148.195 65.6406 147.633 65.4219 147.094 65.125C146.562 64.8281 146.117 64.4531 145.758 64L147.246 62.0078C147.637 62.4609 148.09 62.8125 148.605 63.0625C149.121 63.3203 149.691 63.4492 150.316 63.4492C150.926 63.4492 151.441 63.3359 151.863 63.1094C152.285 62.8906 152.609 62.5664 152.836 62.1367C153.062 61.7148 153.176 61.2031 153.176 60.6016V51.25L153.504 48.3203ZM144.973 54.8125V54.5664C144.973 53.5977 145.09 52.7188 145.324 51.9297C145.566 51.1328 145.906 50.4492 146.344 49.8789C146.789 49.3086 147.328 48.8672 147.961 48.5547C148.594 48.2422 149.309 48.0859 150.105 48.0859C150.949 48.0859 151.656 48.2422 152.227 48.5547C152.797 48.8672 153.266 49.3125 153.633 49.8906C154 50.4609 154.285 51.1367 154.488 51.918C154.699 52.6914 154.863 53.5391 154.98 54.4609V55C154.863 55.8828 154.688 56.7031 154.453 57.4609C154.219 58.2188 153.91 58.8828 153.527 59.4531C153.145 60.0156 152.668 60.4531 152.098 60.7656C151.535 61.0781 150.863 61.2344 150.082 61.2344C149.301 61.2344 148.594 61.0742 147.961 60.7539C147.336 60.4336 146.801 59.9844 146.355 59.4062C145.91 58.8281 145.566 58.1484 145.324 57.3672C145.09 56.5859 144.973 55.7344 144.973 54.8125ZM148.348 54.5664V54.8125C148.348 55.3359 148.398 55.8242 148.5 56.2773C148.602 56.7305 148.758 57.1328 148.969 57.4844C149.188 57.8281 149.457 58.0977 149.777 58.293C150.105 58.4805 150.492 58.5742 150.938 58.5742C151.555 58.5742 152.059 58.4453 152.449 58.1875C152.84 57.9219 153.133 57.5586 153.328 57.0977C153.523 56.6367 153.637 56.1055 153.668 55.5039V53.9688C153.652 53.4766 153.586 53.0352 153.469 52.6445C153.352 52.2461 153.188 51.9062 152.977 51.625C152.766 51.3438 152.492 51.125 152.156 50.9688C151.82 50.8125 151.422 50.7344 150.961 50.7344C150.516 50.7344 150.129 50.8359 149.801 51.0391C149.48 51.2344 149.211 51.5039 148.992 51.8477C148.781 52.1914 148.621 52.5977 148.512 53.0664C148.402 53.5273 148.348 54.0273 148.348 54.5664ZM158.648 54.7891V54.543C158.648 53.6133 158.781 52.7578 159.047 51.9766C159.312 51.1875 159.699 50.5039 160.207 49.9258C160.715 49.3477 161.34 48.8984 162.082 48.5781C162.824 48.25 163.676 48.0859 164.637 48.0859C165.598 48.0859 166.453 48.25 167.203 48.5781C167.953 48.8984 168.582 49.3477 169.09 49.9258C169.605 50.5039 169.996 51.1875 170.262 51.9766C170.527 52.7578 170.66 53.6133 170.66 54.543V54.7891C170.66 55.7109 170.527 56.5664 170.262 57.3555C169.996 58.1367 169.605 58.8203 169.09 59.4062C168.582 59.9844 167.957 60.4336 167.215 60.7539C166.473 61.0742 165.621 61.2344 164.66 61.2344C163.699 61.2344 162.844 61.0742 162.094 60.7539C161.352 60.4336 160.723 59.9844 160.207 59.4062C159.699 58.8203 159.312 58.1367 159.047 57.3555C158.781 56.5664 158.648 55.7109 158.648 54.7891ZM162.023 54.543V54.7891C162.023 55.3203 162.07 55.8164 162.164 56.2773C162.258 56.7383 162.406 57.1445 162.609 57.4961C162.82 57.8398 163.094 58.1094 163.43 58.3047C163.766 58.5 164.176 58.5977 164.66 58.5977C165.129 58.5977 165.531 58.5 165.867 58.3047C166.203 58.1094 166.473 57.8398 166.676 57.4961C166.879 57.1445 167.027 56.7383 167.121 56.2773C167.223 55.8164 167.273 55.3203 167.273 54.7891V54.543C167.273 54.0273 167.223 53.543 167.121 53.0898C167.027 52.6289 166.875 52.2227 166.664 51.8711C166.461 51.5117 166.191 51.2305 165.855 51.0273C165.52 50.8242 165.113 50.7227 164.637 50.7227C164.16 50.7227 163.754 50.8242 163.418 51.0273C163.09 51.2305 162.82 51.5117 162.609 51.8711C162.406 52.2227 162.258 52.6289 162.164 53.0898C162.07 53.543 162.023 54.0273 162.023 54.543ZM188.191 58.4688L192.809 62.125L190.594 64.0469L186.047 60.3906L188.191 58.4688ZM192.926 52.0703V52.8789C192.926 54.1758 192.75 55.3398 192.398 56.3711C192.055 57.4023 191.559 58.2812 190.91 59.0078C190.262 59.7266 189.496 60.2773 188.613 60.6602C187.73 61.043 186.75 61.2344 185.672 61.2344C184.602 61.2344 183.621 61.043 182.73 60.6602C181.84 60.2773 181.07 59.7266 180.422 59.0078C179.773 58.2812 179.27 57.4023 178.91 56.3711C178.559 55.3398 178.383 54.1758 178.383 52.8789V52.0703C178.383 50.7656 178.559 49.6016 178.91 48.5781C179.27 47.5469 179.77 46.668 180.41 45.9414C181.051 45.2148 181.816 44.6602 182.707 44.2773C183.598 43.8945 184.578 43.7031 185.648 43.7031C186.727 43.7031 187.707 43.8945 188.59 44.2773C189.48 44.6602 190.25 45.2148 190.898 45.9414C191.547 46.668 192.047 47.5469 192.398 48.5781C192.75 49.6016 192.926 50.7656 192.926 52.0703ZM189.375 52.8789V52.0469C189.375 51.1406 189.289 50.3438 189.117 49.6562C188.953 48.9688 188.711 48.3906 188.391 47.9219C188.078 47.4531 187.691 47.1016 187.23 46.8672C186.77 46.625 186.242 46.5039 185.648 46.5039C185.055 46.5039 184.527 46.625 184.066 46.8672C183.605 47.1016 183.219 47.4531 182.906 47.9219C182.594 48.3906 182.355 48.9688 182.191 49.6562C182.027 50.3438 181.945 51.1406 181.945 52.0469V52.8789C181.945 53.7773 182.027 54.5742 182.191 55.2695C182.355 55.957 182.594 56.5391 182.906 57.0156C183.227 57.4844 183.617 57.8398 184.078 58.082C184.547 58.3242 185.078 58.4453 185.672 58.4453C186.266 58.4453 186.789 58.3242 187.242 58.082C187.703 57.8398 188.09 57.4844 188.402 57.0156C188.723 56.5391 188.965 55.957 189.129 55.2695C189.293 54.5742 189.375 53.7773 189.375 52.8789ZM202.758 57.9648V48.3203H206.133V61H202.957L202.758 57.9648ZM203.133 55.3633L204.129 55.3398C204.129 56.1836 204.031 56.9688 203.836 57.6953C203.641 58.4141 203.348 59.0391 202.957 59.5703C202.566 60.0938 202.074 60.5039 201.48 60.8008C200.887 61.0898 200.188 61.2344 199.383 61.2344C198.766 61.2344 198.195 61.1484 197.672 60.9766C197.156 60.7969 196.711 60.5195 196.336 60.1445C195.969 59.7617 195.68 59.2734 195.469 58.6797C195.266 58.0781 195.164 57.3555 195.164 56.5117V48.3203H198.539V56.5352C198.539 56.9102 198.582 57.2266 198.668 57.4844C198.762 57.7422 198.891 57.9531 199.055 58.1172C199.219 58.2812 199.41 58.3984 199.629 58.4688C199.855 58.5391 200.105 58.5742 200.379 58.5742C201.074 58.5742 201.621 58.4336 202.02 58.1523C202.426 57.8711 202.711 57.4883 202.875 57.0039C203.047 56.5117 203.133 55.9648 203.133 55.3633ZM214.547 61.2344C213.562 61.2344 212.68 61.0781 211.898 60.7656C211.117 60.4453 210.453 60.0039 209.906 59.4414C209.367 58.8789 208.953 58.2266 208.664 57.4844C208.375 56.7344 208.23 55.9375 208.23 55.0938V54.625C208.23 53.6641 208.367 52.7852 208.641 51.9883C208.914 51.1914 209.305 50.5 209.812 49.9141C210.328 49.3281 210.953 48.8789 211.688 48.5664C212.422 48.2461 213.25 48.0859 214.172 48.0859C215.07 48.0859 215.867 48.2344 216.562 48.5312C217.258 48.8281 217.84 49.25 218.309 49.7969C218.785 50.3438 219.145 51 219.387 51.7656C219.629 52.5234 219.75 53.3672 219.75 54.2969V55.7031H209.672V53.4531H216.434V53.1953C216.434 52.7266 216.348 52.3086 216.176 51.9414C216.012 51.5664 215.762 51.2695 215.426 51.0508C215.09 50.832 214.66 50.7227 214.137 50.7227C213.691 50.7227 213.309 50.8203 212.988 51.0156C212.668 51.2109 212.406 51.4844 212.203 51.8359C212.008 52.1875 211.859 52.6016 211.758 53.0781C211.664 53.5469 211.617 54.0625 211.617 54.625V55.0938C211.617 55.6016 211.688 56.0703 211.828 56.5C211.977 56.9297 212.184 57.3008 212.449 57.6133C212.723 57.9258 213.051 58.168 213.434 58.3398C213.824 58.5117 214.266 58.5977 214.758 58.5977C215.367 58.5977 215.934 58.4805 216.457 58.2461C216.988 58.0039 217.445 57.6406 217.828 57.1562L219.469 58.9375C219.203 59.3203 218.84 59.6875 218.379 60.0391C217.926 60.3906 217.379 60.6797 216.738 60.9062C216.098 61.125 215.367 61.2344 214.547 61.2344ZM228.527 57.4961C228.527 57.2539 228.457 57.0352 228.316 56.8398C228.176 56.6445 227.914 56.4648 227.531 56.3008C227.156 56.1289 226.613 55.9727 225.902 55.832C225.262 55.6914 224.664 55.5156 224.109 55.3047C223.562 55.0859 223.086 54.8242 222.68 54.5195C222.281 54.2148 221.969 53.8555 221.742 53.4414C221.516 53.0195 221.402 52.5391 221.402 52C221.402 51.4688 221.516 50.9688 221.742 50.5C221.977 50.0312 222.309 49.6172 222.738 49.2578C223.176 48.8906 223.707 48.6055 224.332 48.4023C224.965 48.1914 225.676 48.0859 226.465 48.0859C227.566 48.0859 228.512 48.2617 229.301 48.6133C230.098 48.9648 230.707 49.4492 231.129 50.0664C231.559 50.6758 231.773 51.3711 231.773 52.1523H228.398C228.398 51.8242 228.328 51.5312 228.188 51.2734C228.055 51.0078 227.844 50.8008 227.555 50.6523C227.273 50.4961 226.906 50.418 226.453 50.418C226.078 50.418 225.754 50.4844 225.48 50.6172C225.207 50.7422 224.996 50.9141 224.848 51.1328C224.707 51.3438 224.637 51.5781 224.637 51.8359C224.637 52.0312 224.676 52.207 224.754 52.3633C224.84 52.5117 224.977 52.6484 225.164 52.7734C225.352 52.8984 225.594 53.0156 225.891 53.125C226.195 53.2266 226.57 53.3203 227.016 53.4062C227.93 53.5938 228.746 53.8398 229.465 54.1445C230.184 54.4414 230.754 54.8477 231.176 55.3633C231.598 55.8711 231.809 56.5391 231.809 57.3672C231.809 57.9297 231.684 58.4453 231.434 58.9141C231.184 59.3828 230.824 59.793 230.355 60.1445C229.887 60.4883 229.324 60.7578 228.668 60.9531C228.02 61.1406 227.289 61.2344 226.477 61.2344C225.297 61.2344 224.297 61.0234 223.477 60.6016C222.664 60.1797 222.047 59.6445 221.625 58.9961C221.211 58.3398 221.004 57.668 221.004 56.9805H224.203C224.219 57.4414 224.336 57.8125 224.555 58.0938C224.781 58.375 225.066 58.5781 225.41 58.7031C225.762 58.8281 226.141 58.8906 226.547 58.8906C226.984 58.8906 227.348 58.832 227.637 58.7148C227.926 58.5898 228.145 58.4258 228.293 58.2227C228.449 58.0117 228.527 57.7695 228.527 57.4961ZM240.211 48.3203V50.7109H232.828V48.3203H240.211ZM234.656 45.1914H238.031V57.1797C238.031 57.5469 238.078 57.8281 238.172 58.0234C238.273 58.2188 238.422 58.3555 238.617 58.4336C238.812 58.5039 239.059 58.5391 239.355 58.5391C239.566 58.5391 239.754 58.5312 239.918 58.5156C240.09 58.4922 240.234 58.4688 240.352 58.4453L240.363 60.9297C240.074 61.0234 239.762 61.0977 239.426 61.1523C239.09 61.207 238.719 61.2344 238.312 61.2344C237.57 61.2344 236.922 61.1133 236.367 60.8711C235.82 60.6211 235.398 60.2227 235.102 59.6758C234.805 59.1289 234.656 58.4102 234.656 57.5195V45.1914Z" fill="#888888"/>
<path d="M106.688 119H99.1172L99.1641 112.672H106.688C108.25 112.672 109.57 112.297 110.648 111.547C111.742 110.797 112.57 109.68 113.133 108.195C113.711 106.695 114 104.852 114 102.664V101.188C114 99.5469 113.836 98.1094 113.508 96.875C113.195 95.625 112.727 94.5859 112.102 93.7578C111.477 92.9141 110.695 92.2812 109.758 91.8594C108.836 91.4375 107.773 91.2266 106.57 91.2266H98.9766V84.875H106.57C108.883 84.875 111 85.2734 112.922 86.0703C114.859 86.8516 116.531 87.9766 117.938 89.4453C119.359 90.8984 120.453 92.625 121.219 94.625C122 96.6094 122.391 98.8125 122.391 101.234V102.664C122.391 105.07 122 107.273 121.219 109.273C120.453 111.273 119.367 113 117.961 114.453C116.555 115.906 114.891 117.031 112.969 117.828C111.062 118.609 108.969 119 106.688 119ZM103.828 84.875V119H95.6016V84.875H103.828ZM139.477 112.625V102.172C139.477 101.453 139.375 100.836 139.172 100.32C138.969 99.8047 138.648 99.4062 138.211 99.125C137.773 98.8281 137.188 98.6797 136.453 98.6797C135.859 98.6797 135.352 98.7812 134.93 98.9844C134.508 99.1875 134.188 99.4922 133.969 99.8984C133.75 100.305 133.641 100.82 133.641 101.445H125.742C125.742 100.273 126 99.1875 126.516 98.1875C127.047 97.1719 127.797 96.2891 128.766 95.5391C129.75 94.7891 130.922 94.2109 132.281 93.8047C133.656 93.3828 135.188 93.1719 136.875 93.1719C138.891 93.1719 140.688 93.5078 142.266 94.1797C143.859 94.8516 145.117 95.8594 146.039 97.2031C146.961 98.5312 147.422 100.203 147.422 102.219V112.602C147.422 114.258 147.516 115.516 147.703 116.375C147.891 117.219 148.156 117.961 148.5 118.602V119H140.578C140.203 118.219 139.922 117.266 139.734 116.141C139.562 115 139.477 113.828 139.477 112.625ZM140.438 103.508L140.484 107.727H136.992C136.258 107.727 135.633 107.828 135.117 108.031C134.617 108.234 134.211 108.516 133.898 108.875C133.602 109.219 133.383 109.609 133.242 110.047C133.117 110.484 133.055 110.945 133.055 111.43C133.055 111.898 133.164 112.32 133.383 112.695C133.617 113.055 133.93 113.336 134.32 113.539C134.711 113.742 135.148 113.844 135.633 113.844C136.508 113.844 137.25 113.68 137.859 113.352C138.484 113.008 138.961 112.594 139.289 112.109C139.617 111.625 139.781 111.172 139.781 110.75L141.516 113.984C141.203 114.609 140.844 115.242 140.438 115.883C140.047 116.523 139.555 117.117 138.961 117.664C138.383 118.195 137.672 118.633 136.828 118.977C135.984 119.305 134.961 119.469 133.758 119.469C132.195 119.469 130.758 119.148 129.445 118.508C128.148 117.867 127.109 116.977 126.328 115.836C125.547 114.68 125.156 113.352 125.156 111.852C125.156 110.539 125.391 109.367 125.859 108.336C126.344 107.305 127.07 106.43 128.039 105.711C129.008 104.992 130.242 104.445 131.742 104.07C133.242 103.695 135.008 103.508 137.039 103.508H140.438ZM165.164 93.6406V99.125H149.883V93.6406H165.164ZM153.094 87.3359H160.992V110.727C160.992 111.398 161.07 111.922 161.227 112.297C161.383 112.656 161.648 112.914 162.023 113.07C162.414 113.211 162.93 113.281 163.57 113.281C164.023 113.281 164.398 113.273 164.695 113.258C164.992 113.227 165.273 113.188 165.539 113.141V118.789C164.867 119.008 164.164 119.172 163.43 119.281C162.695 119.406 161.914 119.469 161.086 119.469C159.398 119.469 157.953 119.203 156.75 118.672C155.562 118.141 154.656 117.305 154.031 116.164C153.406 115.023 153.094 113.539 153.094 111.711V87.3359ZM181.477 112.625V102.172C181.477 101.453 181.375 100.836 181.172 100.32C180.969 99.8047 180.648 99.4062 180.211 99.125C179.773 98.8281 179.188 98.6797 178.453 98.6797C177.859 98.6797 177.352 98.7812 176.93 98.9844C176.508 99.1875 176.188 99.4922 175.969 99.8984C175.75 100.305 175.641 100.82 175.641 101.445H167.742C167.742 100.273 168 99.1875 168.516 98.1875C169.047 97.1719 169.797 96.2891 170.766 95.5391C171.75 94.7891 172.922 94.2109 174.281 93.8047C175.656 93.3828 177.188 93.1719 178.875 93.1719C180.891 93.1719 182.688 93.5078 184.266 94.1797C185.859 94.8516 187.117 95.8594 188.039 97.2031C188.961 98.5312 189.422 100.203 189.422 102.219V112.602C189.422 114.258 189.516 115.516 189.703 116.375C189.891 117.219 190.156 117.961 190.5 118.602V119H182.578C182.203 118.219 181.922 117.266 181.734 116.141C181.562 115 181.477 113.828 181.477 112.625ZM182.438 103.508L182.484 107.727H178.992C178.258 107.727 177.633 107.828 177.117 108.031C176.617 108.234 176.211 108.516 175.898 108.875C175.602 109.219 175.383 109.609 175.242 110.047C175.117 110.484 175.055 110.945 175.055 111.43C175.055 111.898 175.164 112.32 175.383 112.695C175.617 113.055 175.93 113.336 176.32 113.539C176.711 113.742 177.148 113.844 177.633 113.844C178.508 113.844 179.25 113.68 179.859 113.352C180.484 113.008 180.961 112.594 181.289 112.109C181.617 111.625 181.781 111.172 181.781 110.75L183.516 113.984C183.203 114.609 182.844 115.242 182.438 115.883C182.047 116.523 181.555 117.117 180.961 117.664C180.383 118.195 179.672 118.633 178.828 118.977C177.984 119.305 176.961 119.469 175.758 119.469C174.195 119.469 172.758 119.148 171.445 118.508C170.148 117.867 169.109 116.977 168.328 115.836C167.547 114.68 167.156 113.352 167.156 111.852C167.156 110.539 167.391 109.367 167.859 108.336C168.344 107.305 169.07 106.43 170.039 105.711C171.008 104.992 172.242 104.445 173.742 104.07C175.242 103.695 177.008 103.508 179.039 103.508H182.438ZM193.875 83H201.773V112.766L200.953 119H193.875V83ZM217.336 106.039V106.531C217.336 108.453 217.141 110.203 216.75 111.781C216.359 113.359 215.758 114.727 214.945 115.883C214.133 117.023 213.109 117.906 211.875 118.531C210.641 119.156 209.18 119.469 207.492 119.469C205.961 119.469 204.648 119.141 203.555 118.484C202.461 117.812 201.547 116.891 200.812 115.719C200.078 114.531 199.484 113.164 199.031 111.617C198.578 110.055 198.219 108.383 197.953 106.602V106.016C198.219 104.25 198.578 102.594 199.031 101.047C199.484 99.4844 200.078 98.1172 200.812 96.9453C201.547 95.7578 202.453 94.8359 203.531 94.1797C204.625 93.5078 205.93 93.1719 207.445 93.1719C209.148 93.1719 210.617 93.4922 211.852 94.1328C213.102 94.7734 214.133 95.6719 214.945 96.8281C215.758 97.9844 216.359 99.3438 216.75 100.906C217.141 102.469 217.336 104.18 217.336 106.039ZM209.438 106.531V106.039C209.438 105.117 209.383 104.25 209.273 103.438C209.164 102.625 208.969 101.906 208.688 101.281C208.406 100.656 208.008 100.164 207.492 99.8047C206.977 99.4453 206.305 99.2656 205.477 99.2656C204.633 99.2656 203.922 99.4062 203.344 99.6875C202.781 99.9688 202.328 100.375 201.984 100.906C201.656 101.422 201.422 102.062 201.281 102.828C201.141 103.578 201.078 104.43 201.094 105.383V107.234C201.062 108.531 201.18 109.641 201.445 110.562C201.711 111.484 202.172 112.188 202.828 112.672C203.484 113.156 204.383 113.398 205.523 113.398C206.367 113.398 207.047 113.234 207.562 112.906C208.094 112.578 208.492 112.109 208.758 111.5C209.023 110.891 209.203 110.164 209.297 109.32C209.391 108.477 209.438 107.547 209.438 106.531ZM234.023 112.625V102.172C234.023 101.453 233.922 100.836 233.719 100.32C233.516 99.8047 233.195 99.4062 232.758 99.125C232.32 98.8281 231.734 98.6797 231 98.6797C230.406 98.6797 229.898 98.7812 229.477 98.9844C229.055 99.1875 228.734 99.4922 228.516 99.8984C228.297 100.305 228.188 100.82 228.188 101.445H220.289C220.289 100.273 220.547 99.1875 221.062 98.1875C221.594 97.1719 222.344 96.2891 223.312 95.5391C224.297 94.7891 225.469 94.2109 226.828 93.8047C228.203 93.3828 229.734 93.1719 231.422 93.1719C233.438 93.1719 235.234 93.5078 236.812 94.1797C238.406 94.8516 239.664 95.8594 240.586 97.2031C241.508 98.5312 241.969 100.203 241.969 102.219V112.602C241.969 114.258 242.062 115.516 242.25 116.375C242.438 117.219 242.703 117.961 243.047 118.602V119H235.125C234.75 118.219 234.469 117.266 234.281 116.141C234.109 115 234.023 113.828 234.023 112.625ZM234.984 103.508L235.031 107.727H231.539C230.805 107.727 230.18 107.828 229.664 108.031C229.164 108.234 228.758 108.516 228.445 108.875C228.148 109.219 227.93 109.609 227.789 110.047C227.664 110.484 227.602 110.945 227.602 111.43C227.602 111.898 227.711 112.32 227.93 112.695C228.164 113.055 228.477 113.336 228.867 113.539C229.258 113.742 229.695 113.844 230.18 113.844C231.055 113.844 231.797 113.68 232.406 113.352C233.031 113.008 233.508 112.594 233.836 112.109C234.164 111.625 234.328 111.172 234.328 110.75L236.062 113.984C235.75 114.609 235.391 115.242 234.984 115.883C234.594 116.523 234.102 117.117 233.508 117.664C232.93 118.195 232.219 118.633 231.375 118.977C230.531 119.305 229.508 119.469 228.305 119.469C226.742 119.469 225.305 119.148 223.992 118.508C222.695 117.867 221.656 116.977 220.875 115.836C220.094 114.68 219.703 113.352 219.703 111.852C219.703 110.539 219.938 109.367 220.406 108.336C220.891 107.305 221.617 106.43 222.586 105.711C223.555 104.992 224.789 104.445 226.289 104.07C227.789 103.695 229.555 103.508 231.586 103.508H234.984ZM259.641 111.875C259.641 111.438 259.492 111.062 259.195 110.75C258.914 110.422 258.414 110.125 257.695 109.859C256.977 109.578 255.969 109.297 254.672 109.016C253.438 108.75 252.273 108.398 251.18 107.961C250.102 107.523 249.156 106.992 248.344 106.367C247.531 105.742 246.891 105 246.422 104.141C245.969 103.281 245.742 102.297 245.742 101.188C245.742 100.109 245.969 99.0938 246.422 98.1406C246.891 97.1719 247.57 96.3203 248.461 95.5859C249.367 94.8359 250.469 94.25 251.766 93.8281C253.062 93.3906 254.539 93.1719 256.195 93.1719C258.477 93.1719 260.445 93.5234 262.102 94.2266C263.758 94.9141 265.031 95.8828 265.922 97.1328C266.828 98.3672 267.281 99.7969 267.281 101.422H259.383C259.383 100.781 259.273 100.234 259.055 99.7812C258.852 99.3281 258.516 98.9844 258.047 98.75C257.578 98.5 256.953 98.375 256.172 98.375C255.625 98.375 255.125 98.4766 254.672 98.6797C254.234 98.8828 253.883 99.1641 253.617 99.5234C253.352 99.8828 253.219 100.305 253.219 100.789C253.219 101.133 253.297 101.445 253.453 101.727C253.625 101.992 253.883 102.242 254.227 102.477C254.57 102.695 255.008 102.898 255.539 103.086C256.07 103.258 256.711 103.414 257.461 103.555C259.164 103.867 260.758 104.312 262.242 104.891C263.727 105.469 264.93 106.289 265.852 107.352C266.789 108.414 267.258 109.844 267.258 111.641C267.258 112.766 267 113.805 266.484 114.758C265.969 115.695 265.227 116.523 264.258 117.242C263.289 117.945 262.125 118.492 260.766 118.883C259.406 119.273 257.875 119.469 256.172 119.469C253.75 119.469 251.703 119.039 250.031 118.18C248.359 117.305 247.094 116.211 246.234 114.898C245.391 113.57 244.969 112.227 244.969 110.867H252.328C252.359 111.648 252.547 112.289 252.891 112.789C253.25 113.289 253.727 113.656 254.32 113.891C254.914 114.125 255.602 114.242 256.383 114.242C257.102 114.242 257.695 114.141 258.164 113.938C258.648 113.734 259.016 113.461 259.266 113.117C259.516 112.758 259.641 112.344 259.641 111.875ZM283.242 119.469C281.18 119.469 279.336 119.148 277.711 118.508C276.086 117.852 274.711 116.953 273.586 115.812C272.477 114.672 271.625 113.359 271.031 111.875C270.453 110.391 270.164 108.82 270.164 107.164V106.273C270.164 104.414 270.422 102.695 270.938 101.117C271.453 99.5234 272.219 98.1328 273.234 96.9453C274.25 95.7578 275.523 94.8359 277.055 94.1797C278.586 93.5078 280.367 93.1719 282.398 93.1719C284.195 93.1719 285.805 93.4609 287.227 94.0391C288.648 94.6172 289.852 95.4453 290.836 96.5234C291.836 97.6016 292.594 98.9062 293.109 100.438C293.641 101.969 293.906 103.688 293.906 105.594V108.805H273.188V103.859H286.195V103.25C286.211 102.406 286.062 101.688 285.75 101.094C285.453 100.5 285.016 100.047 284.438 99.7344C283.859 99.4219 283.156 99.2656 282.328 99.2656C281.469 99.2656 280.758 99.4531 280.195 99.8281C279.648 100.203 279.219 100.719 278.906 101.375C278.609 102.016 278.398 102.758 278.273 103.602C278.148 104.445 278.086 105.336 278.086 106.273V107.164C278.086 108.102 278.211 108.953 278.461 109.719C278.727 110.484 279.102 111.141 279.586 111.688C280.086 112.219 280.68 112.633 281.367 112.93C282.07 113.227 282.867 113.375 283.758 113.375C284.836 113.375 285.898 113.172 286.945 112.766C287.992 112.359 288.891 111.688 289.641 110.75L293.227 115.016C292.711 115.75 291.977 116.461 291.023 117.148C290.086 117.836 288.961 118.398 287.648 118.836C286.336 119.258 284.867 119.469 283.242 119.469ZM320.531 119H312.961L313.008 112.672H320.531C322.094 112.672 323.414 112.297 324.492 111.547C325.586 110.797 326.414 109.68 326.977 108.195C327.555 106.695 327.844 104.852 327.844 102.664V101.188C327.844 99.5469 327.68 98.1094 327.352 96.875C327.039 95.625 326.57 94.5859 325.945 93.7578C325.32 92.9141 324.539 92.2812 323.602 91.8594C322.68 91.4375 321.617 91.2266 320.414 91.2266H312.82V84.875H320.414C322.727 84.875 324.844 85.2734 326.766 86.0703C328.703 86.8516 330.375 87.9766 331.781 89.4453C333.203 90.8984 334.297 92.625 335.062 94.625C335.844 96.6094 336.234 98.8125 336.234 101.234V102.664C336.234 105.07 335.844 107.273 335.062 109.273C334.297 111.273 333.211 113 331.805 114.453C330.398 115.906 328.734 117.031 326.812 117.828C324.906 118.609 322.812 119 320.531 119ZM317.672 84.875V119H309.445V84.875H317.672ZM352.43 119.469C350.367 119.469 348.523 119.148 346.898 118.508C345.273 117.852 343.898 116.953 342.773 115.812C341.664 114.672 340.812 113.359 340.219 111.875C339.641 110.391 339.352 108.82 339.352 107.164V106.273C339.352 104.414 339.609 102.695 340.125 101.117C340.641 99.5234 341.406 98.1328 342.422 96.9453C343.438 95.7578 344.711 94.8359 346.242 94.1797C347.773 93.5078 349.555 93.1719 351.586 93.1719C353.383 93.1719 354.992 93.4609 356.414 94.0391C357.836 94.6172 359.039 95.4453 360.023 96.5234C361.023 97.6016 361.781 98.9062 362.297 100.438C362.828 101.969 363.094 103.688 363.094 105.594V108.805H342.375V103.859H355.383V103.25C355.398 102.406 355.25 101.688 354.938 101.094C354.641 100.5 354.203 100.047 353.625 99.7344C353.047 99.4219 352.344 99.2656 351.516 99.2656C350.656 99.2656 349.945 99.4531 349.383 99.8281C348.836 100.203 348.406 100.719 348.094 101.375C347.797 102.016 347.586 102.758 347.461 103.602C347.336 104.445 347.273 105.336 347.273 106.273V107.164C347.273 108.102 347.398 108.953 347.648 109.719C347.914 110.484 348.289 111.141 348.773 111.688C349.273 112.219 349.867 112.633 350.555 112.93C351.258 113.227 352.055 113.375 352.945 113.375C354.023 113.375 355.086 113.172 356.133 112.766C357.18 112.359 358.078 111.688 358.828 110.75L362.414 115.016C361.898 115.75 361.164 116.461 360.211 117.148C359.273 117.836 358.148 118.398 356.836 118.836C355.523 119.258 354.055 119.469 352.43 119.469ZM379.594 111.875C379.594 111.438 379.445 111.062 379.148 110.75C378.867 110.422 378.367 110.125 377.648 109.859C376.93 109.578 375.922 109.297 374.625 109.016C373.391 108.75 372.227 108.398 371.133 107.961C370.055 107.523 369.109 106.992 368.297 106.367C367.484 105.742 366.844 105 366.375 104.141C365.922 103.281 365.695 102.297 365.695 101.188C365.695 100.109 365.922 99.0938 366.375 98.1406C366.844 97.1719 367.523 96.3203 368.414 95.5859C369.32 94.8359 370.422 94.25 371.719 93.8281C373.016 93.3906 374.492 93.1719 376.148 93.1719C378.43 93.1719 380.398 93.5234 382.055 94.2266C383.711 94.9141 384.984 95.8828 385.875 97.1328C386.781 98.3672 387.234 99.7969 387.234 101.422H379.336C379.336 100.781 379.227 100.234 379.008 99.7812C378.805 99.3281 378.469 98.9844 378 98.75C377.531 98.5 376.906 98.375 376.125 98.375C375.578 98.375 375.078 98.4766 374.625 98.6797C374.188 98.8828 373.836 99.1641 373.57 99.5234C373.305 99.8828 373.172 100.305 373.172 100.789C373.172 101.133 373.25 101.445 373.406 101.727C373.578 101.992 373.836 102.242 374.18 102.477C374.523 102.695 374.961 102.898 375.492 103.086C376.023 103.258 376.664 103.414 377.414 103.555C379.117 103.867 380.711 104.312 382.195 104.891C383.68 105.469 384.883 106.289 385.805 107.352C386.742 108.414 387.211 109.844 387.211 111.641C387.211 112.766 386.953 113.805 386.438 114.758C385.922 115.695 385.18 116.523 384.211 117.242C383.242 117.945 382.078 118.492 380.719 118.883C379.359 119.273 377.828 119.469 376.125 119.469C373.703 119.469 371.656 119.039 369.984 118.18C368.312 117.305 367.047 116.211 366.188 114.898C365.344 113.57 364.922 112.227 364.922 110.867H372.281C372.312 111.648 372.5 112.289 372.844 112.789C373.203 113.289 373.68 113.656 374.273 113.891C374.867 114.125 375.555 114.242 376.336 114.242C377.055 114.242 377.648 114.141 378.117 113.938C378.602 113.734 378.969 113.461 379.219 113.117C379.469 112.758 379.594 112.344 379.594 111.875ZM399.258 93.6406V119H391.336V93.6406H399.258ZM390.867 87.1016C390.867 85.9766 391.273 85.0547 392.086 84.3359C392.898 83.6172 393.953 83.2578 395.25 83.2578C396.547 83.2578 397.602 83.6172 398.414 84.3359C399.227 85.0547 399.633 85.9766 399.633 87.1016C399.633 88.2266 399.227 89.1484 398.414 89.8672C397.602 90.5859 396.547 90.9453 395.25 90.9453C393.953 90.9453 392.898 90.5859 392.086 89.8672C391.273 89.1484 390.867 88.2266 390.867 87.1016ZM420.07 93.6406H427.242V118.016C427.242 120.359 426.703 122.344 425.625 123.969C424.547 125.609 423.039 126.852 421.102 127.695C419.18 128.555 416.93 128.984 414.352 128.984C413.211 128.984 412.047 128.836 410.859 128.539C409.672 128.258 408.562 127.836 407.531 127.273C406.5 126.711 405.633 126.016 404.93 125.188L408.234 120.547C408.875 121.266 409.68 121.875 410.648 122.375C411.617 122.891 412.758 123.148 414.07 123.148C415.211 123.148 416.164 122.945 416.93 122.539C417.711 122.133 418.305 121.539 418.711 120.758C419.117 119.992 419.32 119.062 419.32 117.969V99.6406L420.07 93.6406ZM403.219 106.625V106.133C403.219 104.211 403.453 102.461 403.922 100.883C404.406 99.2891 405.094 97.9219 405.984 96.7812C406.891 95.625 407.984 94.7344 409.266 94.1094C410.547 93.4844 411.992 93.1719 413.602 93.1719C415.336 93.1719 416.758 93.5078 417.867 94.1797C418.992 94.8359 419.891 95.7578 420.562 96.9453C421.25 98.1328 421.781 99.5234 422.156 101.117C422.547 102.695 422.875 104.398 423.141 106.227V106.812C422.875 108.531 422.508 110.156 422.039 111.688C421.586 113.203 420.992 114.547 420.258 115.719C419.523 116.891 418.602 117.812 417.492 118.484C416.398 119.141 415.086 119.469 413.555 119.469C411.961 119.469 410.523 119.148 409.242 118.508C407.977 117.867 406.891 116.969 405.984 115.812C405.094 114.656 404.406 113.297 403.922 111.734C403.453 110.172 403.219 108.469 403.219 106.625ZM411.117 106.133V106.625C411.117 107.578 411.203 108.461 411.375 109.273C411.562 110.086 411.844 110.805 412.219 111.43C412.594 112.039 413.055 112.516 413.602 112.859C414.164 113.203 414.82 113.375 415.57 113.375C416.711 113.375 417.633 113.133 418.336 112.648C419.039 112.164 419.547 111.477 419.859 110.586C420.172 109.695 420.305 108.648 420.258 107.445V105.594C420.289 104.562 420.219 103.656 420.047 102.875C419.875 102.078 419.602 101.414 419.227 100.883C418.867 100.352 418.383 99.9531 417.773 99.6875C417.18 99.4062 416.461 99.2656 415.617 99.2656C414.883 99.2656 414.234 99.4375 413.672 99.7812C413.109 100.125 412.641 100.609 412.266 101.234C411.891 101.844 411.602 102.57 411.398 103.414C411.211 104.242 411.117 105.148 411.117 106.133ZM439.547 99.0547V119H431.648V93.6406H439.055L439.547 99.0547ZM438.609 105.453L436.758 105.5C436.758 103.562 436.992 101.836 437.461 100.32C437.93 98.7891 438.594 97.4922 439.453 96.4297C440.312 95.3672 441.336 94.5625 442.523 94.0156C443.727 93.4531 445.062 93.1719 446.531 93.1719C447.703 93.1719 448.773 93.3438 449.742 93.6875C450.727 94.0312 451.57 94.5859 452.273 95.3516C452.992 96.1172 453.539 97.1328 453.914 98.3984C454.305 99.6484 454.5 101.195 454.5 103.039V119H446.555V103.016C446.555 102 446.414 101.227 446.133 100.695C445.852 100.148 445.445 99.7734 444.914 99.5703C444.383 99.3672 443.734 99.2656 442.969 99.2656C442.156 99.2656 441.469 99.4219 440.906 99.7344C440.344 100.047 439.891 100.484 439.547 101.047C439.219 101.594 438.977 102.242 438.82 102.992C438.68 103.742 438.609 104.562 438.609 105.453Z" fill="black"/>
<path d="M1134 0H1348C1356.28 0 1363 6.71573 1363 15V148C1363 156.284 1356.28 163 1348 163H1134V0Z" fill="#246279"/>
<path d="M1217.58 64.1667C1217.58 66.0281 1218.51 67.7419 1220.09 69.2434C1221.67 70.7429 1223.94 72.0619 1226.71 73.1553C1232.26 75.343 1239.93 76.6667 1248.5 76.6667C1257.07 76.6667 1264.74 75.343 1270.29 73.1553C1273.06 72.0619 1275.33 70.7429 1276.91 69.2434C1278.49 67.7419 1279.42 66.0281 1279.42 64.1667C1279.42 62.3052 1278.49 60.5914 1276.91 59.0899C1275.33 57.5904 1273.06 56.2714 1270.29 55.178C1264.74 52.9903 1257.07 51.6667 1248.5 51.6667C1239.93 51.6667 1232.26 52.9903 1226.71 55.178C1223.94 56.2714 1221.67 57.5904 1220.09 59.0899C1218.51 60.5914 1217.58 62.3052 1217.58 64.1667ZM1221.62 64.1667C1221.62 63.0283 1222.37 61.8878 1223.88 60.7921C1225.37 59.7041 1227.52 58.7293 1230.11 57.9144C1235.28 56.2864 1242.07 55.3333 1248.5 55.3333C1254.93 55.3333 1261.72 56.2864 1266.89 57.9144C1269.48 58.7293 1271.63 59.7041 1273.12 60.7921C1274.63 61.8878 1275.37 63.0283 1275.37 64.1667C1275.37 65.305 1274.63 66.4455 1273.12 67.5412C1271.63 68.6292 1269.48 69.604 1266.89 70.4189C1261.72 72.0469 1254.93 73 1248.5 73C1242.07 73 1235.28 72.0469 1230.11 70.4189C1227.52 69.604 1225.37 68.6292 1223.88 67.5412C1222.37 66.4455 1221.62 65.305 1221.62 64.1667Z" fill="white" stroke="white"/>
<path d="M1217.58 74.8333C1217.58 76.6948 1218.51 78.4086 1220.09 79.9101C1221.67 81.4096 1223.94 82.7286 1226.71 83.822C1232.26 86.0097 1239.93 87.3333 1248.5 87.3333C1257.07 87.3333 1264.74 86.0097 1270.29 83.822C1273.06 82.7286 1275.33 81.4096 1276.91 79.9101C1278.49 78.4086 1279.42 76.6948 1279.42 74.8333V64.1667C1279.42 63.6576 1279.19 63.1851 1278.8 62.8479C1278.42 62.5126 1277.91 62.3333 1277.4 62.3333C1276.88 62.3333 1276.37 62.5126 1275.99 62.8479C1275.61 63.1851 1275.37 63.6576 1275.37 64.1667V74.8333C1275.37 75.9717 1274.63 77.1122 1273.12 78.2079C1271.63 79.2959 1269.48 80.2707 1266.89 81.0856C1261.72 82.7136 1254.93 83.6667 1248.5 83.6667C1242.07 83.6667 1235.28 82.7136 1230.11 81.0856C1227.52 80.2707 1225.37 79.2959 1223.88 78.2079C1222.37 77.1122 1221.62 75.9717 1221.62 74.8333V64.1667C1221.62 63.6576 1221.39 63.1851 1221.01 62.8479C1220.63 62.5126 1220.12 62.3333 1219.6 62.3333C1219.09 62.3333 1218.58 62.5126 1218.2 62.8479C1217.81 63.1851 1217.58 63.6576 1217.58 64.1667V74.8333Z" fill="white" stroke="white"/>
<path d="M1217.58 86.8333C1217.58 88.6948 1218.51 90.4086 1220.09 91.9101C1221.67 93.4095 1223.94 94.7286 1226.71 95.8219C1232.26 98.0097 1239.93 99.3333 1248.5 99.3333C1257.07 99.3333 1264.74 98.0097 1270.29 95.8219C1273.06 94.7286 1275.33 93.4095 1276.91 91.9101C1278.49 90.4086 1279.42 88.6948 1279.42 86.8333V74.8333C1279.42 74.3243 1279.19 73.8517 1278.8 73.5146C1278.42 73.1792 1277.91 73 1277.4 73C1276.88 73 1276.37 73.1792 1275.99 73.5146C1275.61 73.8517 1275.37 74.3243 1275.37 74.8333V86.8333C1275.37 87.9717 1274.63 89.1122 1273.12 90.2079C1271.63 91.2958 1269.48 92.2707 1266.89 93.0856C1261.72 94.7136 1254.93 95.6667 1248.5 95.6667C1242.07 95.6667 1235.28 94.7136 1230.11 93.0856C1227.52 92.2707 1225.37 91.2958 1223.88 90.2079C1222.37 89.1122 1221.62 87.9717 1221.62 86.8333V74.8333C1221.62 74.3243 1221.39 73.8517 1221.01 73.5146C1220.63 73.1792 1220.12 73 1219.6 73C1219.09 73 1218.58 73.1792 1218.2 73.5146C1217.81 73.8517 1217.58 74.3243 1217.58 74.8333V86.8333Z" fill="white" stroke="white"/>
<path d="M1217.58 98.8333C1217.58 100.695 1218.51 102.409 1220.09 103.91C1221.67 105.41 1223.94 106.729 1226.71 107.822C1232.26 110.01 1239.93 111.333 1248.5 111.333C1257.07 111.333 1264.74 110.01 1270.29 107.822C1273.06 106.729 1275.33 105.41 1276.91 103.91C1278.49 102.409 1279.42 100.695 1279.42 98.8333V86.8333C1279.42 86.3243 1279.19 85.8517 1278.8 85.5146C1278.42 85.1792 1277.91 85 1277.4 85C1276.88 85 1276.37 85.1792 1275.99 85.5146C1275.61 85.8517 1275.37 86.3243 1275.37 86.8333V98.8333C1275.37 99.9717 1274.63 101.112 1273.12 102.208C1271.63 103.296 1269.48 104.271 1266.89 105.086C1261.72 106.714 1254.93 107.667 1248.5 107.667C1242.07 107.667 1235.28 106.714 1230.11 105.086C1227.52 104.271 1225.37 103.296 1223.88 102.208C1222.37 101.112 1221.62 99.9717 1221.62 98.8333V86.8333C1221.62 86.3243 1221.39 85.8517 1221.01 85.5146C1220.63 85.1792 1220.12 85 1219.6 85C1219.09 85 1218.58 85.1792 1218.2 85.5146C1217.81 85.8517 1217.58 86.3243 1217.58 86.8333V98.8333Z" fill="white" stroke="white"/>
</svg>
